<?xml version="1.0" encoding="UTF-8" standalone="no"?>
<svg
   xmlns:dc="http://purl.org/dc/elements/1.1/"
   xmlns:cc="http://creativecommons.org/ns#"
   xmlns:rdf="http://www.w3.org/1999/02/22-rdf-syntax-ns#"
   xmlns:svg="http://www.w3.org/2000/svg"
   xmlns="http://www.w3.org/2000/svg"
   viewBox="0 0 4493.7603 3178.5598"
   height="3178.5598"
   width="4493.7603"
   xml:space="preserve"
   id="svg2"
   version="1.1"><metadata
     id="metadata8"><rdf:RDF><cc:Work
         rdf:about=""><dc:format>image/svg+xml</dc:format><dc:type
           rdf:resource="http://purl.org/dc/dcmitype/StillImage" /></cc:Work></rdf:RDF></metadata><defs
     id="defs6"><clipPath
       id="clipPath20"
       clipPathUnits="userSpaceOnUse"><path
         id="path18"
         d="M 0,0 V 2383.9199 H 3370.3201 V 0 Z" /></clipPath></defs><g
     transform="matrix(1.3333333,0,0,-1.3333333,0,3178.5599)"
     id="g10"><g
       transform="matrix(1,0,0,-1,0,2383.9199)"
       id="g12"><g
         id="g14"><g
           clip-path="url(#clipPath20)"
           id="g16"><path
             id="path22"
             style="fill:none;stroke:#000000;stroke-width:0.23999999;stroke-linecap:round;stroke-linejoin:round;stroke-miterlimit:10;stroke-dasharray:none;stroke-opacity:1"
             d="m 2717.3496,1143.6906 v 114.5429" /><path
             id="path24"
             style="fill:none;stroke:#000000;stroke-width:0.23999999;stroke-linecap:round;stroke-linejoin:round;stroke-miterlimit:10;stroke-dasharray:none;stroke-opacity:1"
             d="M 3175.5212,570.97601 V 456.43311" /><path
             id="path26"
             style="fill:none;stroke:#000000;stroke-width:0.23999999;stroke-linecap:round;stroke-linejoin:round;stroke-miterlimit:10;stroke-dasharray:none;stroke-opacity:1"
             d="M 2259.178,685.51892 V 570.97601 456.43311 h -114.543 -114.543 -114.5429 -114.5428 -114.5429 v 114.5429 114.54291 114.54291 114.54297 114.543 114.5428 114.5429 114.543 114.5428 114.543 114.543 114.5428 h 114.5429 114.5428 v -114.5428 -114.543 -114.543 -114.5428 -114.543 h 114.5429 114.543 V 1143.6906 1029.1478 H 2030.092 1915.5491 V 914.6048 800.06183 685.51892 h 114.5429 114.543 z" /><path
             id="path28"
             style="fill:none;stroke:#000000;stroke-width:0.23999999;stroke-linecap:round;stroke-linejoin:round;stroke-miterlimit:10;stroke-dasharray:none;stroke-opacity:1"
             d="m 2946.4355,1716.4053 v -114.543" /><path
             id="path30"
             style="fill:none;stroke:#000000;stroke-width:0.23999999;stroke-linecap:round;stroke-linejoin:round;stroke-miterlimit:10;stroke-dasharray:none;stroke-opacity:1"
             d="m 2946.4355,1372.7765 v -114.543" /><path
             id="path32"
             style="fill:none;stroke:#000000;stroke-width:0.23999999;stroke-linecap:round;stroke-linejoin:round;stroke-miterlimit:10;stroke-dasharray:none;stroke-opacity:1"
             d="M 2946.4355,800.06183 V 685.51892" /><path
             id="path34"
             style="fill:none;stroke:#000000;stroke-width:0.23999999;stroke-linecap:round;stroke-linejoin:round;stroke-miterlimit:10;stroke-dasharray:none;stroke-opacity:1"
             d="m 2946.4355,685.51892 h 114.543" /><path
             id="path36"
             style="fill:none;stroke:#000000;stroke-width:0.23999999;stroke-linecap:round;stroke-linejoin:round;stroke-miterlimit:10;stroke-dasharray:none;stroke-opacity:1"
             d="M 2946.4355,1258.2335 V 1143.6906" /><path
             id="path38"
             style="fill:none;stroke:#000000;stroke-width:0.23999999;stroke-linecap:round;stroke-linejoin:round;stroke-miterlimit:10;stroke-dasharray:none;stroke-opacity:1"
             d="M 2717.3496,800.06183 V 914.6048" /><path
             id="path40"
             style="fill:none;stroke:#000000;stroke-width:0.23999999;stroke-linecap:round;stroke-linejoin:round;stroke-miterlimit:10;stroke-dasharray:none;stroke-opacity:1"
             d="M 2602.8069,570.97601 V 685.51892" /><path
             id="path42"
             style="fill:none;stroke:#000000;stroke-width:0.23999999;stroke-linecap:round;stroke-linejoin:round;stroke-miterlimit:10;stroke-dasharray:none;stroke-opacity:1"
             d="M 3175.5212,456.43311 H 3060.9785" /><path
             id="path44"
             style="fill:none;stroke:#000000;stroke-width:0.23999999;stroke-linecap:round;stroke-linejoin:round;stroke-miterlimit:10;stroke-dasharray:none;stroke-opacity:1"
             d="M 3175.5212,685.51892 V 570.97601" /><path
             id="path46"
             style="fill:none;stroke:#000000;stroke-width:0.23999999;stroke-linecap:round;stroke-linejoin:round;stroke-miterlimit:10;stroke-dasharray:none;stroke-opacity:1"
             d="m 655.57697,1830.9481 h 114.54296 v -114.5428 -114.543 -114.543 -114.5428 -114.543 -114.5429 -114.5428 H 655.57697 541.03406 426.49112 V 914.6048 800.06183 685.51892 H 541.03406 655.57697 770.11993 V 570.97601 456.43311 H 655.57697 541.03406 426.49112 311.94821 197.40529 v 114.5429 114.54291 114.54291 114.54297 114.543 114.5428 114.5429 h 114.54292 114.54291 114.54294 v 114.543 114.5428 114.543 H 426.49112 311.94821 197.40529 v 114.543 114.5428 h 114.54292 114.54291 114.54294 z" /><path
             id="path48"
             style="fill:none;stroke:#000000;stroke-width:0.23999999;stroke-linecap:round;stroke-linejoin:round;stroke-miterlimit:10;stroke-dasharray:none;stroke-opacity:1"
             d="m 2717.3496,1258.2335 v 114.543" /><path
             id="path50"
             style="fill:none;stroke:#000000;stroke-width:0.23999999;stroke-linecap:round;stroke-linejoin:round;stroke-miterlimit:10;stroke-dasharray:none;stroke-opacity:1"
             d="M 2946.4355,1830.9481 V 1716.4053" /><path
             id="path52"
             style="fill:none;stroke:#000000;stroke-width:0.23999999;stroke-linecap:round;stroke-linejoin:round;stroke-miterlimit:10;stroke-dasharray:none;stroke-opacity:1"
             d="M 2946.4355,1487.3193 V 1372.7765" /><path
             id="path54"
             style="fill:none;stroke:#000000;stroke-width:0.23999999;stroke-linecap:round;stroke-linejoin:round;stroke-miterlimit:10;stroke-dasharray:none;stroke-opacity:1"
             d="M 2946.4355,914.6048 V 800.06183" /><path
             id="path56"
             style="fill:none;stroke:#000000;stroke-width:0.23999999;stroke-linecap:round;stroke-linejoin:round;stroke-miterlimit:10;stroke-dasharray:none;stroke-opacity:1"
             d="m 3060.9785,685.51892 h 114.5427" /><path
             id="path58"
             style="fill:none;stroke:#000000;stroke-width:0.23999999;stroke-linecap:round;stroke-linejoin:round;stroke-miterlimit:10;stroke-dasharray:none;stroke-opacity:1"
             d="m 2717.3496,1716.4053 v 114.5428" /><path
             id="path60"
             style="fill:none;stroke:#000000;stroke-width:0.23999999;stroke-linecap:round;stroke-linejoin:round;stroke-miterlimit:10;stroke-dasharray:none;stroke-opacity:1"
             d="m 2717.3496,1830.9481 h 114.543" /><path
             id="path62"
             style="fill:none;stroke:#000000;stroke-width:0.23999999;stroke-linecap:round;stroke-linejoin:round;stroke-miterlimit:10;stroke-dasharray:none;stroke-opacity:1"
             d="m 2717.3496,914.6048 v 114.543" /><path
             id="path64"
             style="fill:none;stroke:#000000;stroke-width:0.23999999;stroke-linecap:round;stroke-linejoin:round;stroke-miterlimit:10;stroke-dasharray:none;stroke-opacity:1"
             d="m 2717.3496,1029.1478 v 114.5428" /><path
             id="path66"
             style="fill:none;stroke:#000000;stroke-width:0.23999999;stroke-linecap:round;stroke-linejoin:round;stroke-miterlimit:10;stroke-dasharray:none;stroke-opacity:1"
             d="M 2717.3496,456.43311 H 2602.8069" /><path
             id="path68"
             style="fill:none;stroke:#000000;stroke-width:0.23999999;stroke-linecap:round;stroke-linejoin:round;stroke-miterlimit:10;stroke-dasharray:none;stroke-opacity:1"
             d="m 2831.8926,456.43311 h -114.543" /><path
             id="path70"
             style="fill:none;stroke:#000000;stroke-width:0.23999999;stroke-linecap:round;stroke-linejoin:round;stroke-miterlimit:10;stroke-dasharray:none;stroke-opacity:1"
             d="m 2717.3496,1601.8623 v 114.543" /><path
             id="path72"
             style="fill:none;stroke:#000000;stroke-width:0.23999999;stroke-linecap:round;stroke-linejoin:round;stroke-miterlimit:10;stroke-dasharray:none;stroke-opacity:1"
             d="m 3060.9785,456.43311 h -114.543" /><path
             id="path74"
             style="fill:none;stroke:#000000;stroke-width:0.23999999;stroke-linecap:round;stroke-linejoin:round;stroke-miterlimit:10;stroke-dasharray:none;stroke-opacity:1"
             d="M 2946.4355,456.43311 H 2831.8926" /><path
             id="path76"
             style="fill:none;stroke:#000000;stroke-width:0.23999999;stroke-linecap:round;stroke-linejoin:round;stroke-miterlimit:10;stroke-dasharray:none;stroke-opacity:1"
             d="m 2602.8069,685.51892 h 114.5427" /><path
             id="path78"
             style="fill:none;stroke:#000000;stroke-width:0.23999999;stroke-linecap:round;stroke-linejoin:round;stroke-miterlimit:10;stroke-dasharray:none;stroke-opacity:1"
             d="M 2717.3496,685.51892 V 800.06183" /><path
             id="path80"
             style="fill:none;stroke:#000000;stroke-width:0.23999999;stroke-linecap:round;stroke-linejoin:round;stroke-miterlimit:10;stroke-dasharray:none;stroke-opacity:1"
             d="m 2717.3496,1372.7765 v 114.5428" /><path
             id="path82"
             style="fill:none;stroke:#000000;stroke-width:0.23999999;stroke-linecap:round;stroke-linejoin:round;stroke-miterlimit:10;stroke-dasharray:none;stroke-opacity:1"
             d="m 2602.8069,456.43311 v 114.5429" /><path
             id="path84"
             style="fill:none;stroke:#000000;stroke-width:0.23999999;stroke-linecap:round;stroke-linejoin:round;stroke-miterlimit:10;stroke-dasharray:none;stroke-opacity:1"
             d="m 1113.7487,1716.4053 v 114.5428 h 114.5429 114.543 v -114.5428 -114.543 -114.543 -114.5428 -114.543 V 1143.6906 1029.1478 914.6048 800.06183 685.51892 570.97601 456.43311 h -114.543 -114.5429 v 114.5429 114.54291 114.54291 114.54297 114.543 114.5428 114.5429 114.543 114.5428 114.543 z" /><path
             id="path86"
             style="fill:none;stroke:#000000;stroke-width:0.23999999;stroke-linecap:round;stroke-linejoin:round;stroke-miterlimit:10;stroke-dasharray:none;stroke-opacity:1"
             d="m 2717.3496,1487.3193 v 114.543" /><path
             id="path88"
             style="fill:none;stroke:#000000;stroke-width:0.23999999;stroke-linecap:round;stroke-linejoin:round;stroke-miterlimit:10;stroke-dasharray:none;stroke-opacity:1"
             d="m 2831.8926,1830.9481 h 114.5429" /><path
             id="path90"
             style="fill:none;stroke:#000000;stroke-width:0.23999999;stroke-linecap:round;stroke-linejoin:round;stroke-miterlimit:10;stroke-dasharray:none;stroke-opacity:1"
             d="m 2946.4355,1601.8623 v -114.543" /><path
             id="path92"
             style="fill:none;stroke:#000000;stroke-width:0.23999999;stroke-linecap:round;stroke-linejoin:round;stroke-miterlimit:10;stroke-dasharray:none;stroke-opacity:1"
             d="M 2946.4355,1143.6906 V 1029.1478" /><path
             id="path94"
             style="fill:none;stroke:#000000;stroke-width:0.23999999;stroke-linecap:round;stroke-linejoin:round;stroke-miterlimit:10;stroke-dasharray:none;stroke-opacity:1"
             d="M 2946.4355,1029.1478 V 914.6048" /><g
             id="g96"><path
               id="path98"
               style="fill:#000000;fill-opacity:1;fill-rule:nonzero;stroke:none"
               d="m 1113.7487,1716.4053 c 0,38.1809 0,76.3619 0,114.5428 38.181,0 76.362,0 114.5429,0 38.1811,0 76.362,0 114.543,0 0,-38.1809 0,-76.3619 0,-114.5428 0,-38.1811 0,-76.362 0,-114.543 0,-38.181 0,-76.3619 0,-114.543 0,-38.1809 0,-76.3619 0,-114.5428 0,-38.181 0,-76.3619 0,-114.543 0,-38.181 0,-76.3619 0,-114.5429 0,-38.1808 0,-76.3619 0,-114.5428 0,-38.181 0,-76.36203 0,-114.543 0,-38.18097 0,-76.36194 0,-114.54297 0,-38.18097 0,-76.36194 0,-114.54291 0,-38.18097 0,-76.36194 0,-114.54291 0,-38.18097 0,-76.36197 0,-114.5429 -38.181,0 -76.3619,0 -114.543,0 -38.1809,0 -76.3619,0 -114.5429,0 0,38.18093 0,76.36193 0,114.5429 0,38.18097 0,76.36194 0,114.54291 0,38.18097 0,76.36194 0,114.54291 0,38.18103 0,76.362 0,114.54297 0,38.18097 0,76.362 0,114.543 0,38.1809 0,76.362 0,114.5428 0,38.181 0,76.3619 0,114.5429 0,38.1811 0,76.362 0,114.543 0,38.1809 0,76.3619 0,114.5428 0,38.1811 0,76.362 0,114.543 0,38.181 0,76.3619 0,114.543 z" /></g><g
             id="g100"><path
               id="path102"
               style="fill:#000000;fill-opacity:1;fill-rule:nonzero;stroke:none"
               d="m 655.57697,1830.9481 c 38.18103,0 76.36199,0 114.54296,0 0,-38.1809 0,-76.3619 0,-114.5428 0,-38.1811 0,-76.362 0,-114.543 0,-38.181 0,-76.3619 0,-114.543 0,-38.1809 0,-76.3619 0,-114.5428 0,-38.181 0,-76.3619 0,-114.543 0,-38.181 0,-76.3619 0,-114.5429 0,-38.1808 0,-76.3619 0,-114.5428 -38.18097,0 -76.36193,0 -114.54296,0 -38.18097,0 -76.36194,0 -114.54291,0 -38.18097,0 -76.36194,0 -114.54294,0 0,-38.181 0,-76.36203 0,-114.543 0,-38.18097 0,-76.36194 0,-114.54297 0,-38.18097 0,-76.36194 0,-114.54291 38.181,0 76.36197,0 114.54294,0 38.18097,0 76.36194,0 114.54291,0 38.18103,0 76.36199,0 114.54296,0 0,-38.18097 0,-76.36194 0,-114.54291 0,-38.18097 0,-76.36197 0,-114.5429 -38.18097,0 -76.36193,0 -114.54296,0 -38.18097,0 -76.36194,0 -114.54291,0 -38.18097,0 -76.36194,0 -114.54294,0 -38.18097,0 -76.36194,0 -114.54291,0 -38.181,0 -76.36195,0 -114.54292,0 0,38.18093 0,76.36193 0,114.5429 0,38.18097 0,76.36194 0,114.54291 0,38.18097 0,76.36194 0,114.54291 0,38.18103 0,76.362 0,114.54297 0,38.18097 0,76.362 0,114.543 0,38.1809 0,76.362 0,114.5428 0,38.181 0,76.3619 0,114.5429 38.18097,0 76.36192,0 114.54292,0 38.18097,0 76.36194,0 114.54291,0 38.181,0 76.36197,0 114.54294,0 0,38.1811 0,76.362 0,114.543 0,38.1809 0,76.3619 0,114.5428 0,38.1811 0,76.362 0,114.543 -38.18097,0 -76.36194,0 -114.54294,0 -38.18097,0 -76.36194,0 -114.54291,0 -38.181,0 -76.36195,0 -114.54292,0 0,38.181 0,76.3619 0,114.543 0,38.1809 0,76.3619 0,114.5428 38.18097,0 76.36192,0 114.54292,0 38.18097,0 76.36194,0 114.54291,0 38.181,0 76.36197,0 114.54294,0 38.18097,0 76.36194,0 114.54291,0 z" /></g><g
             id="g104"><path
               id="path106"
               style="fill:#000000;fill-opacity:1;fill-rule:nonzero;stroke:none"
               d="m 3060.9785,685.51892 c 0,-38.18097 0,-76.36194 0,-114.54291 0,-38.18097 0,-76.36197 0,-114.5429 -38.1811,0 -76.362,0 -114.543,0 -38.1809,0 -76.362,0 -114.5429,0 -38.1809,0 -76.3618,0 -114.543,0 -38.1809,0 -76.3621,0 -114.5427,0 0,38.18093 0,76.36193 0,114.5429 0,38.18097 0,76.36194 0,114.54291 38.1806,0 76.3618,0 114.5427,0 0,38.18097 0,76.36194 0,114.54291 0,38.18103 0,76.362 0,114.54297 0,38.18097 0,76.362 0,114.543 0,38.1809 0,76.362 0,114.5428 0,38.181 0,76.3619 0,114.5429 0,38.1811 0,76.362 0,114.543 0,38.1809 0,76.3619 0,114.5428 0,38.1811 0,76.362 0,114.543 0,38.181 0,76.3619 0,114.543 0,38.1809 0,76.3619 0,114.5428 38.1812,0 76.3621,0 114.543,0 38.1809,0 76.362,0 114.5429,0 0,-38.1809 0,-76.3619 0,-114.5428 0,-38.1811 0,-76.362 0,-114.543 0,-38.181 0,-76.3619 0,-114.543 0,-38.1809 0,-76.3619 0,-114.5428 0,-38.181 0,-76.3619 0,-114.543 0,-38.181 0,-76.3619 0,-114.5429 0,-38.1808 0,-76.3619 0,-114.5428 0,-38.181 0,-76.36203 0,-114.543 0,-38.18097 0,-76.36194 0,-114.54297 0,-38.18097 0,-76.36194 0,-114.54291 38.181,0 76.3619,0 114.543,0 z" /></g><g
             id="g108"><path
               id="path110"
               style="fill:#000000;fill-opacity:1;fill-rule:nonzero;stroke:none"
               d="m 3060.9785,685.51892 c 38.1809,0 76.3621,0 114.5427,0 0,-38.18097 0,-76.36194 0,-114.54291 0,-38.18097 0,-76.36197 0,-114.5429 -38.1806,0 -76.3618,0 -114.5427,0 0,38.18093 0,76.36193 0,114.5429 0,38.18097 0,76.36194 0,114.54291 z" /></g><g
             id="g112"><path
               id="path114"
               style="fill:#000000;fill-opacity:1;fill-rule:nonzero;stroke:none"
               d="m 2259.178,685.51892 c 0,-38.18097 0,-76.36194 0,-114.54291 0,-38.18097 0,-76.36197 0,-114.5429 -38.1809,0 -76.3621,0 -114.543,0 -38.1809,0 -76.3618,0 -114.543,0 -38.1809,0 -76.3619,0 -114.5429,0 -38.1809,0 -76.362,0 -114.5428,0 -38.181,0 -76.362,0 -114.5429,0 0,38.18093 0,76.36193 0,114.5429 0,38.18097 0,76.36194 0,114.54291 0,38.18097 0,76.36194 0,114.54291 0,38.18103 0,76.362 0,114.54297 0,38.18097 0,76.362 0,114.543 0,38.1809 0,76.362 0,114.5428 0,38.181 0,76.3619 0,114.5429 0,38.1811 0,76.362 0,114.543 0,38.1809 0,76.3619 0,114.5428 0,38.1811 0,76.362 0,114.543 0,38.181 0,76.3619 0,114.543 0,38.1809 0,76.3619 0,114.5428 38.1809,0 76.3619,0 114.5429,0 38.1808,0 76.3619,0 114.5428,0 0,-38.1809 0,-76.3619 0,-114.5428 0,-38.1811 0,-76.362 0,-114.543 0,-38.181 0,-76.3619 0,-114.543 0,-38.1809 0,-76.3619 0,-114.5428 0,-38.181 0,-76.3619 0,-114.543 38.181,0 76.362,0 114.5429,0 38.1812,0 76.3621,0 114.543,0 0,-38.181 0,-76.3619 0,-114.5429 0,-38.1808 0,-76.3619 0,-114.5428 -38.1809,0 -76.3618,0 -114.543,0 -38.1809,0 -76.3619,0 -114.5429,0 0,-38.181 0,-76.36203 0,-114.543 0,-38.18097 0,-76.36194 0,-114.54297 0,-38.18097 0,-76.36194 0,-114.54291 38.181,0 76.362,0 114.5429,0 38.1812,0 76.3621,0 114.543,0 38.1809,0 76.3621,0 114.543,0 z" /></g></g></g></g></g></svg>