<?xml version="1.0" encoding="UTF-8" standalone="no"?>
<svg
   xmlns:dc="http://purl.org/dc/elements/1.1/"
   xmlns:cc="http://creativecommons.org/ns#"
   xmlns:rdf="http://www.w3.org/1999/02/22-rdf-syntax-ns#"
   xmlns:svg="http://www.w3.org/2000/svg"
   xmlns="http://www.w3.org/2000/svg"
   viewBox="0 0 4493.7603 3178.5598"
   height="3178.5598"
   width="4493.7603"
   xml:space="preserve"
   id="svg2"
   version="1.1"><metadata
     id="metadata8"><rdf:RDF><cc:Work
         rdf:about=""><dc:format>image/svg+xml</dc:format><dc:type
           rdf:resource="http://purl.org/dc/dcmitype/StillImage" /></cc:Work></rdf:RDF></metadata><defs
     id="defs6"><clipPath
       id="clipPath20"
       clipPathUnits="userSpaceOnUse"><path
         id="path18"
         d="M 0,0 V 2383.9199 H 3370.3201 V 0 Z" /></clipPath></defs><g
     transform="matrix(1.3333333,0,0,-1.3333333,0,3178.5599)"
     id="g10"><g
       transform="matrix(1,0,0,-1,0,2383.9199)"
       id="g12"><g
         id="g14"><g
           clip-path="url(#clipPath20)"
           id="g16"><g
             id="g22"><path
               id="path24"
               style="fill:#ffffff;fill-opacity:1;fill-rule:nonzero;stroke:none"
               d="m 1075.4138,1140.6343 c 0,-31.6698 0,-63.3396 0,-95.0095 -31.6698,0 -63.3396,0 -95.00944,0 -31.6698,0 -63.33966,0 -95.00952,0 -31.66986,0 -63.33966,0 -95.00953,0 -31.66979,0 -63.33966,0 -95.00952,0 -31.6698,0 -63.33966,0 -95.00946,0 0,31.6699 0,63.3397 0,95.0095 31.6698,0 63.33966,0 95.00946,0 31.66986,0 63.33973,0 95.00952,0 31.66987,0 63.33967,0 95.00953,0 31.66986,0 63.33972,0 95.00952,0 31.66984,0 63.33964,0 95.00944,0 z" /></g><g
             id="g26"><path
               id="path28"
               style="fill:#ffffff;fill-opacity:1;fill-rule:nonzero;stroke:none"
               d="m 695.37579,569.27625 c 0,-31.66987 0,-63.33967 0,-95.0095 0,-31.66986 0,-63.33969 0,-95.00955 0,-31.66983 0,-63.33966 0,-95.00949 0,-31.66983 0,-63.33966 0,-95.00951 0,-31.66984 0,-63.33967 0,-95.009501 -31.6698,0 -63.33966,0 -95.00946,0 0,31.669831 0,63.339661 0,95.009501 0,31.66985 0,63.33968 0,95.00951 0,31.66983 0,63.33966 0,95.00949 0,31.66986 0,63.33969 0,95.00955 0,31.66983 0,63.33963 0,95.0095 31.6698,0 63.33966,0 95.00946,0 z" /></g><g
             id="g30"><path
               id="path32"
               style="fill:#ffffff;fill-opacity:1;fill-rule:nonzero;stroke:none"
               d="m 2690.5754,1140.6343 c 31.67,0 63.3396,0 95.0096,0 0,-31.6698 0,-63.3396 0,-95.0095 0,-31.6698 0,-63.33964 0,-95.00944 0,-31.66986 0,-63.33973 0,-95.00959 0,-31.6698 0,-63.33966 0,-95.00946 0,-31.66986 0,-63.33966 0,-95.00952 -31.67,0 -63.3396,0 -95.0096,0 0,31.66986 0,63.33966 0,95.00952 0,31.6698 0,63.33966 0,95.00946 0,31.66986 0,63.33973 0,95.00959 0,31.6698 0,63.33964 0,95.00944 0,31.6699 0,63.3397 0,95.0095 z" /></g><g
             id="g34"><path
               id="path36"
               style="fill:#ffffff;fill-opacity:1;fill-rule:nonzero;stroke:none"
               d="m 885.39484,569.27625 c 0,-31.66987 0,-63.33967 0,-95.0095 0,-31.66986 0,-63.33969 0,-95.00955 0,-31.66983 0,-63.33966 0,-95.00949 0,-31.66983 0,-63.33966 0,-95.00951 0,-31.66984 0,-63.33967 0,-95.009501 -31.66986,0 -63.33966,0 -95.00953,0 0,31.669831 0,63.339661 0,95.009501 0,31.66985 0,63.33968 0,95.00951 0,31.66983 0,63.33966 0,95.00949 0,31.66986 0,63.33969 0,95.00955 0,31.66983 0,63.33963 0,95.0095 31.66987,0 63.33967,0 95.00953,0 z" /></g><g
             id="g38"><path
               id="path40"
               style="fill:#ffffff;fill-opacity:1;fill-rule:nonzero;stroke:none"
               d="m 2310.5374,2282.0496 c 31.6699,0 63.3398,0 95.0095,0 0,-31.67 0,-63.3399 0,-95.0096 0,-31.6699 0,-63.3398 0,-95.0095 0,-31.6699 0,-63.3398 0,-95.0095 0,-31.6699 0,-63.3397 0,-95.0095 0,-31.6698 0,-63.3397 0,-95.0095 -31.6697,0 -63.3396,0 -95.0095,0 0,31.6698 0,63.3397 0,95.0095 0,31.6698 0,63.3396 0,95.0095 0,31.6697 0,63.3396 0,95.0095 0,31.6697 0,63.3396 0,95.0095 0,31.6697 0,63.3396 0,95.0096 z" /></g><g
             id="g42"><path
               id="path44"
               style="fill:#ffffff;fill-opacity:1;fill-rule:nonzero;stroke:none"
               d="m 2690.5754,189.2382 c 31.67,0 63.3396,0 95.0096,0 0,-31.66984 0,-63.33967 0,-95.009501 -31.67,0 -63.3396,0 -95.0096,0 -31.6699,0 -63.3396,0 -95.0095,0 -31.6699,0 -63.3396,0 -95.0095,0 -31.6697,0 -63.3396,0 -95.0095,0 -31.6697,0 -63.3396,0 -95.0095,0 0,31.669831 0,63.339661 0,95.009501 31.6699,0 63.3398,0 95.0095,0 31.6699,0 63.3398,0 95.0095,0 31.6699,0 63.3396,0 95.0095,0 31.6699,0 63.3396,0 95.0095,0 z" /></g><g
             id="g46"><path
               id="path48"
               style="fill:#ffffff;fill-opacity:1;fill-rule:nonzero;stroke:none"
               d="m 2500.5564,2282.0496 c 31.6699,0 63.3396,0 95.0095,0 0,-31.67 0,-63.3399 0,-95.0096 0,-31.6699 0,-63.3398 0,-95.0095 0,-31.6699 0,-63.3398 0,-95.0095 0,-31.6699 0,-63.3397 0,-95.0095 0,-31.6698 0,-63.3397 0,-95.0095 -31.6699,0 -63.3396,0 -95.0095,0 0,31.6698 0,63.3397 0,95.0095 0,31.6698 0,63.3396 0,95.0095 0,31.6697 0,63.3396 0,95.0095 0,31.6697 0,63.3396 0,95.0095 0,31.6697 0,63.3396 0,95.0096 z" /></g><g
             id="g50"><path
               id="path52"
               style="fill:#ffffff;fill-opacity:1;fill-rule:nonzero;stroke:none"
               d="m 2215.5278,950.61536 c 0,-31.66986 0,-63.33973 0,-95.00959 -31.6696,0 -63.3396,0 -95.0092,0 -31.67,0 -63.3399,0 -95.0096,0 -31.6699,0 -63.3397,0 -95.0096,0 -31.6698,0 -63.3396,0 -95.0094,0 -31.6699,0 -63.3397,0 -95.0095,0 0,31.66986 0,63.33973 0,95.00959 31.6698,0 63.3396,0 95.0095,0 31.6698,0 63.3396,0 95.0094,0 31.6699,0 63.3397,0 95.0096,0 31.6697,0 63.3396,0 95.0096,0 31.6696,0 63.3396,0 95.0092,0 z" /></g><g
             id="g54"><path
               id="path56"
               style="fill:#ffffff;fill-opacity:1;fill-rule:nonzero;stroke:none"
               d="m 2120.5186,1615.6819 c 0,31.6698 0,63.3397 0,95.0095 31.6696,0 63.3396,0 95.0092,0 0,-31.6698 0,-63.3397 0,-95.0095 0,-31.6698 0,-63.3396 0,-95.0095 0,-31.6698 0,-63.3396 0,-95.0094 0,-31.67 0,-63.3398 0,-95.0096 0,-31.6699 0,-63.3397 0,-95.0095 -31.6696,0 -63.3396,0 -95.0092,0 0,31.6698 0,63.3396 0,95.0095 0,31.6698 0,63.3396 0,95.0096 0,31.6698 0,63.3396 0,95.0094 0,31.6699 0,63.3397 0,95.0095 z" /></g><g
             id="g58"><path
               id="path60"
               style="fill:#ffffff;fill-opacity:1;fill-rule:nonzero;stroke:none"
               d="m 2690.5754,1710.6914 c 31.67,0 63.3396,0 95.0096,0 0,-31.6698 0,-63.3397 0,-95.0095 -31.67,0 -63.3396,0 -95.0096,0 -31.6699,0 -63.3396,0 -95.0095,0 -31.6699,0 -63.3396,0 -95.0095,0 -31.6697,0 -63.3396,0 -95.0095,0 -31.6697,0 -63.3396,0 -95.0095,0 0,31.6698 0,63.3397 0,95.0095 31.6699,0 63.3398,0 95.0095,0 31.6699,0 63.3398,0 95.0095,0 31.6699,0 63.3396,0 95.0095,0 31.6699,0 63.3396,0 95.0095,0 z" /></g><g
             id="g62"><path
               id="path64"
               style="fill:#ffffff;fill-opacity:1;fill-rule:nonzero;stroke:none"
               d="m 1835.49,1710.6914 c 0,-31.6698 0,-63.3397 0,-95.0095 0,-31.6698 0,-63.3396 0,-95.0095 0,-31.6698 0,-63.3396 0,-95.0094 0,-31.67 0,-63.3398 0,-95.0096 0,-31.6699 0,-63.3397 0,-95.0095 -31.6699,0 -63.3397,0 -95.0095,0 0,31.6698 0,63.3396 0,95.0095 0,31.6698 0,63.3396 0,95.0096 0,31.6698 0,63.3396 0,95.0094 0,31.6699 0,63.3397 0,95.0095 0,31.6698 0,63.3397 0,95.0095 31.6698,0 63.3396,0 95.0095,0 z" /></g><g
             id="g66"><path
               id="path68"
               style="fill:#ffffff;fill-opacity:1;fill-rule:nonzero;stroke:none"
               d="m 1075.4138,2092.0305 c 0,-31.6699 0,-63.3398 0,-95.0095 -31.6698,0 -63.3396,0 -95.00944,0 -31.6698,0 -63.33966,0 -95.00952,0 -31.66986,0 -63.33966,0 -95.00953,0 -31.66979,0 -63.33966,0 -95.00952,0 -31.6698,0 -63.33966,0 -95.00946,0 0,31.6697 0,63.3396 0,95.0095 31.6698,0 63.33966,0 95.00946,0 31.66986,0 63.33973,0 95.00952,0 31.66987,0 63.33967,0 95.00953,0 31.66986,0 63.33972,0 95.00952,0 31.66984,0 63.33964,0 95.00944,0 z" /></g><g
             id="g70"><path
               id="path72"
               style="fill:#ffffff;fill-opacity:1;fill-rule:nonzero;stroke:none"
               d="m 2690.5754,569.27625 c 31.67,0 63.3396,0 95.0096,0 0,-31.66987 0,-63.33967 0,-95.0095 -31.67,0 -63.3396,0 -95.0096,0 -31.6699,0 -63.3396,0 -95.0095,0 -31.6699,0 -63.3396,0 -95.0095,0 -31.6697,0 -63.3396,0 -95.0095,0 -31.6697,0 -63.3396,0 -95.0095,0 0,31.66983 0,63.33963 0,95.0095 31.6699,0 63.3398,0 95.0095,0 31.6699,0 63.3398,0 95.0095,0 31.6699,0 63.3396,0 95.0095,0 31.6699,0 63.3396,0 95.0095,0 z" /></g><g
             id="g74"><path
               id="path76"
               style="fill:#ffffff;fill-opacity:1;fill-rule:nonzero;stroke:none"
               d="m 1075.4138,760.59631 c 0,-31.66986 0,-63.33966 0,-95.00952 -31.6698,0 -63.3396,0 -95.00944,0 -31.6698,0 -63.33966,0 -95.00952,0 -31.66986,0 -63.33966,0 -95.00953,0 -31.66979,0 -63.33966,0 -95.00952,0 -31.6698,0 -63.33966,0 -95.00946,0 0,31.66986 0,63.33966 0,95.00952 31.6698,0 63.33966,0 95.00946,0 31.66986,0 63.33973,0 95.00952,0 31.66987,0 63.33967,0 95.00953,0 31.66986,0 63.33972,0 95.00952,0 31.66984,0 63.33964,0 95.00944,0 z" /></g><g
             id="g78"><path
               id="path80"
               style="fill:#ffffff;fill-opacity:1;fill-rule:nonzero;stroke:none"
               d="m 2025.509,569.27625 c 0,-31.66987 0,-63.33967 0,-95.0095 0,-31.66986 0,-63.33969 0,-95.00955 0,-31.66983 0,-63.33966 0,-95.00949 0,-31.66983 0,-63.33966 0,-95.00951 0,-31.66984 0,-63.33967 0,-95.009501 -31.6699,0 -63.3397,0 -95.0096,0 0,31.669831 0,63.339661 0,95.009501 0,31.66985 0,63.33968 0,95.00951 0,31.66983 0,63.33966 0,95.00949 0,31.66986 0,63.33969 0,95.00955 0,31.66983 0,63.33963 0,95.0095 31.6699,0 63.3397,0 95.0096,0 z" /></g><g
             id="g82"><path
               id="path84"
               style="fill:#ffffff;fill-opacity:1;fill-rule:nonzero;stroke:none"
               d="m 2690.5754,1520.6724 c 31.67,0 63.3396,0 95.0096,0 0,-31.6698 0,-63.3396 0,-95.0094 -31.67,0 -63.3396,0 -95.0096,0 -31.6699,0 -63.3396,0 -95.0095,0 -31.6699,0 -63.3396,0 -95.0095,0 -31.6697,0 -63.3396,0 -95.0095,0 -31.6697,0 -63.3396,0 -95.0095,0 0,31.6698 0,63.3396 0,95.0094 31.6699,0 63.3398,0 95.0095,0 31.6699,0 63.3398,0 95.0095,0 31.6699,0 63.3396,0 95.0095,0 31.6699,0 63.3396,0 95.0095,0 z" /></g><g
             id="g86"><path
               id="path88"
               style="fill:#ffffff;fill-opacity:1;fill-rule:nonzero;stroke:none"
               d="m 1550.4614,379.2572 c 31.6698,0 63.3397,0 95.0095,0 0,-31.66983 0,-63.33966 0,-95.00949 -31.6698,0 -63.3397,0 -95.0095,0 -31.6698,0 -63.3396,0 -95.0095,0 -31.6698,0 -63.3396,0 -95.0095,0 -31.6698,0 -63.3396,0 -95.0094,0 -31.6699,0 -63.3397,0 -95.0097,0 0,31.66983 0,63.33966 0,95.00949 31.67,0 63.3398,0 95.0097,0 31.6698,0 63.3396,0 95.0094,0 31.6699,0 63.3397,0 95.0095,0 31.6699,0 63.3397,0 95.0095,0 z" /></g><g
             id="g90"><path
               id="path92"
               style="fill:#ffffff;fill-opacity:1;fill-rule:nonzero;stroke:none"
               d="m 1075.4138,1902.0115 c 0,-31.6698 0,-63.3397 0,-95.0095 -31.6698,0 -63.3396,0 -95.00944,0 -31.6698,0 -63.33966,0 -95.00952,0 -31.66986,0 -63.33966,0 -95.00953,0 -31.66979,0 -63.33966,0 -95.00952,0 -31.6698,0 -63.33966,0 -95.00946,0 0,31.6698 0,63.3397 0,95.0095 31.6698,0 63.33966,0 95.00946,0 31.66986,0 63.33973,0 95.00952,0 31.66987,0 63.33967,0 95.00953,0 31.66986,0 63.33972,0 95.00952,0 31.66984,0 63.33964,0 95.00944,0 z" /></g><g
             id="g94"><path
               id="path96"
               style="fill:#ffffff;fill-opacity:1;fill-rule:nonzero;stroke:none"
               d="m 2215.5278,1140.6343 c 0,-31.6698 0,-63.3396 0,-95.0095 -31.6696,0 -63.3396,0 -95.0092,0 -31.67,0 -63.3399,0 -95.0096,0 -31.6699,0 -63.3397,0 -95.0096,0 -31.6698,0 -63.3396,0 -95.0094,0 -31.6699,0 -63.3397,0 -95.0095,0 0,31.6699 0,63.3397 0,95.0095 31.6698,0 63.3396,0 95.0095,0 31.6698,0 63.3396,0 95.0094,0 31.6699,0 63.3397,0 95.0096,0 31.6697,0 63.3396,0 95.0096,0 31.6696,0 63.3396,0 95.0092,0 z" /></g><g
             id="g98"><path
               id="path100"
               style="fill:#ffffff;fill-opacity:1;fill-rule:nonzero;stroke:none"
               d="m 2215.5278,2282.0496 c 0,-31.67 0,-63.3399 0,-95.0096 -31.6696,0 -63.3396,0 -95.0092,0 -31.67,0 -63.3399,0 -95.0096,0 -31.6699,0 -63.3397,0 -95.0096,0 -31.6698,0 -63.3396,0 -95.0094,0 -31.6699,0 -63.3397,0 -95.0095,0 0,31.6697 0,63.3396 0,95.0096 31.6698,0 63.3396,0 95.0095,0 31.6698,0 63.3396,0 95.0094,0 31.6699,0 63.3397,0 95.0096,0 31.6697,0 63.3396,0 95.0096,0 31.6696,0 63.3396,0 95.0092,0 z" /></g><g
             id="g102"><path
               id="path104"
               style="fill:#ffffff;fill-opacity:1;fill-rule:nonzero;stroke:none"
               d="m 1550.4614,1330.6534 c 31.6698,0 63.3397,0 95.0095,0 0,-31.6699 0,-63.3397 0,-95.0095 -31.6698,0 -63.3397,0 -95.0095,0 -31.6698,0 -63.3396,0 -95.0095,0 -31.6698,0 -63.3396,0 -95.0095,0 -31.6698,0 -63.3396,0 -95.0094,0 -31.6699,0 -63.3397,0 -95.0097,0 0,31.6698 0,63.3396 0,95.0095 31.67,0 63.3398,0 95.0097,0 31.6698,0 63.3396,0 95.0094,0 31.6699,0 63.3397,0 95.0095,0 31.6699,0 63.3397,0 95.0095,0 z" /></g><g
             id="g106"><path
               id="path108"
               style="fill:#ffffff;fill-opacity:1;fill-rule:nonzero;stroke:none"
               d="m 2690.5754,1330.6534 c 31.67,0 63.3396,0 95.0096,0 0,-31.6699 0,-63.3397 0,-95.0095 -31.67,0 -63.3396,0 -95.0096,0 -31.6699,0 -63.3396,0 -95.0095,0 -31.6699,0 -63.3396,0 -95.0095,0 -31.6697,0 -63.3396,0 -95.0095,0 -31.6697,0 -63.3396,0 -95.0095,0 0,31.6698 0,63.3396 0,95.0095 31.6699,0 63.3398,0 95.0095,0 31.6699,0 63.3398,0 95.0095,0 31.6699,0 63.3396,0 95.0095,0 31.6699,0 63.3396,0 95.0095,0 z" /></g><g
             id="g110"><path
               id="path112"
               style="fill:#ffffff;fill-opacity:1;fill-rule:nonzero;stroke:none"
               d="m 2310.5374,1140.6343 c 31.6699,0 63.3398,0 95.0095,0 0,-31.6698 0,-63.3396 0,-95.0095 0,-31.6698 0,-63.33964 0,-95.00944 0,-31.66986 0,-63.33973 0,-95.00959 0,-31.6698 0,-63.33966 0,-95.00946 0,-31.66986 0,-63.33966 0,-95.00952 -31.6697,0 -63.3396,0 -95.0095,0 0,31.66986 0,63.33966 0,95.00952 0,31.6698 0,63.33966 0,95.00946 0,31.66986 0,63.33973 0,95.00959 0,31.6698 0,63.33964 0,95.00944 0,31.6699 0,63.3397 0,95.0095 z" /></g><g
             id="g114"><path
               id="path116"
               style="fill:#ffffff;fill-opacity:1;fill-rule:nonzero;stroke:none"
               d="m 2215.5278,1902.0115 c 0,-31.6698 0,-63.3397 0,-95.0095 -31.6696,0 -63.3396,0 -95.0092,0 -31.67,0 -63.3399,0 -95.0096,0 -31.6699,0 -63.3397,0 -95.0096,0 -31.6698,0 -63.3396,0 -95.0094,0 -31.6699,0 -63.3397,0 -95.0095,0 0,31.6698 0,63.3397 0,95.0095 31.6698,0 63.3396,0 95.0095,0 31.6698,0 63.3396,0 95.0094,0 31.6699,0 63.3397,0 95.0096,0 31.6697,0 63.3396,0 95.0096,0 31.6696,0 63.3396,0 95.0092,0 z" /></g><g
             id="g118"><path
               id="path120"
               style="fill:#ffffff;fill-opacity:1;fill-rule:nonzero;stroke:none"
               d="m 1170.4233,2282.0496 c 31.67,0 63.3398,0 95.0097,0 0,-31.67 0,-63.3399 0,-95.0096 0,-31.6699 0,-63.3398 0,-95.0095 0,-31.6699 0,-63.3398 0,-95.0095 0,-31.6699 0,-63.3397 0,-95.0095 0,-31.6698 0,-63.3397 0,-95.0095 -31.6699,0 -63.3397,0 -95.0097,0 0,31.6698 0,63.3397 0,95.0095 0,31.6698 0,63.3396 0,95.0095 0,31.6697 0,63.3396 0,95.0095 0,31.6697 0,63.3396 0,95.0095 0,31.6697 0,63.3396 0,95.0096 z" /></g><g
             id="g122"><path
               id="path124"
               style="fill:#ffffff;fill-opacity:1;fill-rule:nonzero;stroke:none"
               d="m 1360.4424,2282.0496 c 31.6699,0 63.3397,0 95.0095,0 0,-31.67 0,-63.3399 0,-95.0096 0,-31.6699 0,-63.3398 0,-95.0095 0,-31.6699 0,-63.3398 0,-95.0095 0,-31.6699 0,-63.3397 0,-95.0095 0,-31.6698 0,-63.3397 0,-95.0095 -31.6698,0 -63.3396,0 -95.0095,0 0,31.6698 0,63.3397 0,95.0095 0,31.6698 0,63.3396 0,95.0095 0,31.6697 0,63.3396 0,95.0095 0,31.6697 0,63.3396 0,95.0095 0,31.6697 0,63.3396 0,95.0096 z" /></g><g
             id="g126"><path
               id="path128"
               style="fill:#ffffff;fill-opacity:1;fill-rule:nonzero;stroke:none"
               d="m 1550.4614,569.27625 c 31.6698,0 63.3397,0 95.0095,0 0,-31.66987 0,-63.33967 0,-95.0095 -31.6698,0 -63.3397,0 -95.0095,0 -31.6698,0 -63.3396,0 -95.0095,0 -31.6698,0 -63.3396,0 -95.0095,0 -31.6698,0 -63.3396,0 -95.0094,0 -31.6699,0 -63.3397,0 -95.0097,0 0,31.66983 0,63.33963 0,95.0095 31.67,0 63.3398,0 95.0097,0 31.6698,0 63.3396,0 95.0094,0 31.6699,0 63.3397,0 95.0095,0 31.6699,0 63.3397,0 95.0095,0 z" /></g><g
             id="g130"><path
               id="path132"
               style="fill:#ffffff;fill-opacity:1;fill-rule:nonzero;stroke:none"
               d="m 695.37579,1710.6914 c 0,-31.6698 0,-63.3397 0,-95.0095 0,-31.6698 0,-63.3396 0,-95.0095 0,-31.6698 0,-63.3396 0,-95.0094 0,-31.67 0,-63.3398 0,-95.0096 0,-31.6699 0,-63.3397 0,-95.0095 -31.6698,0 -63.33966,0 -95.00946,0 0,31.6698 0,63.3396 0,95.0095 0,31.6698 0,63.3396 0,95.0096 0,31.6698 0,63.3396 0,95.0094 0,31.6699 0,63.3397 0,95.0095 0,31.6698 0,63.3397 0,95.0095 31.6698,0 63.33966,0 95.00946,0 z" /></g><g
             id="g134"><path
               id="path136"
               style="fill:#ffffff;fill-opacity:1;fill-rule:nonzero;stroke:none"
               d="m 1550.4614,2282.0496 c 31.6698,0 63.3397,0 95.0095,0 0,-31.67 0,-63.3399 0,-95.0096 0,-31.6699 0,-63.3398 0,-95.0095 0,-31.6699 0,-63.3398 0,-95.0095 0,-31.6699 0,-63.3397 0,-95.0095 0,-31.6698 0,-63.3397 0,-95.0095 -31.6698,0 -63.3397,0 -95.0095,0 0,31.6698 0,63.3397 0,95.0095 0,31.6698 0,63.3396 0,95.0095 0,31.6697 0,63.3396 0,95.0095 0,31.6697 0,63.3396 0,95.0095 0,31.6697 0,63.3396 0,95.0096 z" /></g><g
             id="g138"><path
               id="path140"
               style="fill:#ffffff;fill-opacity:1;fill-rule:nonzero;stroke:none"
               d="m 2500.5564,1140.6343 c 31.6699,0 63.3396,0 95.0095,0 0,-31.6698 0,-63.3396 0,-95.0095 0,-31.6698 0,-63.33964 0,-95.00944 0,-31.66986 0,-63.33973 0,-95.00959 0,-31.6698 0,-63.33966 0,-95.00946 0,-31.66986 0,-63.33966 0,-95.00952 -31.6699,0 -63.3396,0 -95.0095,0 0,31.66986 0,63.33966 0,95.00952 0,31.6698 0,63.33966 0,95.00946 0,31.66986 0,63.33973 0,95.00959 0,31.6698 0,63.33964 0,95.00944 0,31.6699 0,63.3397 0,95.0095 z" /></g><g
             id="g142"><path
               id="path144"
               style="fill:#ffffff;fill-opacity:1;fill-rule:nonzero;stroke:none"
               d="m 1835.49,569.27625 c 0,-31.66987 0,-63.33967 0,-95.0095 0,-31.66986 0,-63.33969 0,-95.00955 0,-31.66983 0,-63.33966 0,-95.00949 0,-31.66983 0,-63.33966 0,-95.00951 0,-31.66984 0,-63.33967 0,-95.009501 -31.6699,0 -63.3397,0 -95.0095,0 0,31.669831 0,63.339661 0,95.009501 0,31.66985 0,63.33968 0,95.00951 0,31.66983 0,63.33966 0,95.00949 0,31.66986 0,63.33969 0,95.00955 0,31.66983 0,63.33963 0,95.0095 31.6698,0 63.3396,0 95.0095,0 z" /></g><g
             id="g146"><path
               id="path148"
               style="fill:#ffffff;fill-opacity:1;fill-rule:nonzero;stroke:none"
               d="m 1550.4614,1520.6724 c 31.6698,0 63.3397,0 95.0095,0 0,-31.6698 0,-63.3396 0,-95.0094 -31.6698,0 -63.3397,0 -95.0095,0 -31.6698,0 -63.3396,0 -95.0095,0 -31.6698,0 -63.3396,0 -95.0095,0 -31.6698,0 -63.3396,0 -95.0094,0 -31.6699,0 -63.3397,0 -95.0097,0 0,31.6698 0,63.3396 0,95.0094 31.67,0 63.3398,0 95.0097,0 31.6698,0 63.3396,0 95.0094,0 31.6699,0 63.3397,0 95.0095,0 31.6699,0 63.3397,0 95.0095,0 z" /></g><g
             id="g150"><path
               id="path152"
               style="fill:#ffffff;fill-opacity:1;fill-rule:nonzero;stroke:none"
               d="m 980.40436,1615.6819 c 0,31.6698 0,63.3397 0,95.0095 31.66984,0 63.33964,0 95.00944,0 0,-31.6698 0,-63.3397 0,-95.0095 0,-31.6698 0,-63.3396 0,-95.0095 0,-31.6698 0,-63.3396 0,-95.0094 0,-31.67 0,-63.3398 0,-95.0096 0,-31.6699 0,-63.3397 0,-95.0095 -31.6698,0 -63.3396,0 -95.00944,0 0,31.6698 0,63.3396 0,95.0095 0,31.6698 0,63.3396 0,95.0096 0,31.6698 0,63.3396 0,95.0094 0,31.6699 0,63.3397 0,95.0095 z" /></g><g
             id="g154"><path
               id="path156"
               style="fill:#ffffff;fill-opacity:1;fill-rule:nonzero;stroke:none"
               d="m 1170.4233,1140.6343 c 31.67,0 63.3398,0 95.0097,0 0,-31.6698 0,-63.3396 0,-95.0095 0,-31.6698 0,-63.33964 0,-95.00944 0,-31.66986 0,-63.33973 0,-95.00959 0,-31.6698 0,-63.33966 0,-95.00946 0,-31.66986 0,-63.33966 0,-95.00952 -31.6699,0 -63.3397,0 -95.0097,0 0,31.66986 0,63.33966 0,95.00952 0,31.6698 0,63.33966 0,95.00946 0,31.66986 0,63.33973 0,95.00959 0,31.6698 0,63.33964 0,95.00944 0,31.6699 0,63.3397 0,95.0095 z" /></g><g
             id="g158"><path
               id="path160"
               style="fill:#ffffff;fill-opacity:1;fill-rule:nonzero;stroke:none"
               d="m 2215.5278,760.59631 c 0,-31.66986 0,-63.33966 0,-95.00952 -31.6696,0 -63.3396,0 -95.0092,0 -31.67,0 -63.3399,0 -95.0096,0 -31.6699,0 -63.3397,0 -95.0096,0 -31.6698,0 -63.3396,0 -95.0094,0 -31.6699,0 -63.3397,0 -95.0095,0 0,31.66986 0,63.33966 0,95.00952 31.6698,0 63.3396,0 95.0095,0 31.6698,0 63.3396,0 95.0094,0 31.6699,0 63.3397,0 95.0096,0 31.6697,0 63.3396,0 95.0096,0 31.6696,0 63.3396,0 95.0092,0 z" /></g><g
             id="g162"><path
               id="path164"
               style="fill:#ffffff;fill-opacity:1;fill-rule:nonzero;stroke:none"
               d="m 2215.5278,2092.0305 c 0,-31.6699 0,-63.3398 0,-95.0095 -31.6696,0 -63.3396,0 -95.0092,0 -31.67,0 -63.3399,0 -95.0096,0 -31.6699,0 -63.3397,0 -95.0096,0 -31.6698,0 -63.3396,0 -95.0094,0 -31.6699,0 -63.3397,0 -95.0095,0 0,31.6697 0,63.3396 0,95.0095 31.6698,0 63.3396,0 95.0095,0 31.6698,0 63.3396,0 95.0094,0 31.6699,0 63.3397,0 95.0096,0 31.6697,0 63.3396,0 95.0096,0 31.6696,0 63.3396,0 95.0092,0 z" /></g><g
             id="g166"><path
               id="path168"
               style="fill:#ffffff;fill-opacity:1;fill-rule:nonzero;stroke:none"
               d="m 1075.4138,950.61536 c 0,-31.66986 0,-63.33973 0,-95.00959 -31.6698,0 -63.3396,0 -95.00944,0 -31.6698,0 -63.33966,0 -95.00952,0 -31.66986,0 -63.33966,0 -95.00953,0 -31.66979,0 -63.33966,0 -95.00952,0 -31.6698,0 -63.33966,0 -95.00946,0 0,31.66986 0,63.33973 0,95.00959 31.6698,0 63.33966,0 95.00946,0 31.66986,0 63.33973,0 95.00952,0 31.66987,0 63.33967,0 95.00953,0 31.66986,0 63.33972,0 95.00952,0 31.66984,0 63.33964,0 95.00944,0 z" /></g><g
             id="g170"><path
               id="path172"
               style="fill:#ffffff;fill-opacity:1;fill-rule:nonzero;stroke:none"
               d="m 1075.4138,2282.0496 c 0,-31.67 0,-63.3399 0,-95.0096 -31.6698,0 -63.3396,0 -95.00944,0 -31.6698,0 -63.33966,0 -95.00952,0 -31.66986,0 -63.33966,0 -95.00953,0 -31.66979,0 -63.33966,0 -95.00952,0 -31.6698,0 -63.33966,0 -95.00946,0 0,31.6697 0,63.3396 0,95.0096 31.6698,0 63.33966,0 95.00946,0 31.66986,0 63.33973,0 95.00952,0 31.66987,0 63.33967,0 95.00953,0 31.66986,0 63.33972,0 95.00952,0 31.66984,0 63.33964,0 95.00944,0 z" /></g><g
             id="g174"><path
               id="path176"
               style="fill:#ffffff;fill-opacity:1;fill-rule:nonzero;stroke:none"
               d="m 885.39484,1710.6914 c 0,-31.6698 0,-63.3397 0,-95.0095 0,-31.6698 0,-63.3396 0,-95.0095 0,-31.6698 0,-63.3396 0,-95.0094 0,-31.67 0,-63.3398 0,-95.0096 0,-31.6699 0,-63.3397 0,-95.0095 -31.66986,0 -63.33966,0 -95.00953,0 0,31.6698 0,63.3396 0,95.0095 0,31.6698 0,63.3396 0,95.0096 0,31.6698 0,63.3396 0,95.0094 0,31.6699 0,63.3397 0,95.0095 0,31.6698 0,63.3397 0,95.0095 31.66987,0 63.33967,0 95.00953,0 z" /></g><g
             id="g178"><path
               id="path180"
               style="fill:#ffffff;fill-opacity:1;fill-rule:nonzero;stroke:none"
               d="m 1550.4614,1140.6343 c 31.6698,0 63.3397,0 95.0095,0 0,-31.6698 0,-63.3396 0,-95.0095 0,-31.6698 0,-63.33964 0,-95.00944 0,-31.66986 0,-63.33973 0,-95.00959 0,-31.6698 0,-63.33966 0,-95.00946 0,-31.66986 0,-63.33966 0,-95.00952 -31.6698,0 -63.3397,0 -95.0095,0 0,31.66986 0,63.33966 0,95.00952 0,31.6698 0,63.33966 0,95.00946 0,31.66986 0,63.33973 0,95.00959 0,31.6698 0,63.33964 0,95.00944 0,31.6699 0,63.3397 0,95.0095 z" /></g><g
             id="g182"><path
               id="path184"
               style="fill:#ffffff;fill-opacity:1;fill-rule:nonzero;stroke:none"
               d="m 980.40436,474.26675 c 0,31.66983 0,63.33963 0,95.0095 31.66984,0 63.33964,0 95.00944,0 0,-31.66987 0,-63.33967 0,-95.0095 0,-31.66986 0,-63.33969 0,-95.00955 0,-31.66983 0,-63.33966 0,-95.00949 0,-31.66983 0,-63.33966 0,-95.00951 0,-31.66984 0,-63.33967 0,-95.009501 -31.6698,0 -63.3396,0 -95.00944,0 0,31.669831 0,63.339661 0,95.009501 0,31.66985 0,63.33968 0,95.00951 0,31.66983 0,63.33966 0,95.00949 0,31.66986 0,63.33969 0,95.00955 z" /></g><g
             id="g186"><path
               id="path188"
               style="fill:#ffffff;fill-opacity:1;fill-rule:nonzero;stroke:none"
               d="m 1360.4424,1140.6343 c 31.6699,0 63.3397,0 95.0095,0 0,-31.6698 0,-63.3396 0,-95.0095 0,-31.6698 0,-63.33964 0,-95.00944 0,-31.66986 0,-63.33973 0,-95.00959 0,-31.6698 0,-63.33966 0,-95.00946 0,-31.66986 0,-63.33966 0,-95.00952 -31.6698,0 -63.3396,0 -95.0095,0 0,31.66986 0,63.33966 0,95.00952 0,31.6698 0,63.33966 0,95.00946 0,31.66986 0,63.33973 0,95.00959 0,31.6698 0,63.33964 0,95.00944 0,31.6699 0,63.3397 0,95.0095 z" /></g><g
             id="g190"><path
               id="path192"
               style="fill:#ffffff;fill-opacity:1;fill-rule:nonzero;stroke:none"
               d="m 2120.5186,474.26675 c 0,31.66983 0,63.33963 0,95.0095 31.6696,0 63.3396,0 95.0092,0 0,-31.66987 0,-63.33967 0,-95.0095 0,-31.66986 0,-63.33969 0,-95.00955 0,-31.66983 0,-63.33966 0,-95.00949 0,-31.66983 0,-63.33966 0,-95.00951 0,-31.66984 0,-63.33967 0,-95.009501 -31.6696,0 -63.3396,0 -95.0092,0 0,31.669831 0,63.339661 0,95.009501 0,31.66985 0,63.33968 0,95.00951 0,31.66983 0,63.33966 0,95.00949 0,31.66986 0,63.33969 0,95.00955 z" /></g><g
             id="g194"><path
               id="path196"
               style="fill:#ffffff;fill-opacity:1;fill-rule:nonzero;stroke:none"
               d="m 2690.5754,379.2572 c 31.67,0 63.3396,0 95.0096,0 0,-31.66983 0,-63.33966 0,-95.00949 -31.67,0 -63.3396,0 -95.0096,0 -31.6699,0 -63.3396,0 -95.0095,0 -31.6699,0 -63.3396,0 -95.0095,0 -31.6697,0 -63.3396,0 -95.0095,0 -31.6697,0 -63.3396,0 -95.0095,0 0,31.66983 0,63.33966 0,95.00949 31.6699,0 63.3398,0 95.0095,0 31.6699,0 63.3398,0 95.0095,0 31.6699,0 63.3396,0 95.0095,0 31.6699,0 63.3396,0 95.0095,0 z" /></g><g
             id="g198"><path
               id="path200"
               style="fill:#ffffff;fill-opacity:1;fill-rule:nonzero;stroke:none"
               d="m 1550.4614,189.2382 c 31.6698,0 63.3397,0 95.0095,0 0,-31.66984 0,-63.33967 0,-95.009501 -31.6698,0 -63.3397,0 -95.0095,0 -31.6698,0 -63.3396,0 -95.0095,0 -31.6698,0 -63.3396,0 -95.0095,0 -31.6698,0 -63.3396,0 -95.0094,0 -31.6699,0 -63.3397,0 -95.0097,0 0,31.669831 0,63.339661 0,95.009501 31.67,0 63.3398,0 95.0097,0 31.6698,0 63.3396,0 95.0094,0 31.6699,0 63.3397,0 95.0095,0 31.6699,0 63.3397,0 95.0095,0 z" /></g><g
             id="g202"><path
               id="path204"
               style="fill:#ffffff;fill-opacity:1;fill-rule:nonzero;stroke:none"
               d="m 2025.509,1710.6914 c 0,-31.6698 0,-63.3397 0,-95.0095 0,-31.6698 0,-63.3396 0,-95.0095 0,-31.6698 0,-63.3396 0,-95.0094 0,-31.67 0,-63.3398 0,-95.0096 0,-31.6699 0,-63.3397 0,-95.0095 -31.6699,0 -63.3397,0 -95.0096,0 0,31.6698 0,63.3396 0,95.0095 0,31.6698 0,63.3396 0,95.0096 0,31.6698 0,63.3396 0,95.0094 0,31.6699 0,63.3397 0,95.0095 0,31.6698 0,63.3397 0,95.0095 31.6699,0 63.3397,0 95.0096,0 z" /></g><g
             id="g206"><path
               id="path208"
               style="fill:#ffffff;fill-opacity:1;fill-rule:nonzero;stroke:none"
               d="m 1550.4614,1710.6914 c 31.6698,0 63.3397,0 95.0095,0 0,-31.6698 0,-63.3397 0,-95.0095 -31.6698,0 -63.3397,0 -95.0095,0 -31.6698,0 -63.3396,0 -95.0095,0 -31.6698,0 -63.3396,0 -95.0095,0 -31.6698,0 -63.3396,0 -95.0094,0 -31.6699,0 -63.3397,0 -95.0097,0 0,31.6698 0,63.3397 0,95.0095 31.67,0 63.3398,0 95.0097,0 31.6698,0 63.3396,0 95.0094,0 31.6699,0 63.3397,0 95.0095,0 31.6699,0 63.3397,0 95.0095,0 z" /></g><g
             id="g210"><path
               id="path212"
               style="fill:#ffffff;fill-opacity:1;fill-rule:nonzero;stroke:none"
               d="m 2690.5754,2282.0496 c 31.67,0 63.3396,0 95.0096,0 0,-31.67 0,-63.3399 0,-95.0096 0,-31.6699 0,-63.3398 0,-95.0095 0,-31.6699 0,-63.3398 0,-95.0095 0,-31.6699 0,-63.3397 0,-95.0095 0,-31.6698 0,-63.3397 0,-95.0095 -31.67,0 -63.3396,0 -95.0096,0 0,31.6698 0,63.3397 0,95.0095 0,31.6698 0,63.3396 0,95.0095 0,31.6697 0,63.3396 0,95.0095 0,31.6697 0,63.3396 0,95.0095 0,31.6697 0,63.3396 0,95.0096 z" /></g><path
             id="path214"
             style="fill:none;stroke:#000000;stroke-width:2.83464575;stroke-linecap:round;stroke-linejoin:round;stroke-miterlimit:10;stroke-dasharray:none;stroke-opacity:1"
             d="m 2690.5754,1710.6914 h 95.0096 v -95.0095 h -95.0096 -95.0095 -95.0095 -95.0095 -95.0095 v 95.0095 h 95.0095 95.0095 95.0095 z" /><path
             id="path216"
             style="fill:none;stroke:#000000;stroke-width:2.83464575;stroke-linecap:round;stroke-linejoin:round;stroke-miterlimit:10;stroke-dasharray:none;stroke-opacity:1"
             d="m 980.40436,474.26675 v 95.0095 h 95.00944 V 474.26675 379.2572 284.24771 189.2382 94.228699 h -95.00944 v 95.009501 95.00951 95.00949 z" /><path
             id="path218"
             style="fill:none;stroke:#000000;stroke-width:2.83464575;stroke-linecap:round;stroke-linejoin:round;stroke-miterlimit:10;stroke-dasharray:none;stroke-opacity:1"
             d="m 2120.5186,1615.6819 v 95.0095 h 95.0092 v -95.0095 -95.0095 -95.0094 -95.0096 -95.0095 h -95.0092 v 95.0095 95.0096 95.0094 z" /><path
             id="path220"
             style="fill:none;stroke:#000000;stroke-width:2.83464575;stroke-linecap:round;stroke-linejoin:round;stroke-miterlimit:10;stroke-dasharray:none;stroke-opacity:1"
             d="m 1075.4138,1140.6343 v -95.0095 h -95.00944 -95.00952 -95.00953 -95.00952 -95.00946 v 95.0095 h 95.00946 95.00952 95.00953 95.00952 z" /><path
             id="path222"
             style="fill:none;stroke:#000000;stroke-width:2.83464575;stroke-linecap:round;stroke-linejoin:round;stroke-miterlimit:10;stroke-dasharray:none;stroke-opacity:1"
             d="m 1835.49,1710.6914 v -95.0095 -95.0095 -95.0094 -95.0096 -95.0095 h -95.0095 v 95.0095 95.0096 95.0094 95.0095 95.0095 z" /><path
             id="path224"
             style="fill:none;stroke:#000000;stroke-width:2.83464575;stroke-linecap:round;stroke-linejoin:round;stroke-miterlimit:10;stroke-dasharray:none;stroke-opacity:1"
             d="m 1075.4138,2092.0305 v -95.0095 h -95.00944 -95.00952 -95.00953 -95.00952 -95.00946 v 95.0095 h 95.00946 95.00952 95.00953 95.00952 z" /><path
             id="path226"
             style="fill:none;stroke:#000000;stroke-width:2.83464575;stroke-linecap:round;stroke-linejoin:round;stroke-miterlimit:10;stroke-dasharray:none;stroke-opacity:1"
             d="m 1550.4614,1520.6724 h 95.0095 v -95.0094 h -95.0095 -95.0095 -95.0095 -95.0094 -95.0097 v 95.0094 h 95.0097 95.0094 95.0095 z" /><path
             id="path228"
             style="fill:none;stroke:#000000;stroke-width:2.83464575;stroke-linecap:round;stroke-linejoin:round;stroke-miterlimit:10;stroke-dasharray:none;stroke-opacity:1"
             d="m 1360.4424,2282.0496 h 95.0095 v -95.0096 -95.0095 -95.0095 -95.0095 -95.0095 h -95.0095 v 95.0095 95.0095 95.0095 95.0095 z" /><path
             id="path230"
             style="fill:none;stroke:#000000;stroke-width:2.83464575;stroke-linecap:round;stroke-linejoin:round;stroke-miterlimit:10;stroke-dasharray:none;stroke-opacity:1"
             d="m 1550.4614,379.2572 h 95.0095 v -95.00949 h -95.0095 -95.0095 -95.0095 -95.0094 -95.0097 v 95.00949 h 95.0097 95.0094 95.0095 z" /><path
             id="path232"
             style="fill:none;stroke:#000000;stroke-width:2.83464575;stroke-linecap:round;stroke-linejoin:round;stroke-miterlimit:10;stroke-dasharray:none;stroke-opacity:1"
             d="m 885.39484,1710.6914 v -95.0095 -95.0095 -95.0094 -95.0096 -95.0095 h -95.00953 v 95.0095 95.0096 95.0094 95.0095 95.0095 z" /><path
             id="path234"
             style="fill:none;stroke:#000000;stroke-width:2.83464575;stroke-linecap:round;stroke-linejoin:round;stroke-miterlimit:10;stroke-dasharray:none;stroke-opacity:1"
             d="m 1550.4614,2282.0496 h 95.0095 v -95.0096 -95.0095 -95.0095 -95.0095 -95.0095 h -95.0095 v 95.0095 95.0095 95.0095 95.0095 z" /><path
             id="path236"
             style="fill:none;stroke:#000000;stroke-width:2.83464575;stroke-linecap:round;stroke-linejoin:round;stroke-miterlimit:10;stroke-dasharray:none;stroke-opacity:1"
             d="m 2690.5754,189.2382 h 95.0096 V 94.228699 h -95.0096 -95.0095 -95.0095 -95.0095 -95.0095 V 189.2382 h 95.0095 95.0095 95.0095 z" /><path
             id="path238"
             style="fill:none;stroke:#000000;stroke-width:2.83464575;stroke-linecap:round;stroke-linejoin:round;stroke-miterlimit:10;stroke-dasharray:none;stroke-opacity:1"
             d="m 1170.4233,2282.0496 h 95.0097 v -95.0096 -95.0095 -95.0095 -95.0095 -95.0095 h -95.0097 v 95.0095 95.0095 95.0095 95.0095 z" /><path
             id="path240"
             style="fill:none;stroke:#000000;stroke-width:2.83464575;stroke-linecap:round;stroke-linejoin:round;stroke-miterlimit:10;stroke-dasharray:none;stroke-opacity:1"
             d="M 1075.4138,2282.0496 V 2187.04 h -95.00944 -95.00952 -95.00953 -95.00952 -95.00946 v 95.0096 h 95.00946 95.00952 95.00953 95.00952 z" /><path
             id="path242"
             style="fill:none;stroke:#000000;stroke-width:2.83464575;stroke-linecap:round;stroke-linejoin:round;stroke-miterlimit:10;stroke-dasharray:none;stroke-opacity:1"
             d="m 2310.5374,1140.6343 h 95.0095 v -95.0095 -95.00944 -95.00959 -95.00946 -95.00952 h -95.0095 v 95.00952 95.00946 95.00959 95.00944 z" /><path
             id="path244"
             style="fill:none;stroke:#000000;stroke-width:2.83464575;stroke-linecap:round;stroke-linejoin:round;stroke-miterlimit:10;stroke-dasharray:none;stroke-opacity:1"
             d="m 1550.4614,1710.6914 h 95.0095 v -95.0095 h -95.0095 -95.0095 -95.0095 -95.0094 -95.0097 v 95.0095 h 95.0097 95.0094 95.0095 z" /><path
             id="path246"
             style="fill:none;stroke:#000000;stroke-width:2.83464575;stroke-linecap:round;stroke-linejoin:round;stroke-miterlimit:10;stroke-dasharray:none;stroke-opacity:1"
             d="m 1550.4614,1330.6534 h 95.0095 v -95.0095 h -95.0095 -95.0095 -95.0095 -95.0094 -95.0097 v 95.0095 h 95.0097 95.0094 95.0095 z" /><path
             id="path248"
             style="fill:none;stroke:#000000;stroke-width:2.83464575;stroke-linecap:round;stroke-linejoin:round;stroke-miterlimit:10;stroke-dasharray:none;stroke-opacity:1"
             d="m 980.40436,1615.6819 v 95.0095 h 95.00944 v -95.0095 -95.0095 -95.0094 -95.0096 -95.0095 h -95.00944 v 95.0095 95.0096 95.0094 z" /><path
             id="path250"
             style="fill:none;stroke:#000000;stroke-width:2.83464575;stroke-linecap:round;stroke-linejoin:round;stroke-miterlimit:10;stroke-dasharray:none;stroke-opacity:1"
             d="m 695.37579,1710.6914 v -95.0095 -95.0095 -95.0094 -95.0096 -95.0095 h -95.00946 v 95.0095 95.0096 95.0094 95.0095 95.0095 z" /><path
             id="path252"
             style="fill:none;stroke:#000000;stroke-width:2.83464575;stroke-linecap:round;stroke-linejoin:round;stroke-miterlimit:10;stroke-dasharray:none;stroke-opacity:1"
             d="m 2215.5278,950.61536 v -95.00959 h -95.0092 -95.0096 -95.0096 -95.0094 -95.0095 v 95.00959 h 95.0095 95.0094 95.0096 95.0096 z" /><path
             id="path254"
             style="fill:none;stroke:#000000;stroke-width:2.83464575;stroke-linecap:round;stroke-linejoin:round;stroke-miterlimit:10;stroke-dasharray:none;stroke-opacity:1"
             d="m 2690.5754,379.2572 h 95.0096 v -95.00949 h -95.0096 -95.0095 -95.0095 -95.0095 -95.0095 v 95.00949 h 95.0095 95.0095 95.0095 z" /><path
             id="path256"
             style="fill:none;stroke:#000000;stroke-width:2.83464575;stroke-linecap:round;stroke-linejoin:round;stroke-miterlimit:10;stroke-dasharray:none;stroke-opacity:1"
             d="m 2500.5564,1140.6343 h 95.0095 v -95.0095 -95.00944 -95.00959 -95.00946 -95.00952 h -95.0095 v 95.00952 95.00946 95.00959 95.00944 z" /><path
             id="path258"
             style="fill:none;stroke:#000000;stroke-width:2.83464575;stroke-linecap:round;stroke-linejoin:round;stroke-miterlimit:10;stroke-dasharray:none;stroke-opacity:1"
             d="M 2025.509,569.27625 V 474.26675 379.2572 284.24771 189.2382 94.228699 h -95.0096 v 95.009501 95.00951 95.00949 95.00955 95.0095 z" /><path
             id="path260"
             style="fill:none;stroke:#000000;stroke-width:2.83464575;stroke-linecap:round;stroke-linejoin:round;stroke-miterlimit:10;stroke-dasharray:none;stroke-opacity:1"
             d="m 1075.4138,1902.0115 v -95.0095 h -95.00944 -95.00952 -95.00953 -95.00952 -95.00946 v 95.0095 h 95.00946 95.00952 95.00953 95.00952 z" /><path
             id="path262"
             style="fill:none;stroke:#000000;stroke-width:2.83464575;stroke-linecap:round;stroke-linejoin:round;stroke-miterlimit:10;stroke-dasharray:none;stroke-opacity:1"
             d="m 2690.5754,1140.6343 h 95.0096 v -95.0095 -95.00944 -95.00959 -95.00946 -95.00952 h -95.0096 v 95.00952 95.00946 95.00959 95.00944 z" /><path
             id="path264"
             style="fill:none;stroke:#000000;stroke-width:2.83464575;stroke-linecap:round;stroke-linejoin:round;stroke-miterlimit:10;stroke-dasharray:none;stroke-opacity:1"
             d="m 2215.5278,1140.6343 v -95.0095 h -95.0092 -95.0096 -95.0096 -95.0094 -95.0095 v 95.0095 h 95.0095 95.0094 95.0096 95.0096 z" /><path
             id="path266"
             style="fill:none;stroke:#000000;stroke-width:2.83464575;stroke-linecap:round;stroke-linejoin:round;stroke-miterlimit:10;stroke-dasharray:none;stroke-opacity:1"
             d="m 2215.5278,760.59631 v -95.00952 h -95.0092 -95.0096 -95.0096 -95.0094 -95.0095 v 95.00952 h 95.0095 95.0094 95.0096 95.0096 z" /><path
             id="path268"
             style="fill:none;stroke:#000000;stroke-width:2.83464575;stroke-linecap:round;stroke-linejoin:round;stroke-miterlimit:10;stroke-dasharray:none;stroke-opacity:1"
             d="m 2690.5754,569.27625 h 95.0096 v -95.0095 h -95.0096 -95.0095 -95.0095 -95.0095 -95.0095 v 95.0095 h 95.0095 95.0095 95.0095 z" /><path
             id="path270"
             style="fill:none;stroke:#000000;stroke-width:2.83464575;stroke-linecap:round;stroke-linejoin:round;stroke-miterlimit:10;stroke-dasharray:none;stroke-opacity:1"
             d="m 2120.5186,474.26675 v 95.0095 h 95.0092 V 474.26675 379.2572 284.24771 189.2382 94.228699 h -95.0092 v 95.009501 95.00951 95.00949 z" /><path
             id="path272"
             style="fill:none;stroke:#000000;stroke-width:2.83464575;stroke-linecap:round;stroke-linejoin:round;stroke-miterlimit:10;stroke-dasharray:none;stroke-opacity:1"
             d="M 1835.49,569.27625 V 474.26675 379.2572 284.24771 189.2382 94.228699 h -95.0095 v 95.009501 95.00951 95.00949 95.00955 95.0095 z" /><path
             id="path274"
             style="fill:none;stroke:#000000;stroke-width:2.83464575;stroke-linecap:round;stroke-linejoin:round;stroke-miterlimit:10;stroke-dasharray:none;stroke-opacity:1"
             d="m 1075.4138,950.61536 v -95.00959 h -95.00944 -95.00952 -95.00953 -95.00952 -95.00946 v 95.00959 h 95.00946 95.00952 95.00953 95.00952 z" /><path
             id="path276"
             style="fill:none;stroke:#000000;stroke-width:2.83464575;stroke-linecap:round;stroke-linejoin:round;stroke-miterlimit:10;stroke-dasharray:none;stroke-opacity:1"
             d="m 1360.4424,1140.6343 h 95.0095 v -95.0095 -95.00944 -95.00959 -95.00946 -95.00952 h -95.0095 v 95.00952 95.00946 95.00959 95.00944 z" /><path
             id="path278"
             style="fill:none;stroke:#000000;stroke-width:2.83464575;stroke-linecap:round;stroke-linejoin:round;stroke-miterlimit:10;stroke-dasharray:none;stroke-opacity:1"
             d="M 885.39484,569.27625 V 474.26675 379.2572 284.24771 189.2382 94.228699 h -95.00953 v 95.009501 95.00951 95.00949 95.00955 95.0095 z" /><path
             id="path280"
             style="fill:none;stroke:#000000;stroke-width:2.83464575;stroke-linecap:round;stroke-linejoin:round;stroke-miterlimit:10;stroke-dasharray:none;stroke-opacity:1"
             d="m 2690.5754,1330.6534 h 95.0096 v -95.0095 h -95.0096 -95.0095 -95.0095 -95.0095 -95.0095 v 95.0095 h 95.0095 95.0095 95.0095 z" /><path
             id="path282"
             style="fill:none;stroke:#000000;stroke-width:2.83464575;stroke-linecap:round;stroke-linejoin:round;stroke-miterlimit:10;stroke-dasharray:none;stroke-opacity:1"
             d="m 1550.4614,1140.6343 h 95.0095 v -95.0095 -95.00944 -95.00959 -95.00946 -95.00952 h -95.0095 v 95.00952 95.00946 95.00959 95.00944 z" /><path
             id="path284"
             style="fill:none;stroke:#000000;stroke-width:2.83464575;stroke-linecap:round;stroke-linejoin:round;stroke-miterlimit:10;stroke-dasharray:none;stroke-opacity:1"
             d="m 1170.4233,1140.6343 h 95.0097 v -95.0095 -95.00944 -95.00959 -95.00946 -95.00952 h -95.0097 v 95.00952 95.00946 95.00959 95.00944 z" /><path
             id="path286"
             style="fill:none;stroke:#000000;stroke-width:2.83464575;stroke-linecap:round;stroke-linejoin:round;stroke-miterlimit:10;stroke-dasharray:none;stroke-opacity:1"
             d="m 1075.4138,760.59631 v -95.00952 h -95.00944 -95.00952 -95.00953 -95.00952 -95.00946 v 95.00952 h 95.00946 95.00952 95.00953 95.00952 z" /><path
             id="path288"
             style="fill:none;stroke:#000000;stroke-width:2.83464575;stroke-linecap:round;stroke-linejoin:round;stroke-miterlimit:10;stroke-dasharray:none;stroke-opacity:1"
             d="m 1550.4614,569.27625 h 95.0095 v -95.0095 h -95.0095 -95.0095 -95.0095 -95.0094 -95.0097 v 95.0095 h 95.0097 95.0094 95.0095 z" /><path
             id="path290"
             style="fill:none;stroke:#000000;stroke-width:2.83464575;stroke-linecap:round;stroke-linejoin:round;stroke-miterlimit:10;stroke-dasharray:none;stroke-opacity:1"
             d="m 1550.4614,189.2382 h 95.0095 V 94.228699 h -95.0095 -95.0095 -95.0095 -95.0094 -95.0097 V 189.2382 h 95.0097 95.0094 95.0095 z" /><path
             id="path292"
             style="fill:none;stroke:#000000;stroke-width:2.83464575;stroke-linecap:round;stroke-linejoin:round;stroke-miterlimit:10;stroke-dasharray:none;stroke-opacity:1"
             d="M 695.37579,569.27625 V 474.26675 379.2572 284.24771 189.2382 94.228699 h -95.00946 v 95.009501 95.00951 95.00949 95.00955 95.0095 z" /><path
             id="path294"
             style="fill:none;stroke:#000000;stroke-width:2.83464575;stroke-linecap:round;stroke-linejoin:round;stroke-miterlimit:10;stroke-dasharray:none;stroke-opacity:1"
             d="m 2215.5278,2092.0305 v -95.0095 h -95.0092 -95.0096 -95.0096 -95.0094 -95.0095 v 95.0095 h 95.0095 95.0094 95.0096 95.0096 z" /><path
             id="path296"
             style="fill:none;stroke:#000000;stroke-width:2.83464575;stroke-linecap:round;stroke-linejoin:round;stroke-miterlimit:10;stroke-dasharray:none;stroke-opacity:1"
             d="m 2690.5754,1520.6724 h 95.0096 v -95.0094 h -95.0096 -95.0095 -95.0095 -95.0095 -95.0095 v 95.0094 h 95.0095 95.0095 95.0095 z" /><path
             id="path298"
             style="fill:none;stroke:#000000;stroke-width:2.83464575;stroke-linecap:round;stroke-linejoin:round;stroke-miterlimit:10;stroke-dasharray:none;stroke-opacity:1"
             d="m 2500.5564,2282.0496 h 95.0095 v -95.0096 -95.0095 -95.0095 -95.0095 -95.0095 h -95.0095 v 95.0095 95.0095 95.0095 95.0095 z" /><path
             id="path300"
             style="fill:none;stroke:#000000;stroke-width:2.83464575;stroke-linecap:round;stroke-linejoin:round;stroke-miterlimit:10;stroke-dasharray:none;stroke-opacity:1"
             d="m 2025.509,1710.6914 v -95.0095 -95.0095 -95.0094 -95.0096 -95.0095 h -95.0096 v 95.0095 95.0096 95.0094 95.0095 95.0095 z" /><path
             id="path302"
             style="fill:none;stroke:#000000;stroke-width:2.83464575;stroke-linecap:round;stroke-linejoin:round;stroke-miterlimit:10;stroke-dasharray:none;stroke-opacity:1"
             d="m 2690.5754,2282.0496 h 95.0096 v -95.0096 -95.0095 -95.0095 -95.0095 -95.0095 h -95.0096 v 95.0095 95.0095 95.0095 95.0095 z" /><path
             id="path304"
             style="fill:none;stroke:#000000;stroke-width:2.83464575;stroke-linecap:round;stroke-linejoin:round;stroke-miterlimit:10;stroke-dasharray:none;stroke-opacity:1"
             d="m 2310.5374,2282.0496 h 95.0095 v -95.0096 -95.0095 -95.0095 -95.0095 -95.0095 h -95.0095 v 95.0095 95.0095 95.0095 95.0095 z" /><path
             id="path306"
             style="fill:none;stroke:#000000;stroke-width:2.83464575;stroke-linecap:round;stroke-linejoin:round;stroke-miterlimit:10;stroke-dasharray:none;stroke-opacity:1"
             d="M 2215.5278,2282.0496 V 2187.04 h -95.0092 -95.0096 -95.0096 -95.0094 -95.0095 v 95.0096 h 95.0095 95.0094 95.0096 95.0096 z" /><path
             id="path308"
             style="fill:none;stroke:#000000;stroke-width:2.83464575;stroke-linecap:round;stroke-linejoin:round;stroke-miterlimit:10;stroke-dasharray:none;stroke-opacity:1"
             d="m 2215.5278,1902.0115 v -95.0095 h -95.0092 -95.0096 -95.0096 -95.0094 -95.0095 v 95.0095 h 95.0095 95.0094 95.0096 95.0096 z" /></g></g></g></g></svg>