<?xml version="1.0" encoding="UTF-8" standalone="no"?>
<svg
   xmlns:dc="http://purl.org/dc/elements/1.1/"
   xmlns:cc="http://creativecommons.org/ns#"
   xmlns:rdf="http://www.w3.org/1999/02/22-rdf-syntax-ns#"
   xmlns:svg="http://www.w3.org/2000/svg"
   xmlns="http://www.w3.org/2000/svg"
   viewBox="0 0 4493.7603 3178.5598"
   height="3178.5598"
   width="4493.7603"
   xml:space="preserve"
   id="svg2"
   version="1.1"><metadata
     id="metadata8"><rdf:RDF><cc:Work
         rdf:about=""><dc:format>image/svg+xml</dc:format><dc:type
           rdf:resource="http://purl.org/dc/dcmitype/StillImage" /></cc:Work></rdf:RDF></metadata><defs
     id="defs6"><clipPath
       id="clipPath20"
       clipPathUnits="userSpaceOnUse"><path
         id="path18"
         d="M 0,0 V 2383.9199 H 3370.3201 V 0 Z" /></clipPath></defs><g
     transform="matrix(1.3333333,0,0,-1.3333333,0,3178.5599)"
     id="g10"><g
       transform="matrix(1,0,0,-1,0,2383.9199)"
       id="g12"><g
         id="g14"><g
           clip-path="url(#clipPath20)"
           id="g16"><path
             id="path22"
             style="fill:none;stroke:#000000;stroke-width:0.23999999;stroke-linecap:round;stroke-linejoin:round;stroke-miterlimit:10;stroke-dasharray:none;stroke-opacity:1"
             d="m 2185.1338,2059.6255 v -90.1729 h -90.1726 -90.1727 -90.1728 -90.1726 -90.1727 v 90.1729 h 90.1727 90.1726 90.1728 90.1727 z" /><path
             id="path24"
             style="fill:none;stroke:#000000;stroke-width:0.23999999;stroke-linecap:round;stroke-linejoin:round;stroke-miterlimit:10;stroke-dasharray:none;stroke-opacity:1"
             d="m 2004.7885,1697.6997 v -90.1726 -90.1727 -90.1726 -90.1728 -90.1727 h -90.1728 v 90.1727 90.1728 90.1726 90.1727 90.1726 z" /><path
             id="path26"
             style="fill:none;stroke:#000000;stroke-width:0.23999999;stroke-linecap:round;stroke-linejoin:round;stroke-miterlimit:10;stroke-dasharray:none;stroke-opacity:1"
             d="m 2185.1338,1879.28 v -90.1727 h -90.1726 -90.1727 -90.1728 -90.1726 -90.1727 v 90.1727 h 90.1727 90.1726 90.1728 90.1727 z" /><path
             id="path28"
             style="fill:none;stroke:#000000;stroke-width:0.23999999;stroke-linecap:round;stroke-linejoin:round;stroke-miterlimit:10;stroke-dasharray:none;stroke-opacity:1"
             d="m 2275.3064,2239.9709 h 90.1728 v -90.1728 -90.1726 -90.1729 -90.1726 -90.1727 h -90.1728 v 90.1727 90.1726 90.1729 90.1726 z" /><path
             id="path30"
             style="fill:none;stroke:#000000;stroke-width:0.23999999;stroke-linecap:round;stroke-linejoin:round;stroke-miterlimit:10;stroke-dasharray:none;stroke-opacity:1"
             d="m 1553.925,434.04733 h 90.1727 v -90.1727 h -90.1727 -90.1727 -90.1727 -90.1727 -90.1728 v 90.1727 h 90.1728 90.1727 90.1727 z" /><path
             id="path32"
             style="fill:none;stroke:#000000;stroke-width:0.23999999;stroke-linecap:round;stroke-linejoin:round;stroke-miterlimit:10;stroke-dasharray:none;stroke-opacity:1"
             d="m 2185.1338,795.9729 v -90.17267 h -90.1726 -90.1727 -90.1728 -90.1726 -90.1727 v 90.17267 h 90.1727 90.1726 90.1728 90.1727 z" /><path
             id="path34"
             style="fill:none;stroke:#000000;stroke-width:0.23999999;stroke-linecap:round;stroke-linejoin:round;stroke-miterlimit:10;stroke-dasharray:none;stroke-opacity:1"
             d="m 2185.1338,2239.9709 v -90.1728 h -90.1726 -90.1727 -90.1728 -90.1726 -90.1727 v 90.1728 h 90.1727 90.1726 90.1728 90.1727 z" /><path
             id="path36"
             style="fill:none;stroke:#000000;stroke-width:0.23999999;stroke-linecap:round;stroke-linejoin:round;stroke-miterlimit:10;stroke-dasharray:none;stroke-opacity:1"
             d="m 2635.9973,1697.6997 h 90.1726 v -90.1726 h -90.1726 -90.1726 -90.1728 -90.1727 -90.1728 v 90.1726 h 90.1728 90.1727 90.1728 z" /><path
             id="path38"
             style="fill:none;stroke:#000000;stroke-width:0.23999999;stroke-linecap:round;stroke-linejoin:round;stroke-miterlimit:10;stroke-dasharray:none;stroke-opacity:1"
             d="m 922.71606,614.39276 v -90.17279 -90.17264 -90.1727 -90.17268 -90.1727 H 832.5434 v 90.1727 90.17268 90.1727 90.17264 90.17279 z" /><path
             id="path40"
             style="fill:none;stroke:#000000;stroke-width:0.23999999;stroke-linecap:round;stroke-linejoin:round;stroke-miterlimit:10;stroke-dasharray:none;stroke-opacity:1"
             d="m 2635.9973,253.70195 h 90.1726 v -90.1727 h -90.1726 -90.1726 -90.1728 -90.1727 -90.1728 v 90.1727 h 90.1728 90.1727 90.1728 z" /><path
             id="path42"
             style="fill:none;stroke:#000000;stroke-width:0.23999999;stroke-linecap:round;stroke-linejoin:round;stroke-miterlimit:10;stroke-dasharray:none;stroke-opacity:1"
             d="m 2635.9973,1517.3544 h 90.1726 v -90.1726 h -90.1726 -90.1726 -90.1728 -90.1727 -90.1728 v 90.1726 h 90.1728 90.1727 90.1728 z" /><path
             id="path44"
             style="fill:none;stroke:#000000;stroke-width:0.23999999;stroke-linecap:round;stroke-linejoin:round;stroke-miterlimit:10;stroke-dasharray:none;stroke-opacity:1"
             d="m 922.71606,1697.6997 v -90.1726 -90.1727 -90.1726 -90.1728 -90.1727 H 832.5434 v 90.1727 90.1728 90.1726 90.1727 90.1726 z" /><path
             id="path46"
             style="fill:none;stroke:#000000;stroke-width:0.23999999;stroke-linecap:round;stroke-linejoin:round;stroke-miterlimit:10;stroke-dasharray:none;stroke-opacity:1"
             d="m 2275.3064,1156.6637 h 90.1728 V 1066.491 976.3183 886.14557 795.9729 705.80023 h -90.1728 v 90.17267 90.17267 90.17273 90.1727 z" /><path
             id="path48"
             style="fill:none;stroke:#000000;stroke-width:0.23999999;stroke-linecap:round;stroke-linejoin:round;stroke-miterlimit:10;stroke-dasharray:none;stroke-opacity:1"
             d="m 1373.5796,2239.9709 h 90.1727 v -90.1728 -90.1726 -90.1729 -90.1726 -90.1727 h -90.1727 v 90.1727 90.1726 90.1729 90.1726 z" /><path
             id="path50"
             style="fill:none;stroke:#000000;stroke-width:0.23999999;stroke-linecap:round;stroke-linejoin:round;stroke-miterlimit:10;stroke-dasharray:none;stroke-opacity:1"
             d="m 1103.0614,1879.28 v -90.1727 H 1012.8889 922.71606 832.5434 742.37073 652.198 v 90.1727 h 90.17273 90.17267 90.17266 90.17284 z" /><path
             id="path52"
             style="fill:none;stroke:#000000;stroke-width:0.23999999;stroke-linecap:round;stroke-linejoin:round;stroke-miterlimit:10;stroke-dasharray:none;stroke-opacity:1"
             d="m 1193.2341,2239.9709 h 90.1728 v -90.1728 -90.1726 -90.1729 -90.1726 -90.1727 h -90.1728 v 90.1727 90.1726 90.1729 90.1726 z" /><path
             id="path54"
             style="fill:none;stroke:#000000;stroke-width:0.23999999;stroke-linecap:round;stroke-linejoin:round;stroke-miterlimit:10;stroke-dasharray:none;stroke-opacity:1"
             d="m 1553.925,2239.9709 h 90.1727 v -90.1728 -90.1726 -90.1729 -90.1726 -90.1727 h -90.1727 v 90.1727 90.1726 90.1729 90.1726 z" /><path
             id="path56"
             style="fill:none;stroke:#000000;stroke-width:0.23999999;stroke-linecap:round;stroke-linejoin:round;stroke-miterlimit:10;stroke-dasharray:none;stroke-opacity:1"
             d="m 1824.4431,614.39276 v -90.17279 -90.17264 -90.1727 -90.17268 -90.1727 h -90.1727 v 90.1727 90.17268 90.1727 90.17264 90.17279 z" /><path
             id="path58"
             style="fill:none;stroke:#000000;stroke-width:0.23999999;stroke-linecap:round;stroke-linejoin:round;stroke-miterlimit:10;stroke-dasharray:none;stroke-opacity:1"
             d="m 1553.925,1337.009 h 90.1727 v -90.1727 h -90.1727 -90.1727 -90.1727 -90.1727 -90.1728 v 90.1727 h 90.1728 90.1727 90.1727 z" /><path
             id="path60"
             style="fill:none;stroke:#000000;stroke-width:0.23999999;stroke-linecap:round;stroke-linejoin:round;stroke-miterlimit:10;stroke-dasharray:none;stroke-opacity:1"
             d="m 2094.9612,1607.5271 v 90.1726 h 90.1726 v -90.1726 -90.1727 -90.1726 -90.1728 -90.1727 h -90.1726 v 90.1727 90.1728 90.1726 z" /><path
             id="path62"
             style="fill:none;stroke:#000000;stroke-width:0.23999999;stroke-linecap:round;stroke-linejoin:round;stroke-miterlimit:10;stroke-dasharray:none;stroke-opacity:1"
             d="m 2455.6519,2239.9709 h 90.1728 v -90.1728 -90.1726 -90.1729 -90.1726 -90.1727 h -90.1728 v 90.1727 90.1726 90.1729 90.1726 z" /><path
             id="path64"
             style="fill:none;stroke:#000000;stroke-width:0.23999999;stroke-linecap:round;stroke-linejoin:round;stroke-miterlimit:10;stroke-dasharray:none;stroke-opacity:1"
             d="m 2185.1338,976.3183 v -90.17273 h -90.1726 -90.1727 -90.1728 -90.1726 -90.1727 v 90.17273 h 90.1727 90.1726 90.1728 90.1727 z" /><path
             id="path66"
             style="fill:none;stroke:#000000;stroke-width:0.23999999;stroke-linecap:round;stroke-linejoin:round;stroke-miterlimit:10;stroke-dasharray:none;stroke-opacity:1"
             d="m 2635.9973,2239.9709 h 90.1726 v -90.1728 -90.1726 -90.1729 -90.1726 -90.1727 h -90.1726 v 90.1727 90.1726 90.1729 90.1726 z" /><path
             id="path68"
             style="fill:none;stroke:#000000;stroke-width:0.23999999;stroke-linecap:round;stroke-linejoin:round;stroke-miterlimit:10;stroke-dasharray:none;stroke-opacity:1"
             d="m 1553.925,1517.3544 h 90.1727 v -90.1726 h -90.1727 -90.1727 -90.1727 -90.1727 -90.1728 v 90.1726 h 90.1728 90.1727 90.1727 z" /><path
             id="path70"
             style="fill:none;stroke:#000000;stroke-width:0.23999999;stroke-linecap:round;stroke-linejoin:round;stroke-miterlimit:10;stroke-dasharray:none;stroke-opacity:1"
             d="m 2185.1338,1156.6637 v -90.1727 h -90.1726 -90.1727 -90.1728 -90.1726 -90.1727 v 90.1727 h 90.1727 90.1726 90.1728 90.1727 z" /><path
             id="path72"
             style="fill:none;stroke:#000000;stroke-width:0.23999999;stroke-linecap:round;stroke-linejoin:round;stroke-miterlimit:10;stroke-dasharray:none;stroke-opacity:1"
             d="m 2004.7885,614.39276 v -90.17279 -90.17264 -90.1727 -90.17268 -90.1727 h -90.1728 v 90.1727 90.17268 90.1727 90.17264 90.17279 z" /><path
             id="path74"
             style="fill:none;stroke:#000000;stroke-width:0.23999999;stroke-linecap:round;stroke-linejoin:round;stroke-miterlimit:10;stroke-dasharray:none;stroke-opacity:1"
             d="m 2635.9973,1156.6637 h 90.1726 V 1066.491 976.3183 886.14557 795.9729 705.80023 h -90.1726 v 90.17267 90.17267 90.17273 90.1727 z" /><path
             id="path76"
             style="fill:none;stroke:#000000;stroke-width:0.23999999;stroke-linecap:round;stroke-linejoin:round;stroke-miterlimit:10;stroke-dasharray:none;stroke-opacity:1"
             d="m 1553.925,1697.6997 h 90.1727 v -90.1726 h -90.1727 -90.1727 -90.1727 -90.1727 -90.1728 v 90.1726 h 90.1728 90.1727 90.1727 z" /><path
             id="path78"
             style="fill:none;stroke:#000000;stroke-width:0.23999999;stroke-linecap:round;stroke-linejoin:round;stroke-miterlimit:10;stroke-dasharray:none;stroke-opacity:1"
             d="m 1553.925,1156.6637 h 90.1727 V 1066.491 976.3183 886.14557 795.9729 705.80023 h -90.1727 v 90.17267 90.17267 90.17273 90.1727 z" /><path
             id="path80"
             style="fill:none;stroke:#000000;stroke-width:0.23999999;stroke-linecap:round;stroke-linejoin:round;stroke-miterlimit:10;stroke-dasharray:none;stroke-opacity:1"
             d="m 1103.0614,2239.9709 v -90.1728 H 1012.8889 922.71606 832.5434 742.37073 652.198 v 90.1728 h 90.17273 90.17267 90.17266 90.17284 z" /><path
             id="path82"
             style="fill:none;stroke:#000000;stroke-width:0.23999999;stroke-linecap:round;stroke-linejoin:round;stroke-miterlimit:10;stroke-dasharray:none;stroke-opacity:1"
             d="m 1373.5796,1156.6637 h 90.1727 V 1066.491 976.3183 886.14557 795.9729 705.80023 h -90.1727 v 90.17267 90.17267 90.17273 90.1727 z" /><path
             id="path84"
             style="fill:none;stroke:#000000;stroke-width:0.23999999;stroke-linecap:round;stroke-linejoin:round;stroke-miterlimit:10;stroke-dasharray:none;stroke-opacity:1"
             d="M 1103.0614,976.3183 V 886.14557 H 1012.8889 922.71606 832.5434 742.37073 652.198 v 90.17273 h 90.17273 90.17267 90.17266 90.17284 z" /><path
             id="path86"
             style="fill:none;stroke:#000000;stroke-width:0.23999999;stroke-linecap:round;stroke-linejoin:round;stroke-miterlimit:10;stroke-dasharray:none;stroke-opacity:1"
             d="m 2094.9612,524.21997 v 90.17279 h 90.1726 v -90.17279 -90.17264 -90.1727 -90.17268 -90.1727 h -90.1726 v 90.1727 90.17268 90.1727 z" /><path
             id="path88"
             style="fill:none;stroke:#000000;stroke-width:0.23999999;stroke-linecap:round;stroke-linejoin:round;stroke-miterlimit:10;stroke-dasharray:none;stroke-opacity:1"
             d="m 2635.9973,614.39276 h 90.1726 v -90.17279 h -90.1726 -90.1726 -90.1728 -90.1727 -90.1728 v 90.17279 h 90.1728 90.1727 90.1728 z" /><path
             id="path90"
             style="fill:none;stroke:#000000;stroke-width:0.23999999;stroke-linecap:round;stroke-linejoin:round;stroke-miterlimit:10;stroke-dasharray:none;stroke-opacity:1"
             d="m 2635.9973,1337.009 h 90.1726 v -90.1727 h -90.1726 -90.1726 -90.1728 -90.1727 -90.1728 v 90.1727 h 90.1728 90.1727 90.1728 z" /><path
             id="path92"
             style="fill:none;stroke:#000000;stroke-width:0.23999999;stroke-linecap:round;stroke-linejoin:round;stroke-miterlimit:10;stroke-dasharray:none;stroke-opacity:1"
             d="m 1193.2341,1156.6637 h 90.1728 V 1066.491 976.3183 886.14557 795.9729 705.80023 h -90.1728 v 90.17267 90.17267 90.17273 90.1727 z" /><path
             id="path94"
             style="fill:none;stroke:#000000;stroke-width:0.23999999;stroke-linecap:round;stroke-linejoin:round;stroke-miterlimit:10;stroke-dasharray:none;stroke-opacity:1"
             d="M 1103.0614,1156.6637 V 1066.491 H 1012.8889 922.71606 832.5434 742.37073 652.198 v 90.1727 h 90.17273 90.17267 90.17266 90.17284 z" /><path
             id="path96"
             style="fill:none;stroke:#000000;stroke-width:0.23999999;stroke-linecap:round;stroke-linejoin:round;stroke-miterlimit:10;stroke-dasharray:none;stroke-opacity:1"
             d="M 1103.0614,795.9729 V 705.80023 H 1012.8889 922.71606 832.5434 742.37073 652.198 v 90.17267 h 90.17273 90.17267 90.17266 90.17284 z" /><path
             id="path98"
             style="fill:none;stroke:#000000;stroke-width:0.23999999;stroke-linecap:round;stroke-linejoin:round;stroke-miterlimit:10;stroke-dasharray:none;stroke-opacity:1"
             d="m 1012.8889,1607.5271 v 90.1726 h 90.1725 v -90.1726 -90.1727 -90.1726 -90.1728 -90.1727 h -90.1725 v 90.1727 90.1728 90.1726 z" /><path
             id="path100"
             style="fill:none;stroke:#000000;stroke-width:0.23999999;stroke-linecap:round;stroke-linejoin:round;stroke-miterlimit:10;stroke-dasharray:none;stroke-opacity:1"
             d="m 742.37073,1697.6997 v -90.1726 -90.1727 -90.1726 -90.1728 -90.1727 H 652.198 v 90.1727 90.1728 90.1726 90.1727 90.1726 z" /><path
             id="path102"
             style="fill:none;stroke:#000000;stroke-width:0.23999999;stroke-linecap:round;stroke-linejoin:round;stroke-miterlimit:10;stroke-dasharray:none;stroke-opacity:1"
             d="m 1824.4431,1697.6997 v -90.1726 -90.1727 -90.1726 -90.1728 -90.1727 h -90.1727 v 90.1727 90.1728 90.1726 90.1727 90.1726 z" /><path
             id="path104"
             style="fill:none;stroke:#000000;stroke-width:0.23999999;stroke-linecap:round;stroke-linejoin:round;stroke-miterlimit:10;stroke-dasharray:none;stroke-opacity:1"
             d="m 1553.925,614.39276 h 90.1727 v -90.17279 h -90.1727 -90.1727 -90.1727 -90.1727 -90.1728 v 90.17279 h 90.1728 90.1727 90.1727 z" /><path
             id="path106"
             style="fill:none;stroke:#000000;stroke-width:0.23999999;stroke-linecap:round;stroke-linejoin:round;stroke-miterlimit:10;stroke-dasharray:none;stroke-opacity:1"
             d="m 1553.925,253.70195 h 90.1727 v -90.1727 h -90.1727 -90.1727 -90.1727 -90.1727 -90.1728 v 90.1727 h 90.1728 90.1727 90.1727 z" /><path
             id="path108"
             style="fill:none;stroke:#000000;stroke-width:0.23999999;stroke-linecap:round;stroke-linejoin:round;stroke-miterlimit:10;stroke-dasharray:none;stroke-opacity:1"
             d="m 1012.8889,524.21997 v 90.17279 h 90.1725 v -90.17279 -90.17264 -90.1727 -90.17268 -90.1727 h -90.1725 v 90.1727 90.17268 90.1727 z" /><path
             id="path110"
             style="fill:none;stroke:#000000;stroke-width:0.23999999;stroke-linecap:round;stroke-linejoin:round;stroke-miterlimit:10;stroke-dasharray:none;stroke-opacity:1"
             d="m 742.37073,614.39276 v -90.17279 -90.17264 -90.1727 -90.17268 -90.1727 H 652.198 v 90.1727 90.17268 90.1727 90.17264 90.17279 z" /><path
             id="path112"
             style="fill:none;stroke:#000000;stroke-width:0.23999999;stroke-linecap:round;stroke-linejoin:round;stroke-miterlimit:10;stroke-dasharray:none;stroke-opacity:1"
             d="m 2635.9973,434.04733 h 90.1726 v -90.1727 h -90.1726 -90.1726 -90.1728 -90.1727 -90.1728 v 90.1727 h 90.1728 90.1727 90.1728 z" /><path
             id="path114"
             style="fill:none;stroke:#000000;stroke-width:0.23999999;stroke-linecap:round;stroke-linejoin:round;stroke-miterlimit:10;stroke-dasharray:none;stroke-opacity:1"
             d="m 1103.0614,2059.6255 v -90.1729 H 1012.8889 922.71606 832.5434 742.37073 652.198 v 90.1729 h 90.17273 90.17267 90.17266 90.17284 z" /><path
             id="path116"
             style="fill:none;stroke:#000000;stroke-width:0.23999999;stroke-linecap:round;stroke-linejoin:round;stroke-miterlimit:10;stroke-dasharray:none;stroke-opacity:1"
             d="m 2455.6519,1156.6637 h 90.1728 V 1066.491 976.3183 886.14557 795.9729 705.80023 h -90.1728 v 90.17267 90.17267 90.17273 90.1727 z" /><g
             id="g118"><path
               id="path120"
               style="fill:#000000;fill-opacity:1;fill-rule:nonzero;stroke:none"
               d="m 2455.6519,1156.6637 c 30.0576,0 60.1149,0 90.1728,0 0,-30.0576 0,-60.1152 0,-90.1727 0,-30.0575 0,-60.1151 0,-90.1727 0,-30.05762 0,-60.11511 0,-90.17273 0,-30.05756 0,-60.11505 0,-90.17267 0,-30.05756 0,-60.11517 0,-90.17267 -30.0579,0 -60.1152,0 -90.1728,0 0,30.0575 0,60.11511 0,90.17267 0,30.05762 0,60.11511 0,90.17267 0,30.05762 0,60.11511 0,90.17273 0,30.0576 0,60.1152 0,90.1727 0,30.0575 0,60.1151 0,90.1727 z" /></g><g
             id="g122"><path
               id="path124"
               style="fill:#000000;fill-opacity:1;fill-rule:nonzero;stroke:none"
               d="m 2004.7885,614.39276 c 0,-30.05762 0,-60.11517 0,-90.17279 0,-30.05749 0,-60.11508 0,-90.17264 0,-30.05758 0,-60.11514 0,-90.1727 0,-30.05755 0,-60.11511 0,-90.17268 0,-30.05757 0,-60.11514 0,-90.1727 -30.0577,0 -60.1153,0 -90.1728,0 0,30.05756 0,60.11513 0,90.1727 0,30.05757 0,60.11513 0,90.17268 0,30.05756 0,60.11512 0,90.1727 0,30.05756 0,60.11515 0,90.17264 0,30.05762 0,60.11517 0,90.17279 30.0575,0 60.1151,0 90.1728,0 z" /></g><g
             id="g126"><path
               id="path128"
               style="fill:#000000;fill-opacity:1;fill-rule:nonzero;stroke:none"
               d="m 2004.7885,1697.6997 c 0,-30.0575 0,-60.115 0,-90.1726 0,-30.0575 0,-60.1151 0,-90.1727 0,-30.0575 0,-60.115 0,-90.1726 0,-30.0577 0,-60.1151 0,-90.1728 0,-30.0575 0,-60.1151 0,-90.1727 -30.0577,0 -60.1153,0 -90.1728,0 0,30.0576 0,60.1152 0,90.1727 0,30.0577 0,60.1151 0,90.1728 0,30.0576 0,60.1151 0,90.1726 0,30.0576 0,60.1152 0,90.1727 0,30.0576 0,60.1151 0,90.1726 30.0575,0 60.1151,0 90.1728,0 z" /></g><g
             id="g130"><path
               id="path132"
               style="fill:#000000;fill-opacity:1;fill-rule:nonzero;stroke:none"
               d="m 2635.9973,1156.6637 c 30.0574,0 60.115,0 90.1726,0 0,-30.0576 0,-60.1152 0,-90.1727 0,-30.0575 0,-60.1151 0,-90.1727 0,-30.05762 0,-60.11511 0,-90.17273 0,-30.05756 0,-60.11505 0,-90.17267 0,-30.05756 0,-60.11517 0,-90.17267 -30.0576,0 -60.1152,0 -90.1726,0 0,30.0575 0,60.11511 0,90.17267 0,30.05762 0,60.11511 0,90.17267 0,30.05762 0,60.11511 0,90.17273 0,30.0576 0,60.1152 0,90.1727 0,30.0575 0,60.1151 0,90.1727 z" /></g><g
             id="g134"><path
               id="path136"
               style="fill:#000000;fill-opacity:1;fill-rule:nonzero;stroke:none"
               d="m 1373.5796,2239.9709 c 30.0576,0 60.1151,0 90.1727,0 0,-30.0578 0,-60.1154 0,-90.1728 0,-30.0576 0,-60.115 0,-90.1726 0,-30.0578 0,-60.1152 0,-90.1729 0,-30.0575 0,-60.1151 0,-90.1726 0,-30.0575 0,-60.1152 0,-90.1727 -30.0576,0 -60.1151,0 -90.1727,0 0,30.0575 0,60.1152 0,90.1727 0,30.0575 0,60.1151 0,90.1726 0,30.0577 0,60.1151 0,90.1729 0,30.0576 0,60.115 0,90.1726 0,30.0574 0,60.115 0,90.1728 z" /></g><g
             id="g138"><path
               id="path140"
               style="fill:#000000;fill-opacity:1;fill-rule:nonzero;stroke:none"
               d="m 1553.925,1517.3544 c 30.0575,0 60.115,0 90.1727,0 0,-30.0575 0,-60.115 0,-90.1726 -30.0577,0 -60.1152,0 -90.1727,0 -30.0577,0 -60.1152,0 -90.1727,0 -30.0576,0 -60.1151,0 -90.1727,0 -30.0576,0 -60.1151,0 -90.1727,0 -30.0577,0 -60.1152,0 -90.1728,0 0,30.0576 0,60.1151 0,90.1726 30.0576,0 60.1151,0 90.1728,0 30.0576,0 60.1151,0 90.1727,0 30.0576,0 60.1151,0 90.1727,0 30.0575,0 60.115,0 90.1727,0 z" /></g><g
             id="g142"><path
               id="path144"
               style="fill:#000000;fill-opacity:1;fill-rule:nonzero;stroke:none"
               d="m 2275.3064,1156.6637 c 30.0576,0 60.1152,0 90.1728,0 0,-30.0576 0,-60.1152 0,-90.1727 0,-30.0575 0,-60.1151 0,-90.1727 0,-30.05762 0,-60.11511 0,-90.17273 0,-30.05756 0,-60.11505 0,-90.17267 0,-30.05756 0,-60.11517 0,-90.17267 -30.0576,0 -60.1152,0 -90.1728,0 0,30.0575 0,60.11511 0,90.17267 0,30.05762 0,60.11511 0,90.17267 0,30.05762 0,60.11511 0,90.17273 0,30.0576 0,60.1152 0,90.1727 0,30.0575 0,60.1151 0,90.1727 z" /></g><g
             id="g146"><path
               id="path148"
               style="fill:#000000;fill-opacity:1;fill-rule:nonzero;stroke:none"
               d="m 2185.1338,1156.6637 c 0,-30.0576 0,-60.1152 0,-90.1727 -30.0576,0 -60.1152,0 -90.1726,0 -30.0576,0 -60.1151,0 -90.1727,0 -30.0577,0 -60.1153,0 -90.1728,0 -30.0576,0 -60.1151,0 -90.1726,0 -30.0577,0 -60.1152,0 -90.1727,0 0,30.0575 0,60.1151 0,90.1727 30.0575,0 60.115,0 90.1727,0 30.0575,0 60.115,0 90.1726,0 30.0575,0 60.1151,0 90.1728,0 30.0576,0 60.1151,0 90.1727,0 30.0574,0 60.115,0 90.1726,0 z" /></g><g
             id="g150"><path
               id="path152"
               style="fill:#000000;fill-opacity:1;fill-rule:nonzero;stroke:none"
               d="m 2185.1338,795.9729 c 0,-30.05756 0,-60.11517 0,-90.17267 -30.0576,0 -60.1152,0 -90.1726,0 -30.0576,0 -60.1151,0 -90.1727,0 -30.0577,0 -60.1153,0 -90.1728,0 -30.0576,0 -60.1151,0 -90.1726,0 -30.0577,0 -60.1152,0 -90.1727,0 0,30.0575 0,60.11511 0,90.17267 30.0575,0 60.115,0 90.1727,0 30.0575,0 60.115,0 90.1726,0 30.0575,0 60.1151,0 90.1728,0 30.0576,0 60.1151,0 90.1727,0 30.0574,0 60.115,0 90.1726,0 z" /></g><g
             id="g154"><path
               id="path156"
               style="fill:#000000;fill-opacity:1;fill-rule:nonzero;stroke:none"
               d="m 922.71606,1697.6997 c 0,-30.0575 0,-60.115 0,-90.1726 0,-30.0575 0,-60.1151 0,-90.1727 0,-30.0575 0,-60.115 0,-90.1726 0,-30.0577 0,-60.1151 0,-90.1728 0,-30.0575 0,-60.1151 0,-90.1727 -30.05749,0 -60.11511,0 -90.17266,0 0,30.0576 0,60.1152 0,90.1727 0,30.0577 0,60.1151 0,90.1728 0,30.0576 0,60.1151 0,90.1726 0,30.0576 0,60.1152 0,90.1727 0,30.0576 0,60.1151 0,90.1726 30.05755,0 60.11517,0 90.17266,0 z" /></g><g
             id="g158"><path
               id="path160"
               style="fill:#000000;fill-opacity:1;fill-rule:nonzero;stroke:none"
               d="m 2185.1338,2059.6255 c 0,-30.0578 0,-60.1152 0,-90.1729 -30.0576,0 -60.1152,0 -90.1726,0 -30.0576,0 -60.1151,0 -90.1727,0 -30.0577,0 -60.1153,0 -90.1728,0 -30.0576,0 -60.1151,0 -90.1726,0 -30.0577,0 -60.1152,0 -90.1727,0 0,30.0577 0,60.1151 0,90.1729 30.0575,0 60.115,0 90.1727,0 30.0575,0 60.115,0 90.1726,0 30.0575,0 60.1151,0 90.1728,0 30.0576,0 60.1151,0 90.1727,0 30.0574,0 60.115,0 90.1726,0 z" /></g><g
             id="g162"><path
               id="path164"
               style="fill:#000000;fill-opacity:1;fill-rule:nonzero;stroke:none"
               d="m 2635.9973,614.39276 c 30.0574,0 60.115,0 90.1726,0 0,-30.05762 0,-60.11517 0,-90.17279 -30.0576,0 -60.1152,0 -90.1726,0 -30.0576,0 -60.1152,0 -90.1726,0 -30.0579,0 -60.1152,0 -90.1728,0 -30.0577,0 -60.115,0 -90.1727,0 -30.0576,0 -60.1152,0 -90.1728,0 0,30.05762 0,60.11517 0,90.17279 30.0576,0 60.1152,0 90.1728,0 30.0577,0 60.115,0 90.1727,0 30.0576,0 60.1149,0 90.1728,0 30.0574,0 60.115,0 90.1726,0 z" /></g><g
             id="g166"><path
               id="path168"
               style="fill:#000000;fill-opacity:1;fill-rule:nonzero;stroke:none"
               d="m 2094.9612,524.21997 c 0,30.05762 0,60.11517 0,90.17279 30.0574,0 60.115,0 90.1726,0 0,-30.05762 0,-60.11517 0,-90.17279 0,-30.05749 0,-60.11508 0,-90.17264 0,-30.05758 0,-60.11514 0,-90.1727 0,-30.05755 0,-60.11511 0,-90.17268 0,-30.05757 0,-60.11514 0,-90.1727 -30.0576,0 -60.1152,0 -90.1726,0 0,30.05756 0,60.11513 0,90.1727 0,30.05757 0,60.11513 0,90.17268 0,30.05756 0,60.11512 0,90.1727 0,30.05756 0,60.11515 0,90.17264 z" /></g><g
             id="g170"><path
               id="path172"
               style="fill:#000000;fill-opacity:1;fill-rule:nonzero;stroke:none"
               d="m 2635.9973,1697.6997 c 30.0574,0 60.115,0 90.1726,0 0,-30.0575 0,-60.115 0,-90.1726 -30.0576,0 -60.1152,0 -90.1726,0 -30.0576,0 -60.1152,0 -90.1726,0 -30.0579,0 -60.1152,0 -90.1728,0 -30.0577,0 -60.115,0 -90.1727,0 -30.0576,0 -60.1152,0 -90.1728,0 0,30.0576 0,60.1151 0,90.1726 30.0576,0 60.1152,0 90.1728,0 30.0577,0 60.115,0 90.1727,0 30.0576,0 60.1149,0 90.1728,0 30.0574,0 60.115,0 90.1726,0 z" /></g><g
             id="g174"><path
               id="path176"
               style="fill:#000000;fill-opacity:1;fill-rule:nonzero;stroke:none"
               d="m 1193.2341,2239.9709 c 30.0576,0 60.1151,0 90.1728,0 0,-30.0578 0,-60.1154 0,-90.1728 0,-30.0576 0,-60.115 0,-90.1726 0,-30.0578 0,-60.1152 0,-90.1729 0,-30.0575 0,-60.1151 0,-90.1726 0,-30.0575 0,-60.1152 0,-90.1727 -30.0577,0 -60.1152,0 -90.1728,0 0,30.0575 0,60.1152 0,90.1727 0,30.0575 0,60.1151 0,90.1726 0,30.0577 0,60.1151 0,90.1729 0,30.0576 0,60.115 0,90.1726 0,30.0574 0,60.115 0,90.1728 z" /></g><g
             id="g178"><path
               id="path180"
               style="fill:#000000;fill-opacity:1;fill-rule:nonzero;stroke:none"
               d="m 1103.0614,2239.9709 c 0,-30.0578 0,-60.1154 0,-90.1728 -30.0575,0 -60.115,0 -90.1725,0 -30.05766,0 -60.11522,0 -90.17284,0 -30.05749,0 -60.11511,0 -90.17266,0 -30.0575,0 -60.11512,0 -90.17267,0 -30.05756,0 -60.11511,0 -90.17273,0 0,30.0574 0,60.115 0,90.1728 30.05762,0 60.11517,0 90.17273,0 30.05755,0 60.11517,0 90.17267,0 30.05755,0 60.11517,0 90.17266,0 30.05762,0 60.11518,0 90.17284,0 30.0575,0 60.115,0 90.1725,0 z" /></g><g
             id="g182"><path
               id="path184"
               style="fill:#000000;fill-opacity:1;fill-rule:nonzero;stroke:none"
               d="m 2635.9973,2239.9709 c 30.0574,0 60.115,0 90.1726,0 0,-30.0578 0,-60.1154 0,-90.1728 0,-30.0576 0,-60.115 0,-90.1726 0,-30.0578 0,-60.1152 0,-90.1729 0,-30.0575 0,-60.1151 0,-90.1726 0,-30.0575 0,-60.1152 0,-90.1727 -30.0576,0 -60.1152,0 -90.1726,0 0,30.0575 0,60.1152 0,90.1727 0,30.0575 0,60.1151 0,90.1726 0,30.0577 0,60.1151 0,90.1729 0,30.0576 0,60.115 0,90.1726 0,30.0574 0,60.115 0,90.1728 z" /></g><g
             id="g186"><path
               id="path188"
               style="fill:#000000;fill-opacity:1;fill-rule:nonzero;stroke:none"
               d="m 2635.9973,1337.009 c 30.0574,0 60.115,0 90.1726,0 0,-30.0575 0,-60.1151 0,-90.1727 -30.0576,0 -60.1152,0 -90.1726,0 -30.0576,0 -60.1152,0 -90.1726,0 -30.0579,0 -60.1152,0 -90.1728,0 -30.0577,0 -60.115,0 -90.1727,0 -30.0576,0 -60.1152,0 -90.1728,0 0,30.0576 0,60.1152 0,90.1727 30.0576,0 60.1152,0 90.1728,0 30.0577,0 60.115,0 90.1727,0 30.0576,0 60.1149,0 90.1728,0 30.0574,0 60.115,0 90.1726,0 z" /></g><g
             id="g190"><path
               id="path192"
               style="fill:#000000;fill-opacity:1;fill-rule:nonzero;stroke:none"
               d="m 1103.0614,1879.28 c 0,-30.0575 0,-60.1152 0,-90.1727 -30.0575,0 -60.115,0 -90.1725,0 -30.05766,0 -60.11522,0 -90.17284,0 -30.05749,0 -60.11511,0 -90.17266,0 -30.0575,0 -60.11512,0 -90.17267,0 -30.05756,0 -60.11511,0 -90.17273,0 0,30.0575 0,60.1152 0,90.1727 30.05762,0 60.11517,0 90.17273,0 30.05755,0 60.11517,0 90.17267,0 30.05755,0 60.11517,0 90.17266,0 30.05762,0 60.11518,0 90.17284,0 30.0575,0 60.115,0 90.1725,0 z" /></g><g
             id="g194"><path
               id="path196"
               style="fill:#000000;fill-opacity:1;fill-rule:nonzero;stroke:none"
               d="m 1103.0614,976.3183 c 0,-30.05762 0,-60.11511 0,-90.17273 -30.0575,0 -60.115,0 -90.1725,0 -30.05766,0 -60.11522,0 -90.17284,0 -30.05749,0 -60.11511,0 -90.17266,0 -30.0575,0 -60.11512,0 -90.17267,0 -30.05756,0 -60.11511,0 -90.17273,0 0,30.05762 0,60.11511 0,90.17273 30.05762,0 60.11517,0 90.17273,0 30.05755,0 60.11517,0 90.17267,0 30.05755,0 60.11517,0 90.17266,0 30.05762,0 60.11518,0 90.17284,0 30.0575,0 60.115,0 90.1725,0 z" /></g><g
             id="g198"><path
               id="path200"
               style="fill:#000000;fill-opacity:1;fill-rule:nonzero;stroke:none"
               d="m 1553.925,434.04733 c 30.0575,0 60.115,0 90.1727,0 0,-30.05758 0,-60.11514 0,-90.1727 -30.0577,0 -60.1152,0 -90.1727,0 -30.0577,0 -60.1152,0 -90.1727,0 -30.0576,0 -60.1151,0 -90.1727,0 -30.0576,0 -60.1151,0 -90.1727,0 -30.0577,0 -60.1152,0 -90.1728,0 0,30.05756 0,60.11512 0,90.1727 30.0576,0 60.1151,0 90.1728,0 30.0576,0 60.1151,0 90.1727,0 30.0576,0 60.1151,0 90.1727,0 30.0575,0 60.115,0 90.1727,0 z" /></g><g
             id="g202"><path
               id="path204"
               style="fill:#000000;fill-opacity:1;fill-rule:nonzero;stroke:none"
               d="m 2094.9612,1607.5271 c 0,30.0576 0,60.1151 0,90.1726 30.0574,0 60.115,0 90.1726,0 0,-30.0575 0,-60.115 0,-90.1726 0,-30.0575 0,-60.1151 0,-90.1727 0,-30.0575 0,-60.115 0,-90.1726 0,-30.0577 0,-60.1151 0,-90.1728 0,-30.0575 0,-60.1151 0,-90.1727 -30.0576,0 -60.1152,0 -90.1726,0 0,30.0576 0,60.1152 0,90.1727 0,30.0577 0,60.1151 0,90.1728 0,30.0576 0,60.1151 0,90.1726 0,30.0576 0,60.1152 0,90.1727 z" /></g><g
             id="g206"><path
               id="path208"
               style="fill:#000000;fill-opacity:1;fill-rule:nonzero;stroke:none"
               d="m 922.71606,614.39276 c 0,-30.05762 0,-60.11517 0,-90.17279 0,-30.05749 0,-60.11508 0,-90.17264 0,-30.05758 0,-60.11514 0,-90.1727 0,-30.05755 0,-60.11511 0,-90.17268 0,-30.05757 0,-60.11514 0,-90.1727 -30.05749,0 -60.11511,0 -90.17266,0 0,30.05756 0,60.11513 0,90.1727 0,30.05757 0,60.11513 0,90.17268 0,30.05756 0,60.11512 0,90.1727 0,30.05756 0,60.11515 0,90.17264 0,30.05762 0,60.11517 0,90.17279 30.05755,0 60.11517,0 90.17266,0 z" /></g><g
             id="g210"><path
               id="path212"
               style="fill:#000000;fill-opacity:1;fill-rule:nonzero;stroke:none"
               d="m 2455.6519,2239.9709 c 30.0576,0 60.1149,0 90.1728,0 0,-30.0578 0,-60.1154 0,-90.1728 0,-30.0576 0,-60.115 0,-90.1726 0,-30.0578 0,-60.1152 0,-90.1729 0,-30.0575 0,-60.1151 0,-90.1726 0,-30.0575 0,-60.1152 0,-90.1727 -30.0579,0 -60.1152,0 -90.1728,0 0,30.0575 0,60.1152 0,90.1727 0,30.0575 0,60.1151 0,90.1726 0,30.0577 0,60.1151 0,90.1729 0,30.0576 0,60.115 0,90.1726 0,30.0574 0,60.115 0,90.1728 z" /></g><g
             id="g214"><path
               id="path216"
               style="fill:#000000;fill-opacity:1;fill-rule:nonzero;stroke:none"
               d="m 2275.3064,2239.9709 c 30.0576,0 60.1152,0 90.1728,0 0,-30.0578 0,-60.1154 0,-90.1728 0,-30.0576 0,-60.115 0,-90.1726 0,-30.0578 0,-60.1152 0,-90.1729 0,-30.0575 0,-60.1151 0,-90.1726 0,-30.0575 0,-60.1152 0,-90.1727 -30.0576,0 -60.1152,0 -90.1728,0 0,30.0575 0,60.1152 0,90.1727 0,30.0575 0,60.1151 0,90.1726 0,30.0577 0,60.1151 0,90.1729 0,30.0576 0,60.115 0,90.1726 0,30.0574 0,60.115 0,90.1728 z" /></g><g
             id="g218"><path
               id="path220"
               style="fill:#000000;fill-opacity:1;fill-rule:nonzero;stroke:none"
               d="m 1824.4431,1697.6997 c 0,-30.0575 0,-60.115 0,-90.1726 0,-30.0575 0,-60.1151 0,-90.1727 0,-30.0575 0,-60.115 0,-90.1726 0,-30.0577 0,-60.1151 0,-90.1728 0,-30.0575 0,-60.1151 0,-90.1727 -30.0577,0 -60.1152,0 -90.1727,0 0,30.0576 0,60.1152 0,90.1727 0,30.0577 0,60.1151 0,90.1728 0,30.0576 0,60.1151 0,90.1726 0,30.0576 0,60.1152 0,90.1727 0,30.0576 0,60.1151 0,90.1726 30.0575,0 60.115,0 90.1727,0 z" /></g><g
             id="g222"><path
               id="path224"
               style="fill:#000000;fill-opacity:1;fill-rule:nonzero;stroke:none"
               d="m 1553.925,1697.6997 c 30.0575,0 60.115,0 90.1727,0 0,-30.0575 0,-60.115 0,-90.1726 -30.0577,0 -60.1152,0 -90.1727,0 -30.0577,0 -60.1152,0 -90.1727,0 -30.0576,0 -60.1151,0 -90.1727,0 -30.0576,0 -60.1151,0 -90.1727,0 -30.0577,0 -60.1152,0 -90.1728,0 0,30.0576 0,60.1151 0,90.1726 30.0576,0 60.1151,0 90.1728,0 30.0576,0 60.1151,0 90.1727,0 30.0576,0 60.1151,0 90.1727,0 30.0575,0 60.115,0 90.1727,0 z" /></g><g
             id="g226"><path
               id="path228"
               style="fill:#000000;fill-opacity:1;fill-rule:nonzero;stroke:none"
               d="m 1553.925,1337.009 c 30.0575,0 60.115,0 90.1727,0 0,-30.0575 0,-60.1151 0,-90.1727 -30.0577,0 -60.1152,0 -90.1727,0 -30.0577,0 -60.1152,0 -90.1727,0 -30.0576,0 -60.1151,0 -90.1727,0 -30.0576,0 -60.1151,0 -90.1727,0 -30.0577,0 -60.1152,0 -90.1728,0 0,30.0576 0,60.1152 0,90.1727 30.0576,0 60.1151,0 90.1728,0 30.0576,0 60.1151,0 90.1727,0 30.0576,0 60.1151,0 90.1727,0 30.0575,0 60.115,0 90.1727,0 z" /></g><g
             id="g230"><path
               id="path232"
               style="fill:#000000;fill-opacity:1;fill-rule:nonzero;stroke:none"
               d="m 1012.8889,1607.5271 c 0,30.0576 0,60.1151 0,90.1726 30.0575,0 60.115,0 90.1725,0 0,-30.0575 0,-60.115 0,-90.1726 0,-30.0575 0,-60.1151 0,-90.1727 0,-30.0575 0,-60.115 0,-90.1726 0,-30.0577 0,-60.1151 0,-90.1728 0,-30.0575 0,-60.1151 0,-90.1727 -30.0575,0 -60.115,0 -90.1725,0 0,30.0576 0,60.1152 0,90.1727 0,30.0577 0,60.1151 0,90.1728 0,30.0576 0,60.1151 0,90.1726 0,30.0576 0,60.1152 0,90.1727 z" /></g><g
             id="g234"><path
               id="path236"
               style="fill:#000000;fill-opacity:1;fill-rule:nonzero;stroke:none"
               d="m 1373.5796,1156.6637 c 30.0576,0 60.1151,0 90.1727,0 0,-30.0576 0,-60.1152 0,-90.1727 0,-30.0575 0,-60.1151 0,-90.1727 0,-30.05762 0,-60.11511 0,-90.17273 0,-30.05756 0,-60.11505 0,-90.17267 0,-30.05756 0,-60.11517 0,-90.17267 -30.0576,0 -60.1151,0 -90.1727,0 0,30.0575 0,60.11511 0,90.17267 0,30.05762 0,60.11511 0,90.17267 0,30.05762 0,60.11511 0,90.17273 0,30.0576 0,60.1152 0,90.1727 0,30.0575 0,60.1151 0,90.1727 z" /></g><g
             id="g238"><path
               id="path240"
               style="fill:#000000;fill-opacity:1;fill-rule:nonzero;stroke:none"
               d="m 1553.925,1156.6637 c 30.0575,0 60.115,0 90.1727,0 0,-30.0576 0,-60.1152 0,-90.1727 0,-30.0575 0,-60.1151 0,-90.1727 0,-30.05762 0,-60.11511 0,-90.17273 0,-30.05756 0,-60.11505 0,-90.17267 0,-30.05756 0,-60.11517 0,-90.17267 -30.0577,0 -60.1152,0 -90.1727,0 0,30.0575 0,60.11511 0,90.17267 0,30.05762 0,60.11511 0,90.17267 0,30.05762 0,60.11511 0,90.17273 0,30.0576 0,60.1152 0,90.1727 0,30.0575 0,60.1151 0,90.1727 z" /></g><g
             id="g242"><path
               id="path244"
               style="fill:#000000;fill-opacity:1;fill-rule:nonzero;stroke:none"
               d="m 2185.1338,2239.9709 c 0,-30.0578 0,-60.1154 0,-90.1728 -30.0576,0 -60.1152,0 -90.1726,0 -30.0576,0 -60.1151,0 -90.1727,0 -30.0577,0 -60.1153,0 -90.1728,0 -30.0576,0 -60.1151,0 -90.1726,0 -30.0577,0 -60.1152,0 -90.1727,0 0,30.0574 0,60.115 0,90.1728 30.0575,0 60.115,0 90.1727,0 30.0575,0 60.115,0 90.1726,0 30.0575,0 60.1151,0 90.1728,0 30.0576,0 60.1151,0 90.1727,0 30.0574,0 60.115,0 90.1726,0 z" /></g><g
             id="g246"><path
               id="path248"
               style="fill:#000000;fill-opacity:1;fill-rule:nonzero;stroke:none"
               d="m 742.37073,1697.6997 c 0,-30.0575 0,-60.115 0,-90.1726 0,-30.0575 0,-60.1151 0,-90.1727 0,-30.0575 0,-60.115 0,-90.1726 0,-30.0577 0,-60.1151 0,-90.1728 0,-30.0575 0,-60.1151 0,-90.1727 -30.05756,0 -60.11511,0 -90.17273,0 0,30.0576 0,60.1152 0,90.1727 0,30.0577 0,60.1151 0,90.1728 0,30.0576 0,60.1151 0,90.1726 0,30.0576 0,60.1152 0,90.1727 0,30.0576 0,60.1151 0,90.1726 30.05762,0 60.11517,0 90.17273,0 z" /></g><g
             id="g250"><path
               id="path252"
               style="fill:#000000;fill-opacity:1;fill-rule:nonzero;stroke:none"
               d="m 1193.2341,1156.6637 c 30.0576,0 60.1151,0 90.1728,0 0,-30.0576 0,-60.1152 0,-90.1727 0,-30.0575 0,-60.1151 0,-90.1727 0,-30.05762 0,-60.11511 0,-90.17273 0,-30.05756 0,-60.11505 0,-90.17267 0,-30.05756 0,-60.11517 0,-90.17267 -30.0577,0 -60.1152,0 -90.1728,0 0,30.0575 0,60.11511 0,90.17267 0,30.05762 0,60.11511 0,90.17267 0,30.05762 0,60.11511 0,90.17273 0,30.0576 0,60.1152 0,90.1727 0,30.0575 0,60.1151 0,90.1727 z" /></g><g
             id="g254"><path
               id="path256"
               style="fill:#000000;fill-opacity:1;fill-rule:nonzero;stroke:none"
               d="m 1103.0614,1156.6637 c 0,-30.0576 0,-60.1152 0,-90.1727 -30.0575,0 -60.115,0 -90.1725,0 -30.05766,0 -60.11522,0 -90.17284,0 -30.05749,0 -60.11511,0 -90.17266,0 -30.0575,0 -60.11512,0 -90.17267,0 -30.05756,0 -60.11511,0 -90.17273,0 0,30.0575 0,60.1151 0,90.1727 30.05762,0 60.11517,0 90.17273,0 30.05755,0 60.11517,0 90.17267,0 30.05755,0 60.11517,0 90.17266,0 30.05762,0 60.11518,0 90.17284,0 30.0575,0 60.115,0 90.1725,0 z" /></g><g
             id="g258"><path
               id="path260"
               style="fill:#000000;fill-opacity:1;fill-rule:nonzero;stroke:none"
               d="m 1824.4431,614.39276 c 0,-30.05762 0,-60.11517 0,-90.17279 0,-30.05749 0,-60.11508 0,-90.17264 0,-30.05758 0,-60.11514 0,-90.1727 0,-30.05755 0,-60.11511 0,-90.17268 0,-30.05757 0,-60.11514 0,-90.1727 -30.0577,0 -60.1152,0 -90.1727,0 0,30.05756 0,60.11513 0,90.1727 0,30.05757 0,60.11513 0,90.17268 0,30.05756 0,60.11512 0,90.1727 0,30.05756 0,60.11515 0,90.17264 0,30.05762 0,60.11517 0,90.17279 30.0575,0 60.115,0 90.1727,0 z" /></g><g
             id="g262"><path
               id="path264"
               style="fill:#000000;fill-opacity:1;fill-rule:nonzero;stroke:none"
               d="m 1103.0614,795.9729 c 0,-30.05756 0,-60.11517 0,-90.17267 -30.0575,0 -60.115,0 -90.1725,0 -30.05766,0 -60.11522,0 -90.17284,0 -30.05749,0 -60.11511,0 -90.17266,0 -30.0575,0 -60.11512,0 -90.17267,0 -30.05756,0 -60.11511,0 -90.17273,0 0,30.0575 0,60.11511 0,90.17267 30.05762,0 60.11517,0 90.17273,0 30.05755,0 60.11517,0 90.17267,0 30.05755,0 60.11517,0 90.17266,0 30.05762,0 60.11518,0 90.17284,0 30.0575,0 60.115,0 90.1725,0 z" /></g><g
             id="g266"><path
               id="path268"
               style="fill:#000000;fill-opacity:1;fill-rule:nonzero;stroke:none"
               d="m 1553.925,614.39276 c 30.0575,0 60.115,0 90.1727,0 0,-30.05762 0,-60.11517 0,-90.17279 -30.0577,0 -60.1152,0 -90.1727,0 -30.0577,0 -60.1152,0 -90.1727,0 -30.0576,0 -60.1151,0 -90.1727,0 -30.0576,0 -60.1151,0 -90.1727,0 -30.0577,0 -60.1152,0 -90.1728,0 0,30.05762 0,60.11517 0,90.17279 30.0576,0 60.1151,0 90.1728,0 30.0576,0 60.1151,0 90.1727,0 30.0576,0 60.1151,0 90.1727,0 30.0575,0 60.115,0 90.1727,0 z" /></g><g
             id="g270"><path
               id="path272"
               style="fill:#000000;fill-opacity:1;fill-rule:nonzero;stroke:none"
               d="m 2635.9973,253.70195 c 30.0574,0 60.115,0 90.1726,0 0,-30.05757 0,-60.11514 0,-90.1727 -30.0576,0 -60.1152,0 -90.1726,0 -30.0576,0 -60.1152,0 -90.1726,0 -30.0579,0 -60.1152,0 -90.1728,0 -30.0577,0 -60.115,0 -90.1727,0 -30.0576,0 -60.1152,0 -90.1728,0 0,30.05756 0,60.11513 0,90.1727 30.0576,0 60.1152,0 90.1728,0 30.0577,0 60.115,0 90.1727,0 30.0576,0 60.1149,0 90.1728,0 30.0574,0 60.115,0 90.1726,0 z" /></g><g
             id="g274"><path
               id="path276"
               style="fill:#000000;fill-opacity:1;fill-rule:nonzero;stroke:none"
               d="m 2635.9973,1517.3544 c 30.0574,0 60.115,0 90.1726,0 0,-30.0575 0,-60.115 0,-90.1726 -30.0576,0 -60.1152,0 -90.1726,0 -30.0576,0 -60.1152,0 -90.1726,0 -30.0579,0 -60.1152,0 -90.1728,0 -30.0577,0 -60.115,0 -90.1727,0 -30.0576,0 -60.1152,0 -90.1728,0 0,30.0576 0,60.1151 0,90.1726 30.0576,0 60.1152,0 90.1728,0 30.0577,0 60.115,0 90.1727,0 30.0576,0 60.1149,0 90.1728,0 30.0574,0 60.115,0 90.1726,0 z" /></g><g
             id="g278"><path
               id="path280"
               style="fill:#000000;fill-opacity:1;fill-rule:nonzero;stroke:none"
               d="m 2185.1338,1879.28 c 0,-30.0575 0,-60.1152 0,-90.1727 -30.0576,0 -60.1152,0 -90.1726,0 -30.0576,0 -60.1151,0 -90.1727,0 -30.0577,0 -60.1153,0 -90.1728,0 -30.0576,0 -60.1151,0 -90.1726,0 -30.0577,0 -60.1152,0 -90.1727,0 0,30.0575 0,60.1152 0,90.1727 30.0575,0 60.115,0 90.1727,0 30.0575,0 60.115,0 90.1726,0 30.0575,0 60.1151,0 90.1728,0 30.0576,0 60.1151,0 90.1727,0 30.0574,0 60.115,0 90.1726,0 z" /></g><g
             id="g282"><path
               id="path284"
               style="fill:#000000;fill-opacity:1;fill-rule:nonzero;stroke:none"
               d="m 1553.925,253.70195 c 30.0575,0 60.115,0 90.1727,0 0,-30.05757 0,-60.11514 0,-90.1727 -30.0577,0 -60.1152,0 -90.1727,0 -30.0577,0 -60.1152,0 -90.1727,0 -30.0576,0 -60.1151,0 -90.1727,0 -30.0576,0 -60.1151,0 -90.1727,0 -30.0577,0 -60.1152,0 -90.1728,0 0,30.05756 0,60.11513 0,90.1727 30.0576,0 60.1151,0 90.1728,0 30.0576,0 60.1151,0 90.1727,0 30.0576,0 60.1151,0 90.1727,0 30.0575,0 60.115,0 90.1727,0 z" /></g><g
             id="g286"><path
               id="path288"
               style="fill:#000000;fill-opacity:1;fill-rule:nonzero;stroke:none"
               d="m 1553.925,2239.9709 c 30.0575,0 60.115,0 90.1727,0 0,-30.0578 0,-60.1154 0,-90.1728 0,-30.0576 0,-60.115 0,-90.1726 0,-30.0578 0,-60.1152 0,-90.1729 0,-30.0575 0,-60.1151 0,-90.1726 0,-30.0575 0,-60.1152 0,-90.1727 -30.0577,0 -60.1152,0 -90.1727,0 0,30.0575 0,60.1152 0,90.1727 0,30.0575 0,60.1151 0,90.1726 0,30.0577 0,60.1151 0,90.1729 0,30.0576 0,60.115 0,90.1726 0,30.0574 0,60.115 0,90.1728 z" /></g><g
             id="g290"><path
               id="path292"
               style="fill:#000000;fill-opacity:1;fill-rule:nonzero;stroke:none"
               d="m 1012.8889,524.21997 c 0,30.05762 0,60.11517 0,90.17279 30.0575,0 60.115,0 90.1725,0 0,-30.05762 0,-60.11517 0,-90.17279 0,-30.05749 0,-60.11508 0,-90.17264 0,-30.05758 0,-60.11514 0,-90.1727 0,-30.05755 0,-60.11511 0,-90.17268 0,-30.05757 0,-60.11514 0,-90.1727 -30.0575,0 -60.115,0 -90.1725,0 0,30.05756 0,60.11513 0,90.1727 0,30.05757 0,60.11513 0,90.17268 0,30.05756 0,60.11512 0,90.1727 0,30.05756 0,60.11515 0,90.17264 z" /></g><g
             id="g294"><path
               id="path296"
               style="fill:#000000;fill-opacity:1;fill-rule:nonzero;stroke:none"
               d="m 2185.1338,976.3183 c 0,-30.05762 0,-60.11511 0,-90.17273 -30.0576,0 -60.1152,0 -90.1726,0 -30.0576,0 -60.1151,0 -90.1727,0 -30.0577,0 -60.1153,0 -90.1728,0 -30.0576,0 -60.1151,0 -90.1726,0 -30.0577,0 -60.1152,0 -90.1727,0 0,30.05762 0,60.11511 0,90.17273 30.0575,0 60.115,0 90.1727,0 30.0575,0 60.115,0 90.1726,0 30.0575,0 60.1151,0 90.1728,0 30.0576,0 60.1151,0 90.1727,0 30.0574,0 60.115,0 90.1726,0 z" /></g><g
             id="g298"><path
               id="path300"
               style="fill:#000000;fill-opacity:1;fill-rule:nonzero;stroke:none"
               d="m 742.37073,614.39276 c 0,-30.05762 0,-60.11517 0,-90.17279 0,-30.05749 0,-60.11508 0,-90.17264 0,-30.05758 0,-60.11514 0,-90.1727 0,-30.05755 0,-60.11511 0,-90.17268 0,-30.05757 0,-60.11514 0,-90.1727 -30.05756,0 -60.11511,0 -90.17273,0 0,30.05756 0,60.11513 0,90.1727 0,30.05757 0,60.11513 0,90.17268 0,30.05756 0,60.11512 0,90.1727 0,30.05756 0,60.11515 0,90.17264 0,30.05762 0,60.11517 0,90.17279 30.05762,0 60.11517,0 90.17273,0 z" /></g><g
             id="g302"><path
               id="path304"
               style="fill:#000000;fill-opacity:1;fill-rule:nonzero;stroke:none"
               d="m 1103.0614,2059.6255 c 0,-30.0578 0,-60.1152 0,-90.1729 -30.0575,0 -60.115,0 -90.1725,0 -30.05766,0 -60.11522,0 -90.17284,0 -30.05749,0 -60.11511,0 -90.17266,0 -30.0575,0 -60.11512,0 -90.17267,0 -30.05756,0 -60.11511,0 -90.17273,0 0,30.0577 0,60.1151 0,90.1729 30.05762,0 60.11517,0 90.17273,0 30.05755,0 60.11517,0 90.17267,0 30.05755,0 60.11517,0 90.17266,0 30.05762,0 60.11518,0 90.17284,0 30.0575,0 60.115,0 90.1725,0 z" /></g><g
             id="g306"><path
               id="path308"
               style="fill:#000000;fill-opacity:1;fill-rule:nonzero;stroke:none"
               d="m 2635.9973,434.04733 c 30.0574,0 60.115,0 90.1726,0 0,-30.05758 0,-60.11514 0,-90.1727 -30.0576,0 -60.1152,0 -90.1726,0 -30.0576,0 -60.1152,0 -90.1726,0 -30.0579,0 -60.1152,0 -90.1728,0 -30.0577,0 -60.115,0 -90.1727,0 -30.0576,0 -60.1152,0 -90.1728,0 0,30.05756 0,60.11512 0,90.1727 30.0576,0 60.1152,0 90.1728,0 30.0577,0 60.115,0 90.1727,0 30.0576,0 60.1149,0 90.1728,0 30.0574,0 60.115,0 90.1726,0 z" /></g></g></g></g></g></svg>