<?xml version="1.0" encoding="UTF-8" standalone="no"?>
<svg
   xmlns:dc="http://purl.org/dc/elements/1.1/"
   xmlns:cc="http://creativecommons.org/ns#"
   xmlns:rdf="http://www.w3.org/1999/02/22-rdf-syntax-ns#"
   xmlns:svg="http://www.w3.org/2000/svg"
   xmlns="http://www.w3.org/2000/svg"
   viewBox="0 0 4493.7603 3178.5598"
   height="3178.5598"
   width="4493.7603"
   xml:space="preserve"
   id="svg2"
   version="1.1"><metadata
     id="metadata8"><rdf:RDF><cc:Work
         rdf:about=""><dc:format>image/svg+xml</dc:format><dc:type
           rdf:resource="http://purl.org/dc/dcmitype/StillImage" /></cc:Work></rdf:RDF></metadata><defs
     id="defs6"><clipPath
       id="clipPath20"
       clipPathUnits="userSpaceOnUse"><path
         id="path18"
         d="M 0,0 V 2383.9199 H 3370.3201 V 0 Z" /></clipPath></defs><g
     transform="matrix(1.3333333,0,0,-1.3333333,0,3178.5599)"
     id="g10"><g
       transform="matrix(1,0,0,-1,0,2383.9199)"
       id="g12"><g
         id="g14"><g
           clip-path="url(#clipPath20)"
           id="g16"><path
             id="path22"
             style="fill:none;stroke:#000000;stroke-width:0.23999999;stroke-linecap:round;stroke-linejoin:round;stroke-miterlimit:10;stroke-dasharray:none;stroke-opacity:1"
             d="m 1626.8217,1671.8678 v -112.6335 h -112.6336 -112.6335 -112.6337 -112.6334 -112.6337 v 112.6335 h 112.6337 112.6334 112.6337 112.6335 z" /><path
             id="path24"
             style="fill:none;stroke:#000000;stroke-width:0.23999999;stroke-linecap:round;stroke-linejoin:round;stroke-miterlimit:10;stroke-dasharray:none;stroke-opacity:1"
             d="m 2753.157,1446.6007 h 112.6335 112.6336 112.6335 112.6338 V 1333.9673 H 3091.0576 2978.4241 2865.7905 2753.157 Z" /><path
             id="path26"
             style="fill:none;stroke:#000000;stroke-width:0.23999999;stroke-linecap:round;stroke-linejoin:round;stroke-miterlimit:10;stroke-dasharray:none;stroke-opacity:1"
             d="m 1964.7223,1221.3336 v -112.6334 h -112.6337 v 112.6334 112.6337 112.6334 112.6336 112.6335 h 112.6337 v -112.6335 -112.6336 -112.6334 z" /><path
             id="path28"
             style="fill:none;stroke:#000000;stroke-width:0.23999999;stroke-linecap:round;stroke-linejoin:round;stroke-miterlimit:10;stroke-dasharray:none;stroke-opacity:1"
             d="M 500.48621,1671.8678 H 613.11975 V 1559.2343 1446.6007 1333.9673 1221.3336 H 500.48621 v 112.6337 112.6334 112.6336 z" /><path
             id="path30"
             style="fill:none;stroke:#000000;stroke-width:0.23999999;stroke-linecap:round;stroke-linejoin:round;stroke-miterlimit:10;stroke-dasharray:none;stroke-opacity:1"
             d="m 1626.8217,1221.3336 v -112.6334 h -112.6336 -112.6335 -112.6337 -112.6334 -112.6337 v 112.6334 h 112.6337 112.6334 112.6337 112.6335 z" /><path
             id="path32"
             style="fill:none;stroke:#000000;stroke-width:0.23999999;stroke-linecap:round;stroke-linejoin:round;stroke-miterlimit:10;stroke-dasharray:none;stroke-opacity:1"
             d="M 3203.6914,1221.3336 V 1108.7002 H 3091.0576 2978.4241 2865.7905 2753.157 2640.5237 v 112.6334 h 112.6333 112.6335 112.6336 112.6335 z" /><path
             id="path34"
             style="fill:none;stroke:#000000;stroke-width:0.23999999;stroke-linecap:round;stroke-linejoin:round;stroke-miterlimit:10;stroke-dasharray:none;stroke-opacity:1"
             d="m 3091.0576,1671.8678 h 112.6338 V 1559.2343 H 3091.0576 2978.4241 2865.7905 2753.157 2640.5237 v 112.6335 h 112.6333 112.6335 112.6336 z" /><path
             id="path36"
             style="fill:none;stroke:#000000;stroke-width:0.23999999;stroke-linecap:round;stroke-linejoin:round;stroke-miterlimit:10;stroke-dasharray:none;stroke-opacity:1"
             d="m 1514.1881,1446.6007 v -112.6334 h -112.6335 -112.6337 -112.6334 -112.6337 v 112.6334 h 112.6337 112.6334 112.6337 z" /><path
             id="path38"
             style="fill:none;stroke:#000000;stroke-width:0.23999999;stroke-linecap:round;stroke-linejoin:round;stroke-miterlimit:10;stroke-dasharray:none;stroke-opacity:1"
             d="M 275.21909,1671.8678 H 387.85266 V 1559.2343 1446.6007 1333.9673 1221.3336 1108.7002 H 275.21909 v 112.6334 112.6337 112.6334 112.6336 z" /><path
             id="path40"
             style="fill:none;stroke:#000000;stroke-width:0.23999999;stroke-linecap:round;stroke-linejoin:round;stroke-miterlimit:10;stroke-dasharray:none;stroke-opacity:1"
             d="m 2077.356,1559.2343 h 112.6335 V 1446.6007 1333.9673 1221.3336 1108.7002 H 2077.356 v 112.6334 112.6337 112.6334 z" /><path
             id="path42"
             style="fill:none;stroke:#000000;stroke-width:0.23999999;stroke-linecap:round;stroke-linejoin:round;stroke-miterlimit:10;stroke-dasharray:none;stroke-opacity:1"
             d="m 2415.2563,1221.3336 v -112.6334 h -112.6335 v 112.6334 112.6337 112.6334 112.6336 112.6335 h 112.6335 v -112.6335 -112.6336 -112.6334 z" /><path
             id="path44"
             style="fill:none;stroke:#000000;stroke-width:0.23999999;stroke-linecap:round;stroke-linejoin:round;stroke-miterlimit:10;stroke-dasharray:none;stroke-opacity:1"
             d="M 725.75323,1671.8678 H 838.38678 V 1559.2343 1446.6007 1333.9673 1221.3336 1108.7002 H 725.75323 v 112.6334 112.6337 112.6334 112.6336 z" /><g
             id="g46"><path
               id="path48"
               style="fill:#000000;fill-opacity:1;fill-rule:nonzero;stroke:none"
               d="m 2753.157,1446.6007 c 37.5444,0 75.0891,0 112.6335,0 37.5445,0 75.0891,0 112.6336,0 37.5447,0 75.0891,0 112.6335,0 37.5447,0 75.0891,0 112.6338,0 0,-37.5445 0,-75.089 0,-112.6334 -37.5447,0 -75.0891,0 -112.6338,0 -37.5444,0 -75.0888,0 -112.6335,0 -37.5445,0 -75.0891,0 -112.6336,0 -37.5444,0 -75.0891,0 -112.6335,0 0,37.5444 0,75.0889 0,112.6334 z" /></g><g
             id="g50"><path
               id="path52"
               style="fill:#000000;fill-opacity:1;fill-rule:nonzero;stroke:none"
               d="m 3203.6914,1221.3336 c 0,-37.5445 0,-75.089 0,-112.6334 -37.5447,0 -75.0891,0 -112.6338,0 -37.5444,0 -75.0888,0 -112.6335,0 -37.5445,0 -75.0891,0 -112.6336,0 -37.5444,0 -75.0891,0 -112.6335,0 -37.5447,0 -75.0889,0 -112.6333,0 0,37.5444 0,75.0889 0,112.6334 37.5444,0 75.0886,0 112.6333,0 37.5444,0 75.0891,0 112.6335,0 37.5445,0 75.0891,0 112.6336,0 37.5447,0 75.0891,0 112.6335,0 37.5447,0 75.0891,0 112.6338,0 z" /></g><g
             id="g54"><path
               id="path56"
               style="fill:#000000;fill-opacity:1;fill-rule:nonzero;stroke:none"
               d="m 2077.356,1559.2343 c 37.5444,0 75.0888,0 112.6335,0 0,-37.5445 0,-75.089 0,-112.6336 0,-37.5445 0,-75.089 0,-112.6334 0,-37.5446 0,-75.0891 0,-112.6337 0,-37.5445 0,-75.089 0,-112.6334 -37.5447,0 -75.0891,0 -112.6335,0 0,37.5444 0,75.0889 0,112.6334 0,37.5446 0,75.0891 0,112.6337 0,37.5444 0,75.0889 0,112.6334 0,37.5446 0,75.0891 0,112.6336 z" /></g><g
             id="g58"><path
               id="path60"
               style="fill:#000000;fill-opacity:1;fill-rule:nonzero;stroke:none"
               d="m 1964.7223,1221.3336 c 0,-37.5445 0,-75.089 0,-112.6334 -37.5446,0 -75.0891,0 -112.6337,0 0,37.5444 0,75.0889 0,112.6334 0,37.5446 0,75.0891 0,112.6337 0,37.5444 0,75.0889 0,112.6334 0,37.5446 0,75.0891 0,112.6336 0,37.5445 0,75.0891 0,112.6335 37.5446,0 75.0891,0 112.6337,0 0,-37.5444 0,-75.089 0,-112.6335 0,-37.5445 0,-75.089 0,-112.6336 0,-37.5445 0,-75.089 0,-112.6334 0,-37.5446 0,-75.0891 0,-112.6337 z" /></g><g
             id="g62"><path
               id="path64"
               style="fill:#000000;fill-opacity:1;fill-rule:nonzero;stroke:none"
               d="m 1626.8217,1671.8678 c 0,-37.5444 0,-75.089 0,-112.6335 -37.5446,0 -75.0892,0 -112.6336,0 -37.5445,0 -75.089,0 -112.6335,0 -37.5446,0 -75.0891,0 -112.6337,0 -37.5444,0 -75.0889,0 -112.6334,0 -37.5446,0 -75.0891,0 -112.6337,0 0,37.5445 0,75.0891 0,112.6335 37.5446,0 75.0891,0 112.6337,0 37.5445,0 75.089,0 112.6334,0 37.5446,0 75.0891,0 112.6337,0 37.5445,0 75.089,0 112.6335,0 37.5444,0 75.089,0 112.6336,0 z" /></g><g
             id="g66"><path
               id="path68"
               style="fill:#000000;fill-opacity:1;fill-rule:nonzero;stroke:none"
               d="m 1514.1881,1446.6007 c 0,-37.5445 0,-75.089 0,-112.6334 -37.5445,0 -75.089,0 -112.6335,0 -37.5446,0 -75.0891,0 -112.6337,0 -37.5444,0 -75.0889,0 -112.6334,0 -37.5446,0 -75.0891,0 -112.6337,0 0,37.5444 0,75.0889 0,112.6334 37.5446,0 75.0891,0 112.6337,0 37.5445,0 75.089,0 112.6334,0 37.5446,0 75.0891,0 112.6337,0 37.5445,0 75.089,0 112.6335,0 z" /></g><g
             id="g70"><path
               id="path72"
               style="fill:#000000;fill-opacity:1;fill-rule:nonzero;stroke:none"
               d="m 725.75323,1671.8678 c 37.54456,0 75.08912,0 112.63355,0 0,-37.5444 0,-75.089 0,-112.6335 0,-37.5445 0,-75.089 0,-112.6336 0,-37.5445 0,-75.089 0,-112.6334 0,-37.5446 0,-75.0891 0,-112.6337 0,-37.5445 0,-75.089 0,-112.6334 -37.54443,0 -75.08899,0 -112.63355,0 0,37.5444 0,75.0889 0,112.6334 0,37.5446 0,75.0891 0,112.6337 0,37.5444 0,75.0889 0,112.6334 0,37.5446 0,75.0891 0,112.6336 0,37.5445 0,75.0891 0,112.6335 z" /></g><g
             id="g74"><path
               id="path76"
               style="fill:#000000;fill-opacity:1;fill-rule:nonzero;stroke:none"
               d="m 500.48621,1671.8678 c 37.54449,0 75.08899,0 112.63354,0 0,-37.5444 0,-75.089 0,-112.6335 0,-37.5445 0,-75.089 0,-112.6336 0,-37.5445 0,-75.089 0,-112.6334 0,-37.5446 0,-75.0891 0,-112.6337 -37.54455,0 -75.08905,0 -112.63354,0 0,37.5446 0,75.0891 0,112.6337 0,37.5444 0,75.0889 0,112.6334 0,37.5446 0,75.0891 0,112.6336 0,37.5445 0,75.0891 0,112.6335 z" /></g><g
             id="g78"><path
               id="path80"
               style="fill:#000000;fill-opacity:1;fill-rule:nonzero;stroke:none"
               d="m 275.21909,1671.8678 c 37.54452,0 75.08905,0 112.63357,0 0,-37.5444 0,-75.089 0,-112.6335 0,-37.5445 0,-75.089 0,-112.6336 0,-37.5445 0,-75.089 0,-112.6334 0,-37.5446 0,-75.0891 0,-112.6337 0,-37.5445 0,-75.089 0,-112.6334 -37.54452,0 -75.08905,0 -112.63357,0 0,37.5444 0,75.0889 0,112.6334 0,37.5446 0,75.0891 0,112.6337 0,37.5444 0,75.0889 0,112.6334 0,37.5446 0,75.0891 0,112.6336 0,37.5445 0,75.0891 0,112.6335 z" /></g><g
             id="g82"><path
               id="path84"
               style="fill:#000000;fill-opacity:1;fill-rule:nonzero;stroke:none"
               d="m 1626.8217,1221.3336 c 0,-37.5445 0,-75.089 0,-112.6334 -37.5446,0 -75.0892,0 -112.6336,0 -37.5445,0 -75.089,0 -112.6335,0 -37.5446,0 -75.0891,0 -112.6337,0 -37.5444,0 -75.0889,0 -112.6334,0 -37.5446,0 -75.0891,0 -112.6337,0 0,37.5444 0,75.0889 0,112.6334 37.5446,0 75.0891,0 112.6337,0 37.5445,0 75.089,0 112.6334,0 37.5446,0 75.0891,0 112.6337,0 37.5445,0 75.089,0 112.6335,0 37.5444,0 75.089,0 112.6336,0 z" /></g><g
             id="g86"><path
               id="path88"
               style="fill:#000000;fill-opacity:1;fill-rule:nonzero;stroke:none"
               d="m 2415.2563,1221.3336 c 0,-37.5445 0,-75.089 0,-112.6334 -37.5444,0 -75.0891,0 -112.6335,0 0,37.5444 0,75.0889 0,112.6334 0,37.5446 0,75.0891 0,112.6337 0,37.5444 0,75.0889 0,112.6334 0,37.5446 0,75.0891 0,112.6336 0,37.5445 0,75.0891 0,112.6335 37.5444,0 75.0891,0 112.6335,0 0,-37.5444 0,-75.089 0,-112.6335 0,-37.5445 0,-75.089 0,-112.6336 0,-37.5445 0,-75.089 0,-112.6334 0,-37.5446 0,-75.0891 0,-112.6337 z" /></g><g
             id="g90"><path
               id="path92"
               style="fill:#000000;fill-opacity:1;fill-rule:nonzero;stroke:none"
               d="m 3091.0576,1671.8678 c 37.5447,0 75.0891,0 112.6338,0 0,-37.5444 0,-75.089 0,-112.6335 -37.5447,0 -75.0891,0 -112.6338,0 -37.5444,0 -75.0888,0 -112.6335,0 -37.5445,0 -75.0891,0 -112.6336,0 -37.5444,0 -75.0891,0 -112.6335,0 -37.5447,0 -75.0889,0 -112.6333,0 0,37.5445 0,75.0891 0,112.6335 37.5444,0 75.0886,0 112.6333,0 37.5444,0 75.0891,0 112.6335,0 37.5445,0 75.0891,0 112.6336,0 37.5447,0 75.0891,0 112.6335,0 z" /></g></g></g></g></g></svg>