<?xml version="1.0" encoding="UTF-8" standalone="no"?>
<svg
   xmlns:dc="http://purl.org/dc/elements/1.1/"
   xmlns:cc="http://creativecommons.org/ns#"
   xmlns:rdf="http://www.w3.org/1999/02/22-rdf-syntax-ns#"
   xmlns:svg="http://www.w3.org/2000/svg"
   xmlns="http://www.w3.org/2000/svg"
   viewBox="0 0 4493.7603 3178.5598"
   height="3178.5598"
   width="4493.7603"
   xml:space="preserve"
   id="svg2"
   version="1.1"><metadata
     id="metadata8"><rdf:RDF><cc:Work
         rdf:about=""><dc:format>image/svg+xml</dc:format><dc:type
           rdf:resource="http://purl.org/dc/dcmitype/StillImage" /></cc:Work></rdf:RDF></metadata><defs
     id="defs6"><clipPath
       id="clipPath20"
       clipPathUnits="userSpaceOnUse"><path
         id="path18"
         d="M 0,0 V 2383.9199 H 3370.3201 V 0 Z" /></clipPath></defs><g
     transform="matrix(1.3333333,0,0,-1.3333333,0,3178.5599)"
     id="g10"><g
       transform="matrix(1,0,0,-1,0,2383.9199)"
       id="g12"><g
         id="g14"><g
           clip-path="url(#clipPath20)"
           id="g16"><path
             id="path22"
             style="fill:none;stroke:#000000;stroke-width:0.23999999;stroke-linecap:round;stroke-linejoin:round;stroke-miterlimit:10;stroke-dasharray:none;stroke-opacity:1"
             d="m 1770.2435,2121.9585 v -163.5592 h -163.5594 -163.5595 v -163.5595 -163.5593 -163.5593 -163.5595 h -163.5592 v 163.5595 163.5593 163.5593 163.5595 163.5592 h 163.5592 163.5595 z" /><path
             id="path24"
             style="fill:none;stroke:#000000;stroke-width:0.23999999;stroke-linecap:round;stroke-linejoin:round;stroke-miterlimit:10;stroke-dasharray:none;stroke-opacity:1"
             d="M 625.32782,2121.9585 H 788.88715 V 1958.3993 1794.8398 H 952.44653 1116.006 V 1631.2805 1467.7212 1304.1617 H 952.44653 788.88715 625.32782 v 163.5595 163.5593 163.5593 163.5595 z" /><path
             id="path26"
             style="fill:none;stroke:#000000;stroke-width:0.23999999;stroke-linecap:round;stroke-linejoin:round;stroke-miterlimit:10;stroke-dasharray:none;stroke-opacity:1"
             d="M 2260.9216,813.48358 V 649.92413 H 2097.3623 1933.803 1770.2435 1606.6841 v 163.55945 h 163.5594 163.5595 163.5593 z" /><path
             id="path28"
             style="fill:none;stroke:#000000;stroke-width:0.23999999;stroke-linecap:round;stroke-linejoin:round;stroke-miterlimit:10;stroke-dasharray:none;stroke-opacity:1"
             d="m 1279.5654,486.36478 v 163.55935 163.55945 163.55933 163.55939 h 163.5592 V 977.04291 813.48358 649.92413 486.36478 322.80539 h -163.5592 z" /><path
             id="path30"
             style="fill:none;stroke:#000000;stroke-width:0.23999999;stroke-linecap:round;stroke-linejoin:round;stroke-miterlimit:10;stroke-dasharray:none;stroke-opacity:1"
             d="m 2260.9216,486.36478 h 163.5596 V 322.80539 H 2260.9216 2097.3623 1933.803 1770.2435 1606.6841 v 163.55939 h 163.5594 163.5595 163.5593 z" /><path
             id="path32"
             style="fill:none;stroke:#000000;stroke-width:0.23999999;stroke-linecap:round;stroke-linejoin:round;stroke-miterlimit:10;stroke-dasharray:none;stroke-opacity:1"
             d="m 2260.9216,1140.6023 h 163.5596 V 977.04291 H 2260.9216 2097.3623 1933.803 1770.2435 1606.6841 v 163.55939 h 163.5594 163.5595 163.5593 z" /><path
             id="path34"
             style="fill:none;stroke:#000000;stroke-width:0.23999999;stroke-linecap:round;stroke-linejoin:round;stroke-miterlimit:10;stroke-dasharray:none;stroke-opacity:1"
             d="M 788.88715,649.92413 V 486.36478 322.80539 H 625.32782 V 486.36478 649.92413 813.48358 977.04291 1140.6023 H 788.88715 V 977.04291 813.48358 Z" /><path
             id="path36"
             style="fill:none;stroke:#000000;stroke-width:0.23999999;stroke-linecap:round;stroke-linejoin:round;stroke-miterlimit:10;stroke-dasharray:none;stroke-opacity:1"
             d="M 1116.006,649.92413 V 486.36478 H 952.44653 V 649.92413 813.48358 977.04291 1140.6023 H 1116.006 V 977.04291 813.48358 Z" /><path
             id="path38"
             style="fill:none;stroke:#000000;stroke-width:0.23999999;stroke-linecap:round;stroke-linejoin:round;stroke-miterlimit:10;stroke-dasharray:none;stroke-opacity:1"
             d="m 2424.4812,1467.7212 v -163.5595 h -163.5596 v 163.5595 163.5593 163.5593 163.5595 H 2097.3623 V 1794.8398 1631.2805 1467.7212 1304.1617 H 1933.803 v 163.5595 163.5593 163.5593 163.5595 163.5592 h 163.5593 163.5593 163.5596 v -163.5592 -163.5595 -163.5593 z" /><path
             id="path40"
             style="fill:none;stroke:#000000;stroke-width:0.23999999;stroke-linecap:round;stroke-linejoin:round;stroke-miterlimit:10;stroke-dasharray:none;stroke-opacity:1"
             d="m 788.88715,1631.2805 v -163.5593 h 163.55938 v 163.5593 z" /><g
             id="g42"><path
               id="path44"
               style="fill:#000000;fill-opacity:1;fill-rule:nonzero;stroke:none"
               d="m 2260.9216,1140.6023 c 54.5198,0 109.0398,0 163.5596,0 0,-54.5198 0,-109.0396 0,-163.55939 -54.5198,0 -109.0398,0 -163.5596,0 -54.5197,0 -109.0395,0 -163.5593,0 -54.5198,0 -109.0397,0 -163.5593,0 -54.5199,0 -109.0397,0 -163.5595,0 -54.5199,0 -109.0395,0 -163.5594,0 0,54.51979 0,109.03959 0,163.55939 54.5199,0 109.0395,0 163.5594,0 54.5198,0 109.0396,0 163.5595,0 54.5196,0 109.0395,0 163.5593,0 54.5198,0 109.0396,0 163.5593,0 z" /></g><g
             id="g46"><path
               id="path48"
               style="fill:#000000;fill-opacity:1;fill-rule:nonzero;stroke:none"
               d="m 2260.9216,486.36478 c 54.5198,0 109.0398,0 163.5596,0 0,-54.51981 0,-109.03962 0,-163.55939 -54.5198,0 -109.0398,0 -163.5596,0 -54.5197,0 -109.0395,0 -163.5593,0 -54.5198,0 -109.0397,0 -163.5593,0 -54.5199,0 -109.0397,0 -163.5595,0 -54.5199,0 -109.0395,0 -163.5594,0 0,54.51977 0,109.03958 0,163.55939 54.5199,0 109.0395,0 163.5594,0 54.5198,0 109.0396,0 163.5595,0 54.5196,0 109.0395,0 163.5593,0 54.5198,0 109.0396,0 163.5593,0 z" /></g><g
             id="g50"><path
               id="path52"
               style="fill:#000000;fill-opacity:1;fill-rule:nonzero;stroke:none"
               d="m 1770.2435,2121.9585 c 0,-54.5195 0,-109.0393 0,-163.5592 -54.5199,0 -109.0395,0 -163.5594,0 -54.5197,0 -109.0396,0 -163.5595,0 0,-54.5199 0,-109.0396 0,-163.5595 0,-54.5196 0,-109.0395 0,-163.5593 0,-54.5198 0,-109.0397 0,-163.5593 0,-54.5199 0,-109.0397 0,-163.5595 -54.5196,0 -109.0395,0 -163.5592,0 0,54.5198 0,109.0396 0,163.5595 0,54.5196 0,109.0395 0,163.5593 0,54.5198 0,109.0397 0,163.5593 0,54.5199 0,109.0396 0,163.5595 0,54.5199 0,109.0397 0,163.5592 54.5197,0 109.0396,0 163.5592,0 54.5199,0 109.0398,0 163.5595,0 54.5199,0 109.0395,0 163.5594,0 z" /></g><g
             id="g54"><path
               id="path56"
               style="fill:#000000;fill-opacity:1;fill-rule:nonzero;stroke:none"
               d="m 2260.9216,813.48358 c 0,-54.51983 0,-109.03961 0,-163.55945 -54.5197,0 -109.0395,0 -163.5593,0 -54.5198,0 -109.0397,0 -163.5593,0 -54.5199,0 -109.0397,0 -163.5595,0 -54.5199,0 -109.0395,0 -163.5594,0 0,54.51984 0,109.03962 0,163.55945 54.5199,0 109.0395,0 163.5594,0 54.5198,0 109.0396,0 163.5595,0 54.5196,0 109.0395,0 163.5593,0 54.5198,0 109.0396,0 163.5593,0 z" /></g><g
             id="g58"><path
               id="path60"
               style="fill:#000000;fill-opacity:1;fill-rule:nonzero;stroke:none"
               d="m 1116.006,649.92413 c 0,-54.51977 0,-109.03955 0,-163.55935 -54.5199,0 -109.0396,0 -163.55947,0 0,54.5198 0,109.03958 0,163.55935 0,54.51984 0,109.03962 0,163.55945 0,54.51978 0,109.03955 0,163.55933 0,54.51979 0,109.03959 0,163.55939 54.51987,0 109.03957,0 163.55947,0 0,-54.5198 0,-109.0396 0,-163.55939 0,-54.51978 0,-109.03955 0,-163.55933 0,-54.51983 0,-109.03961 0,-163.55945 z" /></g><g
             id="g62"><path
               id="path64"
               style="fill:#000000;fill-opacity:1;fill-rule:nonzero;stroke:none"
               d="m 2424.4812,1467.7212 c 0,-54.5199 0,-109.0397 0,-163.5595 -54.5198,0 -109.0398,0 -163.5596,0 0,54.5198 0,109.0396 0,163.5595 0,54.5196 0,109.0395 0,163.5593 0,54.5198 0,109.0397 0,163.5593 0,54.5199 0,109.0396 0,163.5595 -54.5197,0 -109.0395,0 -163.5593,0 0,-54.5199 0,-109.0396 0,-163.5595 0,-54.5196 0,-109.0395 0,-163.5593 0,-54.5198 0,-109.0397 0,-163.5593 0,-54.5199 0,-109.0397 0,-163.5595 -54.5198,0 -109.0397,0 -163.5593,0 0,54.5198 0,109.0396 0,163.5595 0,54.5196 0,109.0395 0,163.5593 0,54.5198 0,109.0397 0,163.5593 0,54.5199 0,109.0396 0,163.5595 0,54.5199 0,109.0397 0,163.5592 54.5196,0 109.0395,0 163.5593,0 54.5198,0 109.0396,0 163.5593,0 54.5198,0 109.0398,0 163.5596,0 0,-54.5195 0,-109.0393 0,-163.5592 0,-54.5199 0,-109.0396 0,-163.5595 0,-54.5196 0,-109.0395 0,-163.5593 0,-54.5198 0,-109.0397 0,-163.5593 z" /></g><g
             id="g66"><path
               id="path68"
               style="fill:#000000;fill-opacity:1;fill-rule:nonzero;stroke:none"
               d="m 788.88715,649.92413 c 0,-54.51977 0,-109.03955 0,-163.55935 0,-54.51981 0,-109.03962 0,-163.55939 -54.51978,0 -109.03955,0 -163.55933,0 0,54.51977 0,109.03958 0,163.55939 0,54.5198 0,109.03958 0,163.55935 0,54.51984 0,109.03962 0,163.55945 0,54.51978 0,109.03955 0,163.55933 0,54.51979 0,109.03959 0,163.55939 54.51978,0 109.03955,0 163.55933,0 0,-54.5198 0,-109.0396 0,-163.55939 0,-54.51978 0,-109.03955 0,-163.55933 0,-54.51983 0,-109.03961 0,-163.55945 z" /></g><g
             id="g70"><path
               id="path72"
               style="fill:#000000;fill-opacity:1;fill-rule:nonzero;stroke:none"
               d="m 1279.5654,486.36478 c 0,54.5198 0,109.03958 0,163.55935 0,54.51984 0,109.03962 0,163.55945 0,54.51978 0,109.03955 0,163.55933 0,54.51979 0,109.03959 0,163.55939 54.5197,0 109.0396,0 163.5592,0 0,-54.5198 0,-109.0396 0,-163.55939 0,-54.51978 0,-109.03955 0,-163.55933 0,-54.51983 0,-109.03961 0,-163.55945 0,-54.51977 0,-109.03955 0,-163.55935 0,-54.51981 0,-109.03962 0,-163.55939 -54.5196,0 -109.0395,0 -163.5592,0 0,54.51977 0,109.03958 0,163.55939 z" /></g><g
             id="g74"><path
               id="path76"
               style="fill:#000000;fill-opacity:1;fill-rule:nonzero;stroke:none"
               d="m 625.32782,2121.9585 c 54.51978,0 109.03955,0 163.55933,0 0,-54.5195 0,-109.0393 0,-163.5592 0,-54.5199 0,-109.0396 0,-163.5595 54.51977,0 109.03961,0 163.55938,0 54.51987,0 109.03957,0 163.55947,0 0,-54.5196 0,-109.0395 0,-163.5593 0,-54.5198 0,-109.0397 0,-163.5593 0,-54.5199 0,-109.0397 0,-163.5595 -54.5199,0 -109.0396,0 -163.55947,0 -54.51977,0 -109.03961,0 -163.55938,0 -54.51978,0 -109.03955,0 -163.55933,0 0,54.5198 0,109.0396 0,163.5595 0,54.5196 0,109.0395 0,163.5593 0,54.5198 0,109.0397 0,163.5593 0,54.5199 0,109.0396 0,163.5595 0,54.5199 0,109.0397 0,163.5592 z m 163.55933,-490.678 c 0,-54.5198 0,-109.0397 0,-163.5593 54.51977,0 109.03961,0 163.55938,0 0,54.5196 0,109.0395 0,163.5593 -54.51977,0 -109.03961,0 -163.55938,0 z" /></g></g></g></g></g></svg>