<?xml version="1.0" encoding="UTF-8" standalone="no"?>
<svg
   xmlns:dc="http://purl.org/dc/elements/1.1/"
   xmlns:cc="http://creativecommons.org/ns#"
   xmlns:rdf="http://www.w3.org/1999/02/22-rdf-syntax-ns#"
   xmlns:svg="http://www.w3.org/2000/svg"
   xmlns="http://www.w3.org/2000/svg"
   viewBox="0 0 4493.7603 3178.5598"
   height="3178.5598"
   width="4493.7603"
   xml:space="preserve"
   id="svg2"
   version="1.1"><metadata
     id="metadata8"><rdf:RDF><cc:Work
         rdf:about=""><dc:format>image/svg+xml</dc:format><dc:type
           rdf:resource="http://purl.org/dc/dcmitype/StillImage" /></cc:Work></rdf:RDF></metadata><defs
     id="defs6"><clipPath
       id="clipPath20"
       clipPathUnits="userSpaceOnUse"><path
         id="path18"
         d="M 0,0 V 2383.9199 H 3370.3201 V 0 Z" /></clipPath></defs><g
     transform="matrix(1.3333333,0,0,-1.3333333,0,3178.5599)"
     id="g10"><g
       transform="matrix(1,0,0,-1,0,2383.9199)"
       id="g12"><g
         id="g14"><g
           clip-path="url(#clipPath20)"
           id="g16"><path
             id="path22"
             style="fill:none;stroke:#000000;stroke-width:0.23999999;stroke-linecap:round;stroke-linejoin:round;stroke-miterlimit:10;stroke-dasharray:none;stroke-opacity:1"
             d="m 2512.417,2289.6113 h 95.2739 v -95.2739 -95.2739 -95.2739 -95.2739 -95.2739 h -95.2739 v 95.2739 95.2739 95.2739 95.2739 z" /><path
             id="path24"
             style="fill:none;stroke:#000000;stroke-width:0.23999999;stroke-linecap:round;stroke-linejoin:round;stroke-miterlimit:10;stroke-dasharray:none;stroke-opacity:1"
             d="m 2036.0477,1716.6633 v -95.2739 -95.2739 -95.2738 -95.274 -95.2739 h -95.2739 v 95.2739 95.274 95.2738 95.2739 95.2739 z" /><path
             id="path26"
             style="fill:none;stroke:#000000;stroke-width:0.23999999;stroke-linecap:round;stroke-linejoin:round;stroke-miterlimit:10;stroke-dasharray:none;stroke-opacity:1"
             d="m 2702.9648,2289.6113 h 95.274 v -95.2739 -95.2739 -95.2739 -95.2739 -95.2739 h -95.274 v 95.2739 95.2739 95.2739 95.2739 z" /><path
             id="path28"
             style="fill:none;stroke:#000000;stroke-width:0.23999999;stroke-linecap:round;stroke-linejoin:round;stroke-miterlimit:10;stroke-dasharray:none;stroke-opacity:1"
             d="m 2321.8694,2289.6113 h 95.2739 v -95.2739 -95.2739 -95.2739 -95.2739 -95.2739 h -95.2739 v 95.2739 95.2739 95.2739 95.2739 z" /><path
             id="path30"
             style="fill:none;stroke:#000000;stroke-width:0.23999999;stroke-linecap:round;stroke-linejoin:round;stroke-miterlimit:10;stroke-dasharray:none;stroke-opacity:1"
             d="m 2226.5955,2289.6113 v -95.2739 h -95.274 -95.2738 -95.2739 -95.2739 -95.2738 v 95.2739 h 95.2738 95.2739 95.2739 95.2738 z" /><path
             id="path32"
             style="fill:none;stroke:#000000;stroke-width:0.23999999;stroke-linecap:round;stroke-linejoin:round;stroke-miterlimit:10;stroke-dasharray:none;stroke-opacity:1"
             d="m 2226.5955,1908.5157 v -95.2739 h -95.274 -95.2738 -95.2739 -95.2739 -95.2738 v 95.2739 h 95.2738 95.2739 95.2739 95.2738 z" /><path
             id="path34"
             style="fill:none;stroke:#000000;stroke-width:0.23999999;stroke-linecap:round;stroke-linejoin:round;stroke-miterlimit:10;stroke-dasharray:none;stroke-opacity:1"
             d="m 2702.9648,1716.6633 h 95.274 v -95.2739 h -95.274 -95.2739 -95.2739 -95.2737 -95.2739 v 95.2739 h 95.2739 95.2737 95.2739 z" /><path
             id="path36"
             style="fill:none;stroke:#000000;stroke-width:0.23999999;stroke-linecap:round;stroke-linejoin:round;stroke-miterlimit:10;stroke-dasharray:none;stroke-opacity:1"
             d="m 2702.9648,1335.5677 h 95.274 v -95.2739 h -95.274 -95.2739 -95.2739 -95.2737 -95.2739 v 95.2739 h 95.2739 95.2737 95.2739 z" /><path
             id="path38"
             style="fill:none;stroke:#000000;stroke-width:0.23999999;stroke-linecap:round;stroke-linejoin:round;stroke-miterlimit:10;stroke-dasharray:none;stroke-opacity:1"
             d="m 2131.3215,1621.3894 v 95.2739 h 95.274 v -95.2739 -95.2739 -95.2738 -95.274 -95.2739 h -95.274 v 95.2739 95.274 95.2738 z" /><path
             id="path40"
             style="fill:none;stroke:#000000;stroke-width:0.23999999;stroke-linecap:round;stroke-linejoin:round;stroke-miterlimit:10;stroke-dasharray:none;stroke-opacity:1"
             d="m 1845.4999,1716.6633 v -95.2739 -95.2739 -95.2738 -95.274 -95.2739 h -95.2738 v 95.2739 95.274 95.2738 95.2739 95.2739 z" /><path
             id="path42"
             style="fill:none;stroke:#000000;stroke-width:0.23999999;stroke-linecap:round;stroke-linejoin:round;stroke-miterlimit:10;stroke-dasharray:none;stroke-opacity:1"
             d="m 1083.309,2099.0635 v -95.2739 h -95.27403 -95.27386 -95.27393 -95.27386 -95.27387 v 95.2739 h 95.27387 95.27386 95.27393 95.27386 z" /><path
             id="path44"
             style="fill:none;stroke:#000000;stroke-width:0.23999999;stroke-linecap:round;stroke-linejoin:round;stroke-miterlimit:10;stroke-dasharray:none;stroke-opacity:1"
             d="m 1559.6783,1526.1155 h 95.2738 v -95.2738 h -95.2738 -95.2739 -95.2739 -95.2739 -95.274 v 95.2738 h 95.274 95.2739 95.2739 z" /><path
             id="path46"
             style="fill:none;stroke:#000000;stroke-width:0.23999999;stroke-linecap:round;stroke-linejoin:round;stroke-miterlimit:10;stroke-dasharray:none;stroke-opacity:1"
             d="m 1369.1305,2289.6113 h 95.2739 v -95.2739 -95.2739 -95.2739 -95.2739 -95.2739 h -95.2739 v 95.2739 95.2739 95.2739 95.2739 z" /><path
             id="path48"
             style="fill:none;stroke:#000000;stroke-width:0.23999999;stroke-linecap:round;stroke-linejoin:round;stroke-miterlimit:10;stroke-dasharray:none;stroke-opacity:1"
             d="m 892.76111,1716.6633 v -95.2739 -95.2739 -95.2738 -95.274 -95.2739 h -95.27393 v 95.2739 95.274 95.2738 95.2739 95.2739 z" /><path
             id="path50"
             style="fill:none;stroke:#000000;stroke-width:0.23999999;stroke-linecap:round;stroke-linejoin:round;stroke-miterlimit:10;stroke-dasharray:none;stroke-opacity:1"
             d="m 1559.6783,2289.6113 h 95.2738 v -95.2739 -95.2739 -95.2739 -95.2739 -95.2739 h -95.2738 v 95.2739 95.2739 95.2739 95.2739 z" /><path
             id="path52"
             style="fill:none;stroke:#000000;stroke-width:0.23999999;stroke-linecap:round;stroke-linejoin:round;stroke-miterlimit:10;stroke-dasharray:none;stroke-opacity:1"
             d="m 1178.5826,2289.6113 h 95.274 v -95.2739 -95.2739 -95.2739 -95.2739 -95.2739 h -95.274 v 95.2739 95.2739 95.2739 95.2739 z" /><path
             id="path54"
             style="fill:none;stroke:#000000;stroke-width:0.23999999;stroke-linecap:round;stroke-linejoin:round;stroke-miterlimit:10;stroke-dasharray:none;stroke-opacity:1"
             d="m 1083.309,2289.6113 v -95.2739 h -95.27403 -95.27386 -95.27393 -95.27386 -95.27387 v 95.2739 h 95.27387 95.27386 95.27393 95.27386 z" /><path
             id="path56"
             style="fill:none;stroke:#000000;stroke-width:0.23999999;stroke-linecap:round;stroke-linejoin:round;stroke-miterlimit:10;stroke-dasharray:none;stroke-opacity:1"
             d="m 1083.309,1908.5157 v -95.2739 h -95.27403 -95.27386 -95.27393 -95.27386 -95.27387 v 95.2739 h 95.27387 95.27386 95.27393 95.27386 z" /><path
             id="path58"
             style="fill:none;stroke:#000000;stroke-width:0.23999999;stroke-linecap:round;stroke-linejoin:round;stroke-miterlimit:10;stroke-dasharray:none;stroke-opacity:1"
             d="m 1559.6783,1716.6633 h 95.2738 v -95.2739 h -95.2738 -95.2739 -95.2739 -95.2739 -95.274 v 95.2739 h 95.274 95.2739 95.2739 z" /><path
             id="path60"
             style="fill:none;stroke:#000000;stroke-width:0.23999999;stroke-linecap:round;stroke-linejoin:round;stroke-miterlimit:10;stroke-dasharray:none;stroke-opacity:1"
             d="m 1559.6783,1335.5677 h 95.2738 v -95.2739 h -95.2738 -95.2739 -95.2739 -95.2739 -95.274 v 95.2739 h 95.274 95.2739 95.2739 z" /><path
             id="path62"
             style="fill:none;stroke:#000000;stroke-width:0.23999999;stroke-linecap:round;stroke-linejoin:round;stroke-miterlimit:10;stroke-dasharray:none;stroke-opacity:1"
             d="m 988.03497,1621.3894 v 95.2739 h 95.27403 v -95.2739 -95.2739 -95.2738 -95.274 -95.2739 h -95.27403 v 95.2739 95.274 95.2738 z" /><path
             id="path64"
             style="fill:none;stroke:#000000;stroke-width:0.23999999;stroke-linecap:round;stroke-linejoin:round;stroke-miterlimit:10;stroke-dasharray:none;stroke-opacity:1"
             d="m 702.21332,1716.6633 v -95.2739 -95.2739 -95.2738 -95.274 -95.2739 h -95.27387 v 95.2739 95.274 95.2738 95.2739 95.2739 z" /><path
             id="path66"
             style="fill:none;stroke:#000000;stroke-width:0.23999999;stroke-linecap:round;stroke-linejoin:round;stroke-miterlimit:10;stroke-dasharray:none;stroke-opacity:1"
             d="M 2226.5955,954.47223 V 859.1983 h -95.274 -95.2738 -95.2739 -95.2739 -95.2738 v 95.27393 h 95.2738 95.2739 95.2739 95.2738 z" /><path
             id="path68"
             style="fill:none;stroke:#000000;stroke-width:0.23999999;stroke-linecap:round;stroke-linejoin:round;stroke-miterlimit:10;stroke-dasharray:none;stroke-opacity:1"
             d="m 2702.9648,381.52423 h 95.274 v -95.27386 h -95.274 -95.2739 -95.2739 -95.2737 -95.2739 v 95.27386 h 95.2739 95.2737 95.2739 z" /><path
             id="path70"
             style="fill:none;stroke:#000000;stroke-width:0.23999999;stroke-linecap:round;stroke-linejoin:round;stroke-miterlimit:10;stroke-dasharray:none;stroke-opacity:1"
             d="m 2512.417,1145.02 h 95.2739 v -95.2739 -95.27387 -95.27393 -95.27386 -95.27387 h -95.2739 v 95.27387 95.27386 95.27393 95.27387 z" /><path
             id="path72"
             style="fill:none;stroke:#000000;stroke-width:0.23999999;stroke-linecap:round;stroke-linejoin:round;stroke-miterlimit:10;stroke-dasharray:none;stroke-opacity:1"
             d="m 2036.0477,572.07202 v -95.27389 -95.2739 -95.27386 -95.2739 -95.273894 h -95.2739 v 95.273894 95.2739 95.27386 95.2739 95.27389 z" /><path
             id="path74"
             style="fill:none;stroke:#000000;stroke-width:0.23999999;stroke-linecap:round;stroke-linejoin:round;stroke-miterlimit:10;stroke-dasharray:none;stroke-opacity:1"
             d="m 2702.9648,1145.02 h 95.274 v -95.2739 -95.27387 -95.27393 -95.27386 -95.27387 h -95.274 v 95.27387 95.27386 95.27393 95.27387 z" /><path
             id="path76"
             style="fill:none;stroke:#000000;stroke-width:0.23999999;stroke-linecap:round;stroke-linejoin:round;stroke-miterlimit:10;stroke-dasharray:none;stroke-opacity:1"
             d="m 2321.8694,1145.02 h 95.2739 v -95.2739 -95.27387 -95.27393 -95.27386 -95.27387 h -95.2739 v 95.27387 95.27386 95.27393 95.27387 z" /><path
             id="path78"
             style="fill:none;stroke:#000000;stroke-width:0.23999999;stroke-linecap:round;stroke-linejoin:round;stroke-miterlimit:10;stroke-dasharray:none;stroke-opacity:1"
             d="m 2226.5955,1145.02 v -95.2739 h -95.274 -95.2738 -95.2739 -95.2739 -95.2738 v 95.2739 h 95.2738 95.2739 95.2739 95.2738 z" /><path
             id="path80"
             style="fill:none;stroke:#000000;stroke-width:0.23999999;stroke-linecap:round;stroke-linejoin:round;stroke-miterlimit:10;stroke-dasharray:none;stroke-opacity:1"
             d="m 2226.5955,763.92444 v -95.27387 h -95.274 -95.2738 -95.2739 -95.2739 -95.2738 v 95.27387 h 95.2738 95.2739 95.2739 95.2738 z" /><path
             id="path82"
             style="fill:none;stroke:#000000;stroke-width:0.23999999;stroke-linecap:round;stroke-linejoin:round;stroke-miterlimit:10;stroke-dasharray:none;stroke-opacity:1"
             d="m 2702.9648,572.07202 h 95.274 v -95.27389 h -95.274 -95.2739 -95.2739 -95.2737 -95.2739 v 95.27389 h 95.2739 95.2737 95.2739 z" /><path
             id="path84"
             style="fill:none;stroke:#000000;stroke-width:0.23999999;stroke-linecap:round;stroke-linejoin:round;stroke-miterlimit:10;stroke-dasharray:none;stroke-opacity:1"
             d="m 2702.9648,190.97647 h 95.274 V 95.702576 h -95.274 -95.2739 -95.2739 -95.2737 -95.2739 v 95.273894 h 95.2739 95.2737 95.2739 z" /><path
             id="path86"
             style="fill:none;stroke:#000000;stroke-width:0.23999999;stroke-linecap:round;stroke-linejoin:round;stroke-miterlimit:10;stroke-dasharray:none;stroke-opacity:1"
             d="m 2131.3215,476.79813 v 95.27389 h 95.274 v -95.27389 -95.2739 -95.27386 -95.2739 -95.273894 h -95.274 v 95.273894 95.2739 95.27386 z" /><path
             id="path88"
             style="fill:none;stroke:#000000;stroke-width:0.23999999;stroke-linecap:round;stroke-linejoin:round;stroke-miterlimit:10;stroke-dasharray:none;stroke-opacity:1"
             d="m 1845.4999,572.07202 v -95.27389 -95.2739 -95.27386 -95.2739 -95.273894 h -95.2738 v 95.273894 95.2739 95.27386 95.2739 95.27389 z" /><path
             id="path90"
             style="fill:none;stroke:#000000;stroke-width:0.23999999;stroke-linecap:round;stroke-linejoin:round;stroke-miterlimit:10;stroke-dasharray:none;stroke-opacity:1"
             d="M 1083.309,954.47223 V 859.1983 h -95.27403 -95.27386 -95.27393 -95.27386 -95.27387 v 95.27393 h 95.27387 95.27386 95.27393 95.27386 z" /><path
             id="path92"
             style="fill:none;stroke:#000000;stroke-width:0.23999999;stroke-linecap:round;stroke-linejoin:round;stroke-miterlimit:10;stroke-dasharray:none;stroke-opacity:1"
             d="m 1559.6783,381.52423 h 95.2738 v -95.27386 h -95.2738 -95.2739 -95.2739 -95.2739 -95.274 v 95.27386 h 95.274 95.2739 95.2739 z" /><path
             id="path94"
             style="fill:none;stroke:#000000;stroke-width:0.23999999;stroke-linecap:round;stroke-linejoin:round;stroke-miterlimit:10;stroke-dasharray:none;stroke-opacity:1"
             d="m 1369.1305,1145.02 h 95.2739 v -95.2739 -95.27387 -95.27393 -95.27386 -95.27387 h -95.2739 v 95.27387 95.27386 95.27393 95.27387 z" /><path
             id="path96"
             style="fill:none;stroke:#000000;stroke-width:0.23999999;stroke-linecap:round;stroke-linejoin:round;stroke-miterlimit:10;stroke-dasharray:none;stroke-opacity:1"
             d="m 892.76111,572.07202 v -95.27389 -95.2739 -95.27386 -95.2739 -95.273894 h -95.27393 v 95.273894 95.2739 95.27386 95.2739 95.27389 z" /><path
             id="path98"
             style="fill:none;stroke:#000000;stroke-width:0.23999999;stroke-linecap:round;stroke-linejoin:round;stroke-miterlimit:10;stroke-dasharray:none;stroke-opacity:1"
             d="m 1559.6783,1145.02 h 95.2738 v -95.2739 -95.27387 -95.27393 -95.27386 -95.27387 h -95.2738 v 95.27387 95.27386 95.27393 95.27387 z" /><path
             id="path100"
             style="fill:none;stroke:#000000;stroke-width:0.23999999;stroke-linecap:round;stroke-linejoin:round;stroke-miterlimit:10;stroke-dasharray:none;stroke-opacity:1"
             d="m 1178.5826,1145.02 h 95.274 v -95.2739 -95.27387 -95.27393 -95.27386 -95.27387 h -95.274 v 95.27387 95.27386 95.27393 95.27387 z" /><path
             id="path102"
             style="fill:none;stroke:#000000;stroke-width:0.23999999;stroke-linecap:round;stroke-linejoin:round;stroke-miterlimit:10;stroke-dasharray:none;stroke-opacity:1"
             d="m 1083.309,1145.02 v -95.2739 h -95.27403 -95.27386 -95.27393 -95.27386 -95.27387 v 95.2739 h 95.27387 95.27386 95.27393 95.27386 z" /><path
             id="path104"
             style="fill:none;stroke:#000000;stroke-width:0.23999999;stroke-linecap:round;stroke-linejoin:round;stroke-miterlimit:10;stroke-dasharray:none;stroke-opacity:1"
             d="m 1083.309,763.92444 v -95.27387 h -95.27403 -95.27386 -95.27393 -95.27386 -95.27387 v 95.27387 h 95.27387 95.27386 95.27393 95.27386 z" /><path
             id="path106"
             style="fill:none;stroke:#000000;stroke-width:0.23999999;stroke-linecap:round;stroke-linejoin:round;stroke-miterlimit:10;stroke-dasharray:none;stroke-opacity:1"
             d="m 1559.6783,572.07202 h 95.2738 v -95.27389 h -95.2738 -95.2739 -95.2739 -95.2739 -95.274 v 95.27389 h 95.274 95.2739 95.2739 z" /><path
             id="path108"
             style="fill:none;stroke:#000000;stroke-width:0.23999999;stroke-linecap:round;stroke-linejoin:round;stroke-miterlimit:10;stroke-dasharray:none;stroke-opacity:1"
             d="m 1559.6783,190.97647 h 95.2738 V 95.702576 h -95.2738 -95.2739 -95.2739 -95.2739 -95.274 v 95.273894 h 95.274 95.2739 95.2739 z" /><path
             id="path110"
             style="fill:none;stroke:#000000;stroke-width:0.23999999;stroke-linecap:round;stroke-linejoin:round;stroke-miterlimit:10;stroke-dasharray:none;stroke-opacity:1"
             d="m 988.03497,476.79813 v 95.27389 h 95.27403 v -95.27389 -95.2739 -95.27386 -95.2739 -95.273894 h -95.27403 v 95.273894 95.2739 95.27386 z" /><path
             id="path112"
             style="fill:none;stroke:#000000;stroke-width:0.23999999;stroke-linecap:round;stroke-linejoin:round;stroke-miterlimit:10;stroke-dasharray:none;stroke-opacity:1"
             d="m 702.21332,572.07202 v -95.27389 -95.2739 -95.27386 -95.2739 -95.273894 h -95.27387 v 95.273894 95.2739 95.27386 95.2739 95.27389 z" /><path
             id="path114"
             style="fill:none;stroke:#000000;stroke-width:0.23999999;stroke-linecap:round;stroke-linejoin:round;stroke-miterlimit:10;stroke-dasharray:none;stroke-opacity:1"
             d="m 2226.5955,2099.0635 v -95.2739 h -95.274 -95.2738 -95.2739 -95.2739 -95.2738 v 95.2739 h 95.2738 95.2739 95.2739 95.2738 z" /><path
             id="path116"
             style="fill:none;stroke:#000000;stroke-width:0.23999999;stroke-linecap:round;stroke-linejoin:round;stroke-miterlimit:10;stroke-dasharray:none;stroke-opacity:1"
             d="m 2702.9648,1526.1155 h 95.274 v -95.2738 h -95.274 -95.2739 -95.2739 -95.2737 -95.2739 v 95.2738 h 95.2739 95.2737 95.2739 z" /></g></g></g></g></svg>