<?xml version="1.0" encoding="UTF-8" standalone="no"?>
<svg
   xmlns:dc="http://purl.org/dc/elements/1.1/"
   xmlns:cc="http://creativecommons.org/ns#"
   xmlns:rdf="http://www.w3.org/1999/02/22-rdf-syntax-ns#"
   xmlns:svg="http://www.w3.org/2000/svg"
   xmlns="http://www.w3.org/2000/svg"
   viewBox="0 0 4493.7603 3178.5598"
   height="3178.5598"
   width="4493.7603"
   xml:space="preserve"
   id="svg2"
   version="1.1"><metadata
     id="metadata8"><rdf:RDF><cc:Work
         rdf:about=""><dc:format>image/svg+xml</dc:format><dc:type
           rdf:resource="http://purl.org/dc/dcmitype/StillImage" /></cc:Work></rdf:RDF></metadata><defs
     id="defs6"><clipPath
       id="clipPath20"
       clipPathUnits="userSpaceOnUse"><path
         id="path18"
         d="M 0,0 V 2383.9199 H 3370.3201 V 0 Z" /></clipPath></defs><g
     transform="matrix(1.3333333,0,0,-1.3333333,0,3178.5599)"
     id="g10"><g
       transform="matrix(1,0,0,-1,0,2383.9199)"
       id="g12"><g
         id="g14"><g
           clip-path="url(#clipPath20)"
           id="g16"><path
             id="path22"
             style="fill:none;stroke:#000000;stroke-width:0.23999999;stroke-linecap:round;stroke-linejoin:round;stroke-miterlimit:10;stroke-dasharray:none;stroke-opacity:1"
             d="m 2279.0774,1041.7089 h 149.5034 V 892.20532 H 2279.0774 2129.574 1980.0703 1830.5669 1681.0634 v 149.50358 h 149.5035 149.5034 149.5037 z" /><path
             id="path24"
             style="fill:none;stroke:#000000;stroke-width:0.23999999;stroke-linecap:round;stroke-linejoin:round;stroke-miterlimit:10;stroke-dasharray:none;stroke-opacity:1"
             d="m 2279.0774,443.69482 h 149.5034 V 294.19131 H 2279.0774 2129.574 1980.0703 1830.5669 1681.0634 v 149.50351 h 149.5035 149.5034 149.5037 z" /><path
             id="path26"
             style="fill:none;stroke:#000000;stroke-width:0.23999999;stroke-linecap:round;stroke-linejoin:round;stroke-miterlimit:10;stroke-dasharray:none;stroke-opacity:1"
             d="M 2279.0774,742.70178 V 593.1983 H 2129.574 1980.0703 1830.5669 1681.0634 v 149.50348 h 149.5035 149.5034 149.5037 z" /><path
             id="path28"
             style="fill:none;stroke:#000000;stroke-width:0.23999999;stroke-linecap:round;stroke-linejoin:round;stroke-miterlimit:10;stroke-dasharray:none;stroke-opacity:1"
             d="M 1232.5529,593.1983 V 443.69482 H 1083.0493 V 593.1983 742.70178 892.20532 1041.7089 h 149.5036 V 892.20532 742.70178 Z" /><path
             id="path30"
             style="fill:none;stroke:#000000;stroke-width:0.23999999;stroke-linecap:round;stroke-linejoin:round;stroke-miterlimit:10;stroke-dasharray:none;stroke-opacity:1"
             d="m 2428.5808,1340.7158 v -149.5034 h -149.5034 v 149.5034 149.5034 149.5037 149.5034 H 2129.574 v -149.5034 -149.5037 -149.5034 -149.5034 h -149.5037 v 149.5034 149.5034 149.5037 149.5034 149.5036 h 149.5037 149.5034 149.5034 v -149.5036 -149.5034 -149.5037 z" /><path
             id="path32"
             style="fill:none;stroke:#000000;stroke-width:0.23999999;stroke-linecap:round;stroke-linejoin:round;stroke-miterlimit:10;stroke-dasharray:none;stroke-opacity:1"
             d="m 1830.5669,1938.7299 v -149.5036 h -149.5035 -149.5035 v -149.5034 -149.5037 -149.5034 -149.5034 h -149.5035 v 149.5034 149.5034 149.5037 149.5034 149.5036 h 149.5035 149.5035 z" /><path
             id="path34"
             style="fill:none;stroke:#000000;stroke-width:0.23999999;stroke-linecap:round;stroke-linejoin:round;stroke-miterlimit:10;stroke-dasharray:none;stroke-opacity:1"
             d="M 933.54584,593.1983 V 443.69482 294.19131 H 784.0423 V 443.69482 593.1983 742.70178 892.20532 1041.7089 H 933.54584 V 892.20532 742.70178 Z" /><path
             id="path36"
             style="fill:none;stroke:#000000;stroke-width:0.23999999;stroke-linecap:round;stroke-linejoin:round;stroke-miterlimit:10;stroke-dasharray:none;stroke-opacity:1"
             d="M 1382.0564,443.69482 V 593.1983 742.70178 892.20532 1041.7089 h 149.5035 V 892.20532 742.70178 593.1983 443.69482 294.19131 h -149.5035 z" /><path
             id="path38"
             style="fill:none;stroke:#000000;stroke-width:0.23999999;stroke-linecap:round;stroke-linejoin:round;stroke-miterlimit:10;stroke-dasharray:none;stroke-opacity:1"
             d="m 933.54584,1490.2192 v -149.5034 h 149.50346 v 149.5034 z" /><path
             id="path40"
             style="fill:none;stroke:#000000;stroke-width:0.23999999;stroke-linecap:round;stroke-linejoin:round;stroke-miterlimit:10;stroke-dasharray:none;stroke-opacity:1"
             d="m 784.0423,1938.7299 h 149.50354 v -149.5036 -149.5034 h 149.50346 149.5036 V 1490.2192 1340.7158 1191.2124 H 1083.0493 933.54584 784.0423 v 149.5034 149.5034 149.5037 149.5034 z" /></g></g></g></g></svg>