<?xml version="1.0" encoding="UTF-8" standalone="no"?>
<svg
  xmlns:dc="http://purl.org/dc/elements/1.1/"
  xmlns:cc="http://creativecommons.org/ns#"
  xmlns:rdf="http://www.w3.org/1999/02/22-rdf-syntax-ns#"
  xmlns:svg="http://www.w3.org/2000/svg"
  xmlns="http://www.w3.org/2000/svg"
  viewBox="0 0 4493.7603 3178.5598"
  height="3178.5598"
  width="4493.7603"
  xml:space="preserve"
  id="svg2"
  version="1.1"><metadata
     id="metadata8"><rdf:RDF><cc:Work
         rdf:about=""><dc:format>image/svg+xml</dc:format><dc:type
           rdf:resource="http://purl.org/dc/dcmitype/StillImage" /></cc:Work></rdf:RDF></metadata><defs
     id="defs6"><clipPath
       id="clipPath20"
       clipPathUnits="userSpaceOnUse"><path
         id="path18"
         d="M 0,0 V 2383.9199 H 3370.3201 V 0 Z" /></clipPath></defs><g
     transform="matrix(1.3333333,0,0,-1.3333333,0,3178.5599)"
     id="g10"><g
       transform="matrix(1,0,0,-1,0,2383.9199)"
       id="g12"><g
         id="g14"><g
           clip-path="url(#clipPath20)"
           id="g16"><g
             id="g22"><path
               id="path24"
               style="fill:#e1000f;fill-opacity:1;fill-rule:nonzero;stroke:none"
               d="m 3267.3188,971.74066 c 0,-46.14276 0,-92.28552 0,-138.42828 -46.1428,0 -92.2854,0 -138.4282,0 0,46.14276 0,92.28552 0,138.42828 0,46.14274 0,92.28534 0,138.42814 0,46.1427 0,92.2855 0,138.4282 0,46.1427 0,92.2856 0,138.4283 -46.1428,0 -92.2854,0 -138.4282,0 0,-46.1427 0,-92.2856 0,-138.4283 0,-46.1427 0,-92.2855 0,-138.4282 0,-46.1428 0,-92.2854 0,-138.42814 0,-46.14276 0,-92.28552 0,-138.42828 -46.1428,0 -92.2854,0 -138.4282,0 0,46.14276 0,92.28552 0,138.42828 0,46.14274 0,92.28534 0,138.42814 0,46.1427 0,92.2855 0,138.4282 0,46.1427 0,92.2856 0,138.4283 0,46.1427 0,92.2855 0,138.4282 46.1428,0 92.2854,0 138.4282,0 46.1428,0 92.2854,0 138.4282,0 46.1428,0 92.2854,0 138.4282,0 0,-46.1427 0,-92.2855 0,-138.4282 0,-46.1427 0,-92.2856 0,-138.4283 0,-46.1427 0,-92.2855 0,-138.4282 0,-46.1428 0,-92.2854 0,-138.42814 z" /></g><g
             id="g26"><path
               id="path28"
               style="fill:#000000;fill-opacity:1;fill-rule:nonzero;stroke:none"
               d="m 3267.3188,971.74066 c 0,-46.14276 0,-92.28552 0,-138.42828 -46.1428,0 -92.2854,0 -138.4282,0 0,46.14276 0,92.28552 0,138.42828 0,46.14274 0,92.28534 0,138.42814 0,46.1427 0,92.2855 0,138.4282 0,46.1427 0,92.2856 0,138.4283 -46.1428,0 -92.2854,0 -138.4282,0 0,-46.1427 0,-92.2856 0,-138.4283 0,-46.1427 0,-92.2855 0,-138.4282 0,-46.1428 0,-92.2854 0,-138.42814 0,-46.14276 0,-92.28552 0,-138.42828 -46.1428,0 -92.2854,0 -138.4282,0 0,46.14276 0,92.28552 0,138.42828 0,46.14274 0,92.28534 0,138.42814 0,46.1427 0,92.2855 0,138.4282 0,46.1427 0,92.2856 0,138.4283 0,46.1427 0,92.2855 0,138.4282 46.1428,0 92.2854,0 138.4282,0 46.1428,0 92.2854,0 138.4282,0 46.1428,0 92.2854,0 138.4282,0 0,-46.1427 0,-92.2855 0,-138.4282 0,-46.1427 0,-92.2856 0,-138.4283 0,-46.1427 0,-92.2855 0,-138.4282 0,-46.1428 0,-92.2854 0,-138.42814 z" /></g><g
             id="g30"><path
               id="path32"
               style="fill:#000000;fill-opacity:1;fill-rule:nonzero;stroke:none"
               d="m 2713.606,1525.4535 c 0,-46.1427 0,-92.2855 0,-138.4282 -46.1429,0 -92.2854,0 -138.4283,0 -46.1428,0 -92.2854,0 -138.4282,0 0,-46.1427 0,-92.2856 0,-138.4283 0,-46.1427 0,-92.2855 0,-138.4282 0,-46.1428 0,-92.2854 0,-138.42814 0,-46.14276 0,-92.28552 0,-138.42828 -46.1428,0 -92.2854,0 -138.4282,0 0,46.14276 0,92.28552 0,138.42828 0,46.14274 0,92.28534 0,138.42814 0,46.1427 0,92.2855 0,138.4282 0,46.1427 0,92.2856 0,138.4283 0,46.1427 0,92.2855 0,138.4282 46.1428,0 92.2854,0 138.4282,0 46.1428,0 92.2854,0 138.4282,0 46.1429,0 92.2854,0 138.4283,0 z" /></g><g
             id="g34"><path
               id="path36"
               style="fill:#000000;fill-opacity:1;fill-rule:nonzero;stroke:none"
               d="m 1744.6085,1525.4535 c 46.1427,0 92.2854,0 138.4282,0 0,-46.1427 0,-92.2855 0,-138.4282 0,-46.1427 0,-92.2856 0,-138.4283 46.1427,0 92.2854,0 138.4283,0 46.1424,0 92.2852,0 138.4281,0 0,-46.1427 0,-92.2855 0,-138.4282 0,-46.1428 0,-92.2854 0,-138.42814 0,-46.14276 0,-92.28552 0,-138.42828 -46.1429,0 -92.2857,0 -138.4281,0 -46.1429,0 -92.2856,0 -138.4283,0 -46.1428,0 -92.2855,0 -138.4282,0 0,46.14276 0,92.28552 0,138.42828 0,46.14274 0,92.28534 0,138.42814 0,46.1427 0,92.2855 0,138.4282 0,46.1427 0,92.2856 0,138.4283 0,46.1427 0,92.2855 0,138.4282 z m 138.4282,-415.2847 c 0,-46.1428 0,-92.2854 0,-138.42814 46.1427,0 92.2854,0 138.4283,0 0,46.14274 0,92.28534 0,138.42814 -46.1429,0 -92.2856,0 -138.4283,0 z" /></g><g
             id="g38"><path
               id="path40"
               style="fill:#000000;fill-opacity:1;fill-rule:nonzero;stroke:none"
               d="m 1606.1802,971.74066 c 0,-46.14276 0,-92.28552 0,-138.42828 -46.1427,0 -92.2854,0 -138.4282,0 0,46.14276 0,92.28552 0,138.42828 0,46.14274 0,92.28534 0,138.42814 0,46.1427 0,92.2855 0,138.4282 0,46.1427 0,92.2856 0,138.4283 0,46.1427 0,92.2855 0,138.4282 46.1428,0 92.2855,0 138.4282,0 0,-46.1427 0,-92.2855 0,-138.4282 0,-46.1427 0,-92.2856 0,-138.4283 0,-46.1427 0,-92.2855 0,-138.4282 0,-46.1428 0,-92.2854 0,-138.42814 z" /></g><g
             id="g42"><path
               id="path44"
               style="fill:#000000;fill-opacity:1;fill-rule:nonzero;stroke:none"
               d="m 1190.8956,1387.0253 c 46.1429,0 92.2856,0 138.4281,0 0,-46.1427 0,-92.2856 0,-138.4283 0,-46.1427 0,-92.2855 0,-138.4282 0,-46.1428 0,-92.2854 0,-138.42814 0,-46.14276 0,-92.28552 0,-138.42828 -46.1425,0 -92.2852,0 -138.4281,0 0,46.14276 0,92.28552 0,138.42828 0,46.14274 0,92.28534 0,138.42814 0,46.1427 0,92.2855 0,138.4282 0,46.1427 0,92.2856 0,138.4283 z" /></g><g
             id="g46"><path
               id="path48"
               style="fill:#000000;fill-opacity:1;fill-rule:nonzero;stroke:none"
               d="m 1052.4674,971.74066 c 0,-46.14276 0,-92.28552 0,-138.42828 -46.1427,0 -92.28545,0 -138.42822,0 0,46.14276 0,92.28552 0,138.42828 0,46.14274 0,92.28534 0,138.42814 0,46.1427 0,92.2855 0,138.4282 0,46.1427 0,92.2856 0,138.4283 0,46.1427 0,92.2855 0,138.4282 46.14277,0 92.28552,0 138.42822,0 0,-46.1427 0,-92.2855 0,-138.4282 0,-46.1427 0,-92.2856 0,-138.4283 0,-46.1427 0,-92.2855 0,-138.4282 0,-46.1428 0,-92.2854 0,-138.42814 z" /></g><g
             id="g50"><path
               id="path52"
               style="fill:#000000;fill-opacity:1;fill-rule:nonzero;stroke:none"
               d="m 498.75458,1110.1688 c 0,-46.1428 0,-92.2854 0,-138.42814 -46.14273,0 -92.28546,0 -138.42823,0 0,46.14274 0,92.28534 0,138.42814 0,46.1427 0,92.2855 0,138.4282 0,46.1427 0,92.2856 0,138.4283 0,46.1427 0,92.2855 0,138.4282 46.14277,0 92.2855,0 138.42823,0 0,-46.1427 0,-92.2855 0,-138.4282 0,-46.1427 0,-92.2856 0,-138.4283 0,-46.1427 0,-92.2855 0,-138.4282 z" /></g><g
             id="g54"><path
               id="path56"
               style="fill:#000000;fill-opacity:1;fill-rule:nonzero;stroke:none"
               d="m 221.89816,1110.1688 c 0,-46.1428 0,-92.2854 0,-138.42814 0,-46.14276 0,-92.28552 0,-138.42828 -46.14273,0 -92.28547,0 -138.428205,0 0,46.14276 0,92.28552 0,138.42828 0,46.14274 0,92.28534 0,138.42814 0,46.1427 0,92.2855 0,138.4282 0,46.1427 0,92.2856 0,138.4283 0,46.1427 0,92.2855 0,138.4282 46.142735,0 92.285475,0 138.428205,0 0,-46.1427 0,-92.2855 0,-138.4282 0,-46.1427 0,-92.2856 0,-138.4283 0,-46.1427 0,-92.2855 0,-138.4282 z" /></g><g
             id="g58"><path
               id="path60"
               style="fill:#000000;fill-opacity:1;fill-rule:nonzero;stroke:none"
               d="m 637.1828,971.74066 c 0,46.14274 0,92.28534 0,138.42814 0,46.1427 0,92.2855 0,138.4282 0,46.1427 0,92.2856 0,138.4283 0,46.1427 0,92.2855 0,138.4282 46.1427,0 92.28546,0 138.42816,0 0,-46.1427 0,-92.2855 0,-138.4282 0,-46.1427 0,-92.2856 0,-138.4283 0,-46.1427 0,-92.2855 0,-138.4282 0,-46.1428 0,-92.2854 0,-138.42814 0,-46.14276 0,-92.28552 0,-138.42828 -46.1427,0 -92.28546,0 -138.42816,0 0,46.14276 0,92.28552 0,138.42828 z" /></g><path
             id="path62"
             style="fill:none;stroke:#000000;stroke-width:0.23999999;stroke-linecap:round;stroke-linejoin:round;stroke-miterlimit:10;stroke-dasharray:none;stroke-opacity:1"
             d="M 498.75458,1110.1688 V 971.74066 H 360.32635 v 138.42814 138.4282 138.4283 138.4282 H 498.75458 V 1387.0253 1248.597 Z" /><path
             id="path64"
             style="fill:none;stroke:#000000;stroke-width:0.23999999;stroke-linecap:round;stroke-linejoin:round;stroke-miterlimit:10;stroke-dasharray:none;stroke-opacity:1"
             d="M 221.89816,1110.1688 V 971.74066 833.31238 H 83.469955 v 138.42828 138.42814 138.4282 138.4283 138.4282 H 221.89816 V 1387.0253 1248.597 Z" /><path
             id="path66"
             style="fill:none;stroke:#000000;stroke-width:0.23999999;stroke-linecap:round;stroke-linejoin:round;stroke-miterlimit:10;stroke-dasharray:none;stroke-opacity:1"
             d="M 3267.3188,971.74066 V 833.31238 h -138.4282 v 138.42828 138.42814 138.4282 138.4283 H 2990.4624 V 1248.597 1110.1688 971.74066 833.31238 h -138.4282 v 138.42828 138.42814 138.4282 138.4283 138.4282 h 138.4282 138.4282 138.4282 V 1387.0253 1248.597 1110.1688 Z" /><path
             id="path68"
             style="fill:none;stroke:#000000;stroke-width:0.23999999;stroke-linecap:round;stroke-linejoin:round;stroke-miterlimit:10;stroke-dasharray:none;stroke-opacity:1"
             d="m 1744.6085,1525.4535 h 138.4282 V 1387.0253 1248.597 h 138.4283 138.4281 V 1110.1688 971.74066 833.31238 H 2021.465 1883.0367 1744.6085 v 138.42828 138.42814 138.4282 138.4283 z" /><path
             id="path70"
             style="fill:none;stroke:#000000;stroke-width:0.23999999;stroke-linecap:round;stroke-linejoin:round;stroke-miterlimit:10;stroke-dasharray:none;stroke-opacity:1"
             d="M 1606.1802,971.74066 V 833.31238 H 1467.752 v 138.42828 138.42814 138.4282 138.4283 138.4282 h 138.4282 V 1387.0253 1248.597 1110.1688 Z" /><path
             id="path72"
             style="fill:none;stroke:#000000;stroke-width:0.23999999;stroke-linecap:round;stroke-linejoin:round;stroke-miterlimit:10;stroke-dasharray:none;stroke-opacity:1"
             d="M 3267.3188,971.74066 V 833.31238 h -138.4282 v 138.42828 138.42814 138.4282 138.4283 H 2990.4624 V 1248.597 1110.1688 971.74066 833.31238 h -138.4282 v 138.42828 138.42814 138.4282 138.4283 138.4282 h 138.4282 138.4282 138.4282 V 1387.0253 1248.597 1110.1688 Z" /><path
             id="path74"
             style="fill:none;stroke:#000000;stroke-width:0.23999999;stroke-linecap:round;stroke-linejoin:round;stroke-miterlimit:10;stroke-dasharray:none;stroke-opacity:1"
             d="m 1190.8956,1387.0253 h 138.4281 V 1248.597 1110.1688 971.74066 833.31238 h -138.4281 v 138.42828 138.42814 138.4282 z" /><path
             id="path76"
             style="fill:none;stroke:#000000;stroke-width:0.23999999;stroke-linecap:round;stroke-linejoin:round;stroke-miterlimit:10;stroke-dasharray:none;stroke-opacity:1"
             d="M 1052.4674,971.74066 V 833.31238 H 914.03918 v 138.42828 138.42814 138.4282 138.4283 138.4282 H 1052.4674 V 1387.0253 1248.597 1110.1688 Z" /><path
             id="path78"
             style="fill:none;stroke:#000000;stroke-width:0.23999999;stroke-linecap:round;stroke-linejoin:round;stroke-miterlimit:10;stroke-dasharray:none;stroke-opacity:1"
             d="m 637.1828,971.74066 v 138.42814 138.4282 138.4283 138.4282 H 775.61096 V 1387.0253 1248.597 1110.1688 971.74066 833.31238 H 637.1828 Z" /><path
             id="path80"
             style="fill:none;stroke:#000000;stroke-width:0.23999999;stroke-linecap:round;stroke-linejoin:round;stroke-miterlimit:10;stroke-dasharray:none;stroke-opacity:1"
             d="M 2713.606,1525.4535 V 1387.0253 H 2575.1777 2436.7495 V 1248.597 1110.1688 971.74066 833.31238 h -138.4282 v 138.42828 138.42814 138.4282 138.4283 138.4282 h 138.4282 138.4282 z" /><path
             id="path82"
             style="fill:none;stroke:#000000;stroke-width:0.23999999;stroke-linecap:round;stroke-linejoin:round;stroke-miterlimit:10;stroke-dasharray:none;stroke-opacity:1"
             d="M 1883.0367,1110.1688 V 971.74066 h 138.4283 v 138.42814 z" /></g></g></g></g></svg>