<?xml version="1.0" encoding="UTF-8" standalone="no"?>
<svg
   xmlns:dc="http://purl.org/dc/elements/1.1/"
   xmlns:cc="http://creativecommons.org/ns#"
   xmlns:rdf="http://www.w3.org/1999/02/22-rdf-syntax-ns#"
   xmlns:svg="http://www.w3.org/2000/svg"
   xmlns="http://www.w3.org/2000/svg"
   viewBox="0 0 4493.7603 3178.5598"
   height="3178.5598"
   width="4493.7603"
   xml:space="preserve"
   id="svg2"
   version="1.1"><metadata
     id="metadata8"><rdf:RDF><cc:Work
         rdf:about=""><dc:format>image/svg+xml</dc:format><dc:type
           rdf:resource="http://purl.org/dc/dcmitype/StillImage" /></cc:Work></rdf:RDF></metadata><defs
     id="defs6"><clipPath
       id="clipPath20"
       clipPathUnits="userSpaceOnUse"><path
         id="path18"
         d="M 0,0 V 2383.9199 H 3370.3201 V 0 Z" /></clipPath></defs><g
     transform="matrix(1.3333333,0,0,-1.3333333,0,3178.5599)"
     id="g10"><g
       transform="matrix(1,0,0,-1,0,2383.9199)"
       id="g12"><g
         id="g14"><g
           clip-path="url(#clipPath20)"
           id="g16"><g
             id="g22"><path
               id="path24"
               style="fill:#000000;fill-opacity:1;fill-rule:nonzero;stroke:none"
               d="m 2529.1641,1962.7026 c 0.032,11.2203 -2.0728,23.4014 -6.6841,35.1202 -2.3059,5.8593 -5.2381,11.603 -8.874,17.1085 -3.636,5.5052 -7.9756,10.7718 -12.6597,15.4403 -18.7361,18.6741 -42.9819,27.7763 -67.2275,27.7763 -24.2459,0 -48.4915,-9.1022 -67.2276,-27.7763 -4.6841,-4.6685 -9.0237,-9.9351 -12.6597,-15.4403 -3.6357,-5.5055 -6.5681,-11.2492 -8.8737,-17.1085 -4.6114,-11.7188 -6.7163,-23.8999 -6.6841,-35.1202 0,-31.815 0,-63.6301 0,-95.4452 0,-63.6301 0,-127.2602 0,-190.8903 0,-63.6302 0,-127.2602 0,-190.8903 0,-31.8151 0,-63.6301 0,-95.4452 0.032,-11.2202 -2.073,-23.4012 -6.6843,-35.12 -2.3055,-5.8594 -5.2378,-11.6033 -8.8738,-17.1085 -3.636,-5.5052 -7.9756,-10.772 -12.6597,-15.4404 -18.7358,-18.6741 -42.9817,-27.7763 -67.2273,-27.7763 -24.2458,0 -48.4914,9.1022 -67.2278,27.7763 -4.6838,4.6684 -9.0237,9.9352 -12.6594,15.4404 -3.636,5.5052 -6.5684,11.2491 -8.874,17.1085 -4.6113,11.7188 -6.7163,23.8998 -6.6841,35.12 0,31.8151 0,63.6301 0,95.4452 0,63.6301 0,127.2601 0,190.8903 0,63.6301 0,127.2602 0,190.8903 0,63.6302 0,127.2603 0,190.8905 0,31.815 0,63.6299 0,95.4449 -0.2117,24.7607 10.2312,49.7661 27.9553,67.49 17.7239,17.7241 42.7295,28.167 67.49,27.9553 31.815,0 63.6299,0 95.4451,0 63.6301,0 127.2602,0 190.8904,0 31.8149,0 63.6298,0 95.445,0 11.2242,0.014 23.3916,-2.0342 35.1331,-6.7014 11.7412,-4.6673 23.0564,-11.9532 32.3567,-21.2539 9.3008,-9.3006 16.5869,-20.6155 21.2541,-32.3572 4.6673,-11.7412 6.7156,-23.9085 6.7012,-35.1328 0,-31.815 0,-63.6299 0,-95.4449 0,-63.6302 0,-127.2603 0,-190.8905 0,-63.6301 0,-127.2602 0,-190.8903 0,-63.6302 0,-127.2602 0,-190.8903 0,-31.8151 0,-63.6301 0,-95.4452 0.032,-11.2202 -2.0728,-23.4012 -6.6841,-35.12 -2.3054,-5.8594 -5.2378,-11.6033 -8.8738,-17.1085 -3.6359,-5.5052 -7.9755,-10.772 -12.6596,-15.4404 -18.7361,-18.6741 -42.9817,-27.7763 -67.2276,-27.7763 -24.2456,0 -48.4914,9.1022 -67.2275,27.7763 -4.6838,4.6684 -9.0237,9.9352 -12.6597,15.4404 -3.636,5.5052 -6.5681,11.2491 -8.8738,17.1085 -4.6113,11.7188 -6.7163,23.8998 -6.684,35.12 0,31.8151 0,63.6301 0,95.4452 0,63.6301 0,127.2601 0,190.8903 0,63.6301 0,127.2602 0,190.8903 0,31.8151 0,63.6302 0,95.4452 z" /></g><g
             id="g26"><path
               id="path28"
               style="fill:#000000;fill-opacity:1;fill-rule:nonzero;stroke:none"
               d="m 2624.6091,1103.6962 c 11.2202,0.032 23.4014,-2.0729 35.1201,-6.6842 5.8594,-2.3057 11.6033,-5.238 17.1084,-8.8739 5.5052,-3.6359 10.7723,-7.9755 15.4407,-12.6596 18.6738,-18.7359 27.7759,-42.9818 27.7759,-67.2275 0,-24.24575 -9.1021,-48.49154 -27.7759,-67.22756 -4.6684,-4.68408 -9.9355,-9.02368 -15.4407,-12.65967 -5.5051,-3.63593 -11.249,-6.56818 -17.1084,-8.87384 -11.7187,-4.61133 -23.8999,-6.71637 -35.1201,-6.68414 -31.8152,0 -63.6301,0 -95.445,0 -63.6302,0 -127.2603,0 -190.8904,0 -63.6301,0 -127.2603,0 -190.8904,0 -63.6301,0 -127.2601,0 -190.8903,0 -31.8151,0 -63.6301,0 -95.4453,0 -24.7368,-0.22693 -49.8127,10.26178 -67.4898,27.95526 -17.677,17.69348 -27.9552,42.59173 -27.9552,67.48995 0,24.8982 10.2782,49.7964 27.9552,67.49 17.6771,17.6933 42.753,28.1821 67.49,27.9552 31.815,0 63.63,0 95.4451,0 63.6302,0 127.2602,0 190.8903,0 63.6301,0 127.2603,0 190.8904,0 63.6301,0 127.2602,0 190.8904,0 31.8149,0 63.6298,0 95.445,0 z" /></g><g
             id="g30"><path
               id="path32"
               style="fill:#000000;fill-opacity:1;fill-rule:nonzero;stroke:none"
               d="m 1861.0477,531.02515 c -24.7368,-0.22693 -49.8127,10.26172 -67.4898,27.95526 -17.677,17.69348 -27.9552,42.59167 -27.9552,67.48993 0,24.89819 10.2782,49.79638 27.9552,67.48987 17.6771,17.69354 42.753,28.18219 67.49,27.95526 31.815,0 63.63,0 95.4451,0 63.6302,0 127.2602,0 190.8903,0 63.6301,0 127.2603,0 190.8904,0 31.8149,0 63.6301,0 95.4451,0 24.737,0.22693 49.8129,-10.26178 67.4899,-27.95526 17.677,-17.69349 27.9554,-42.59174 27.9554,-67.48987 0,-24.89826 -10.2784,-49.79651 -27.9554,-67.48993 -17.677,-17.69354 -42.7529,-28.18219 -67.4899,-27.95526 -31.815,0 -63.6302,0 -95.4451,0 -63.6301,0 -127.2603,0 -190.8904,0 -63.6301,0 -127.2601,0 -190.8903,0 -31.8151,0 -63.6301,0 -95.4453,0 z" /></g><g
             id="g34"><path
               id="path36"
               style="fill:#000000;fill-opacity:1;fill-rule:nonzero;stroke:none"
               d="m 620.26068,2153.5928 c -0.0322,11.2204 2.07282,23.4016 6.68414,35.1203 2.30567,5.8594 5.23792,11.6031 8.87384,17.1084 3.63599,5.5052 7.97559,10.772 12.65961,15.4407 18.73609,18.6738 42.98181,27.7759 67.22754,27.7759 24.24579,0 48.49152,-9.1021 67.22754,-27.7759 4.68408,-4.6687 9.02368,-9.9355 12.65967,-15.4407 3.63592,-5.5053 6.56817,-11.249 8.87384,-17.1084 4.61133,-11.7187 6.71637,-23.8999 6.68414,-35.1203 0,-31.815 0,-63.6299 0,-95.4449 0,-63.6302 0,-127.2603 0,-190.8905 63.63013,0 127.26025,0 190.8904,0 31.8149,0 63.6301,0 95.4451,0 11.2241,0.014 23.3916,-2.0341 35.1329,-6.7014 11.7413,-4.6672 23.0564,-11.9532 32.357,-21.2538 9.3006,-9.3006 16.5866,-20.6157 21.2539,-32.3571 4.6673,-11.7412 6.7157,-23.9087 6.7015,-35.1328 0,-31.8151 0,-63.6302 0,-95.4452 0,-63.6302 0,-127.2602 0,-190.8903 0,-31.8151 0,-63.6301 0,-95.4452 0.014,-11.2241 -2.0342,-23.3916 -6.7015,-35.1328 -4.6673,-11.7413 -11.9533,-23.0565 -21.2539,-32.3572 -9.3006,-9.3005 -20.6157,-16.5865 -32.357,-21.2538 -11.7413,-4.6672 -23.9088,-6.7157 -35.1329,-6.7014 -31.815,0 -63.6302,0 -95.4451,0 -63.63015,0 -127.26027,0 -190.8904,0 -31.81506,0 -63.63013,0 -95.44519,0 -11.22406,-0.014 -23.39154,2.0342 -35.13281,6.7014 -11.74133,4.6673 -23.05652,11.9533 -32.35706,21.2538 -9.3006,9.3007 -16.58667,20.6159 -21.2539,32.3572 -4.66724,11.7412 -6.7157,23.9087 -6.70136,35.1328 0,31.8151 0,63.6301 0,95.4452 0,63.6301 0,127.2601 0,190.8903 0,63.6301 0,127.2602 0,190.8903 0,63.6302 0,127.2603 0,190.8905 0,31.815 0,63.6299 0,95.4449 z M 1002.0414,1580.922 c 0.018,11.224 -2.04225,23.3916 -6.70137,35.1328 -4.6593,11.7412 -11.91718,23.0562 -21.25391,32.3571 -9.33673,9.3009 -20.75232,16.5879 -32.35712,21.2537 -11.60473,4.6662 -23.39868,6.711 -35.13281,6.7015 -11.73419,-0.01 -23.40869,-2.0734 -35.05414,-6.6787 -5.82269,-2.3027 -11.63818,-5.2408 -17.17437,-8.8793 -5.53626,-3.6384 -10.79328,-7.9774 -15.45472,-12.6608 -18.64569,-18.7337 -27.76196,-42.98 -27.76196,-67.2263 0,-24.2462 9.11627,-48.4926 27.76196,-67.2264 4.66144,-4.6834 9.91846,-9.0223 15.45472,-12.6608 5.53619,-3.6384 11.35168,-6.5765 17.17437,-8.8792 11.64545,-4.6053 23.31995,-6.6693 35.05414,-6.6788 11.73413,-0.01 23.52808,2.0354 35.13281,6.7014 11.6048,4.6659 23.02039,11.9529 32.35712,21.2538 9.33673,9.3009 16.59461,20.6159 21.25391,32.3572 4.65912,11.7411 6.71957,23.9087 6.70137,35.1328 z" /></g><g
             id="g38"><path
               id="path40"
               style="fill:#000000;fill-opacity:1;fill-rule:nonzero;stroke:none"
               d="m 1383.8219,1008.251 c -0.032,11.2203 2.0729,23.4013 6.6842,35.1201 2.3057,5.8594 5.2379,11.6031 8.8739,17.1084 3.636,5.5052 7.9756,10.772 12.6597,15.4405 18.7361,18.6741 42.9818,27.7762 67.2275,27.7762 24.2457,0 48.4915,-9.1021 67.2276,-27.7762 4.6839,-4.6685 9.0236,-9.9353 12.6596,-15.4405 3.6359,-5.5053 6.5681,-11.249 8.8738,-17.1084 4.6113,-11.7188 6.7163,-23.8998 6.6841,-35.1201 0,-31.81509 0,-63.63015 0,-95.44521 0,-63.63013 0,-127.2602 0,-190.89032 0,-63.63007 0,-127.2602 0,-190.89032 0,-63.63013 0,-127.26023 0,-190.89032 0,-31.81507 0,-63.63013 0,-95.44519 0.227,-24.73694 -10.2617,-49.81287 -27.9552,-67.48992 -17.6935,-17.67706 -42.5917,-27.95524 -67.4899,-27.95524 -24.8983,0 -49.7965,10.27819 -67.49,27.95526 -17.6935,17.67705 -28.1821,42.75297 -27.9553,67.48993 0,31.81506 0,63.63009 0,95.44516 0,63.63009 0,127.26019 0,190.89032 0,63.63012 0,127.26025 0,190.89032 0,63.63012 0,127.26019 0,190.89032 0,31.81506 0,63.63012 0,95.44521 z" /></g><g
             id="g42"><path
               id="path44"
               style="fill:#000000;fill-opacity:1;fill-rule:nonzero;stroke:none"
               d="m 620.26068,1008.251 c -0.0322,11.2203 2.07282,23.4013 6.68414,35.1201 2.30567,5.8594 5.23792,11.6031 8.87384,17.1084 3.63599,5.5052 7.97559,10.772 12.65961,15.4405 18.73609,18.6741 42.98181,27.7762 67.22754,27.7762 24.24579,0 48.49152,-9.1021 67.22754,-27.7762 4.68408,-4.6685 9.02368,-9.9353 12.65967,-15.4405 3.63592,-5.5053 6.56817,-11.249 8.87384,-17.1084 4.61133,-11.7188 6.71637,-23.8998 6.68414,-35.1201 0,-31.81509 0,-63.63015 0,-95.44521 0,-63.63013 0,-127.2602 0,-190.89032 0,-63.63007 0,-127.2602 0,-190.89032 0,-63.63013 0,-127.26023 0,-190.89032 0,-31.81507 0,-63.63013 0,-95.44519 0.0322,-11.22025 -2.07281,-23.40137 -6.68414,-35.12012 -2.30567,-5.85938 -5.23792,-11.60314 -8.87384,-17.1084 -3.63599,-5.50526 -7.97559,-10.77202 -12.65967,-15.44052 -18.73602,-18.67404 -42.98175,-27.77612 -67.22754,-27.77612 -24.24573,0 -48.49145,9.10208 -67.22754,27.77612 -4.68402,4.6685 -9.02362,9.93526 -12.65961,15.44052 -3.63592,5.50526 -6.56817,11.24902 -8.87384,17.1084 -4.61132,11.71875 -6.71637,23.89987 -6.68414,35.12012 0,31.81506 0,63.63012 0,95.44519 0,63.63009 0,127.26019 0,190.89032 0,63.63012 0,127.26025 0,190.89032 0,63.63012 0,127.26019 0,190.89032 0,31.81506 0,63.63012 0,95.44521 z" /></g><g
             id="g46"><path
               id="path48"
               style="fill:#000000;fill-opacity:1;fill-rule:nonzero;stroke:none"
               d="m 2624.6091,340.13483 c 24.7371,0.22696 49.8128,-10.26181 67.4898,-27.95526 17.6772,-17.69349 27.9553,-42.59171 27.9553,-67.48995 0,-24.89822 -10.2781,-49.79645 -27.9553,-67.48991 -17.677,-17.69347 -42.7527,-28.18219 -67.4898,-27.95523 -31.8152,0 -63.6301,0 -95.445,0 -63.6302,0 -127.2603,0 -190.8904,0 -63.6301,0 -127.2603,0 -190.8904,0 -63.6301,0 -127.2601,0 -190.8903,0 -31.8151,0 -63.6301,0 -95.4453,0 -24.7368,-0.22696 -49.8127,10.26178 -67.4898,27.95524 -17.677,17.69348 -27.9552,42.59171 -27.9552,67.48993 0,24.89824 10.2782,49.79643 27.9552,67.48992 17.6771,17.69348 42.753,28.18222 67.49,27.95526 31.815,0 63.63,0 95.4451,0 63.6302,0 127.2602,0 190.8903,0 63.6301,0 127.2603,0 190.8904,0 63.6301,0 127.2602,0 190.8904,0 31.8149,0 63.6298,0 95.445,0 z" /></g><g
             id="g50"><path
               id="path52"
               style="fill:#000000;fill-opacity:1;fill-rule:nonzero;stroke:none"
               d="m 1670.1576,2058.1479 c -24.7606,0.2117 -49.766,-10.2312 -67.49,-27.9553 -17.7241,-17.7242 -28.167,-42.7296 -27.9553,-67.49 0,-31.815 0,-63.6301 0,-95.4452 0,-63.6301 0,-127.2602 0,-190.8903 0,-63.6302 0,-127.2602 0,-190.8903 0,-31.8151 0,-63.6301 0,-95.4452 0.032,-11.2202 -2.0728,-23.4012 -6.6841,-35.12 -2.3057,-5.8594 -5.2379,-11.6033 -8.8738,-17.1085 -3.636,-5.5052 -7.9757,-10.772 -12.6596,-15.4404 -18.7361,-18.6741 -42.9819,-27.7763 -67.2276,-27.7763 -24.2457,0 -48.4914,9.1022 -67.2275,27.7763 -4.6841,4.6684 -9.0237,9.9352 -12.6597,15.4404 -3.636,5.5052 -6.5682,11.2491 -8.8739,17.1085 -4.6113,11.7188 -6.7164,23.8998 -6.6842,35.12 0,31.8151 0,63.6301 0,95.4452 0,63.6301 0,127.2601 0,190.8903 0,63.6301 0,127.2602 0,190.8903 0,63.6302 0,127.2603 0,190.8905 0,31.815 0,63.6299 0,95.4449 -0.014,11.2243 2.0342,23.3916 6.7014,35.1328 4.6673,11.7417 11.9534,23.0566 21.2539,32.3572 9.3007,9.3007 20.6159,16.5866 32.3571,21.2539 11.7413,4.6672 23.9088,6.7158 35.1329,6.7014 31.815,0 63.6301,0 95.4451,0 63.6301,0 127.2602,0 190.8904,0 31.8149,0 63.6301,0 95.445,0 11.2204,0.032 23.4015,-2.0728 35.1203,-6.6841 5.8593,-2.3059 11.6031,-5.2378 17.1084,-8.874 5.5052,-3.6358 10.7719,-7.9754 15.4405,-12.6594 18.6741,-18.7361 27.7761,-42.9817 27.7761,-67.2278 0,-24.2456 -9.102,-48.4915 -27.7761,-67.2273 -4.6686,-4.6841 -9.9353,-9.0237 -15.4405,-12.6597 -5.5053,-3.636 -11.2491,-6.5681 -17.1084,-8.8738 -11.7188,-4.6113 -23.8999,-6.7165 -35.1203,-6.6841 -31.8149,0 -63.6301,0 -95.445,0 -31.8151,0 -63.6302,0 -95.4451,0 z" /></g><g
             id="g54"><path
               id="path56"
               style="fill:#000000;fill-opacity:1;fill-rule:nonzero;stroke:none"
               d="m 1192.9318,435.57996 c 0.032,-11.22022 -2.0729,-23.40134 -6.6842,-35.12009 -2.3057,-5.85938 -5.238,-11.60315 -8.8739,-17.10843 -3.636,-5.50525 -7.9758,-10.772 -12.6597,-15.44052 -18.736,-18.67404 -42.9818,-27.77609 -67.2275,-27.77609 -24.2458,0 -48.4915,9.10205 -67.2276,27.77609 -4.6839,4.66852 -9.0236,9.93527 -12.6596,15.44052 -3.636,5.50528 -6.5681,11.24905 -8.8738,17.10843 -4.6113,11.71875 -6.7163,23.89987 -6.6841,35.12009 0,31.81506 0,63.63012 0,95.44519 0,63.63012 0,127.26025 0,190.89032 0,63.63012 0,127.26019 0,190.89032 0,31.81506 0,63.63012 0,95.44521 -0.032,11.2203 2.0728,23.4013 6.6841,35.1201 2.3057,5.8594 5.2378,11.6031 8.8738,17.1084 3.636,5.5052 7.9757,10.772 12.6596,15.4405 18.7361,18.6741 42.9818,27.7762 67.2276,27.7762 24.2457,0 48.4915,-9.1021 67.2275,-27.7762 4.6839,-4.6685 9.0237,-9.9353 12.6597,-15.4405 3.6359,-5.5053 6.5682,-11.249 8.8739,-17.1084 4.6113,-11.7188 6.7164,-23.8998 6.6842,-35.1201 0,-31.81509 0,-63.63015 0,-95.44521 0,-63.63013 0,-127.2602 0,-190.89032 0,-63.63007 0,-127.2602 0,-190.89032 0,-31.81507 0,-63.63013 0,-95.44519 z" /></g><path
             id="path58"
             style="fill:none;stroke:#000000;stroke-width:0.23999999;stroke-linecap:round;stroke-linejoin:round;stroke-miterlimit:10;stroke-dasharray:none;stroke-opacity:1"
             d="m 1002.0414,1580.922 c 0,52.4948 -42.95037,95.4452 -95.44521,95.4452 -52.49484,0 -95.44517,-42.9504 -95.44517,-95.4452 0,-52.4948 42.95033,-95.4452 95.44517,-95.4452 52.49484,0 95.44521,42.9504 95.44521,95.4452" /><path
             id="path60"
             style="fill:none;stroke:#000000;stroke-width:0.23999999;stroke-linecap:round;stroke-linejoin:round;stroke-miterlimit:10;stroke-dasharray:none;stroke-opacity:1"
             d="m 2529.1641,1962.7026 c 0.032,11.2203 -2.0728,23.4014 -6.6841,35.1202 -2.3059,5.8593 -5.2381,11.603 -8.874,17.1085 -3.636,5.5052 -7.9756,10.7718 -12.6597,15.4403 -18.7361,18.6741 -42.9819,27.7763 -67.2275,27.7763 -24.2459,0 -48.4915,-9.1022 -67.2276,-27.7763 -4.6841,-4.6685 -9.0237,-9.9351 -12.6597,-15.4403 -3.6357,-5.5055 -6.5681,-11.2492 -8.8737,-17.1085 -4.6114,-11.7188 -6.7163,-23.8999 -6.6841,-35.1202 v -95.4452 -190.8903 -190.8903 -95.4452 c 0.032,-11.2202 -2.073,-23.4012 -6.6843,-35.12 -2.3055,-5.8594 -5.2378,-11.6033 -8.8738,-17.1085 -3.636,-5.5052 -7.9756,-10.772 -12.6597,-15.4404 -18.7358,-18.6741 -42.9817,-27.7763 -67.2273,-27.7763 -24.2458,0 -48.4914,9.1022 -67.2278,27.7763 -4.6838,4.6684 -9.0237,9.9352 -12.6594,15.4404 -3.636,5.5052 -6.5684,11.2491 -8.874,17.1085 -4.6113,11.7188 -6.7163,23.8998 -6.6841,35.12 v 95.4452 190.8903 190.8903 190.8905 95.4449 c -0.2117,24.7607 10.2312,49.7661 27.9553,67.49 17.7239,17.7241 42.7295,28.167 67.49,27.9553 h 95.4451 190.8904 95.445 c 11.2242,0.014 23.3916,-2.0342 35.1331,-6.7014 11.7412,-4.6673 23.0564,-11.9532 32.3567,-21.2539 9.3008,-9.3006 16.5869,-20.6155 21.2541,-32.3572 4.6673,-11.7412 6.7156,-23.9085 6.7012,-35.1328 v -95.4449 -190.8905 -190.8903 -190.8903 -95.4452 c 0.032,-11.2202 -2.0728,-23.4012 -6.6841,-35.12 -2.3054,-5.8594 -5.2378,-11.6033 -8.8738,-17.1085 -3.6359,-5.5052 -7.9755,-10.772 -12.6596,-15.4404 -18.7361,-18.6741 -42.9817,-27.7763 -67.2276,-27.7763 -24.2456,0 -48.4914,9.1022 -67.2275,27.7763 -4.6838,4.6684 -9.0237,9.9352 -12.6597,15.4404 -3.636,5.5052 -6.5681,11.2491 -8.8738,17.1085 -4.6113,11.7188 -6.7163,23.8998 -6.684,35.12 v 95.4452 190.8903 190.8903 z" /><path
             id="path62"
             style="fill:none;stroke:#000000;stroke-width:0.23999999;stroke-linecap:round;stroke-linejoin:round;stroke-miterlimit:10;stroke-dasharray:none;stroke-opacity:1"
             d="m 620.26068,1008.251 c -0.0322,11.2203 2.07282,23.4013 6.68414,35.1201 2.30567,5.8594 5.23792,11.6031 8.87384,17.1084 3.63599,5.5052 7.97559,10.772 12.65961,15.4405 18.73609,18.6741 42.98181,27.7762 67.22754,27.7762 24.24579,0 48.49152,-9.1021 67.22754,-27.7762 4.68408,-4.6685 9.02368,-9.9353 12.65967,-15.4405 3.63592,-5.5053 6.56817,-11.249 8.87384,-17.1084 4.61133,-11.7188 6.71637,-23.8998 6.68414,-35.1201 V 912.80579 721.91547 531.02515 340.13483 244.68964 c 0.0322,-11.22025 -2.07281,-23.40137 -6.68414,-35.12012 -2.30567,-5.85938 -5.23792,-11.60314 -8.87384,-17.1084 -3.63599,-5.50526 -7.97559,-10.77202 -12.65967,-15.44052 -18.73602,-18.67404 -42.98175,-27.77612 -67.22754,-27.77612 -24.24573,0 -48.49145,9.10208 -67.22754,27.77612 -4.68402,4.6685 -9.02362,9.93526 -12.65961,15.44052 -3.63592,5.50526 -6.56817,11.24902 -8.87384,17.1084 -4.61132,11.71875 -6.71637,23.89987 -6.68414,35.12012 v 95.44519 190.89032 190.89032 190.89032 z" /><path
             id="path64"
             style="fill:none;stroke:#000000;stroke-width:0.23999999;stroke-linecap:round;stroke-linejoin:round;stroke-miterlimit:10;stroke-dasharray:none;stroke-opacity:1"
             d="m 1861.0477,531.02515 c -24.7368,-0.22693 -49.8127,10.26172 -67.4898,27.95526 -17.677,17.69348 -27.9552,42.59167 -27.9552,67.48993 0,24.89819 10.2782,49.79638 27.9552,67.48987 17.6771,17.69354 42.753,28.18219 67.49,27.95526 h 95.4451 190.8903 190.8904 95.4451 c 24.737,0.22693 49.8129,-10.26178 67.4899,-27.95526 17.677,-17.69349 27.9554,-42.59174 27.9554,-67.48987 0,-24.89826 -10.2784,-49.79651 -27.9554,-67.48993 -17.677,-17.69354 -42.7529,-28.18219 -67.4899,-27.95526 h -95.4451 -190.8904 -190.8903 z" /><path
             id="path66"
             style="fill:none;stroke:#000000;stroke-width:0.23999999;stroke-linecap:round;stroke-linejoin:round;stroke-miterlimit:10;stroke-dasharray:none;stroke-opacity:1"
             d="m 620.26068,2153.5928 c -0.0322,11.2204 2.07282,23.4016 6.68414,35.1203 2.30567,5.8594 5.23792,11.6031 8.87384,17.1084 3.63599,5.5052 7.97559,10.772 12.65961,15.4407 18.73609,18.6738 42.98181,27.7759 67.22754,27.7759 24.24579,0 48.49152,-9.1021 67.22754,-27.7759 4.68408,-4.6687 9.02368,-9.9355 12.65967,-15.4407 3.63592,-5.5053 6.56817,-11.249 8.87384,-17.1084 4.61133,-11.7187 6.71637,-23.8999 6.68414,-35.1203 v -95.4449 -190.8905 h 190.8904 95.4451 c 11.2241,0.014 23.3916,-2.0341 35.1329,-6.7014 11.7413,-4.6672 23.0564,-11.9532 32.357,-21.2538 9.3006,-9.3006 16.5866,-20.6157 21.2539,-32.3571 4.6673,-11.7412 6.7157,-23.9087 6.7015,-35.1328 v -95.4452 -190.8903 -95.4452 c 0.014,-11.2241 -2.0342,-23.3916 -6.7015,-35.1328 -4.6673,-11.7413 -11.9533,-23.0565 -21.2539,-32.3572 -9.3006,-9.3005 -20.6157,-16.5865 -32.357,-21.2538 -11.7413,-4.6672 -23.9088,-6.7157 -35.1329,-6.7014 H 1002.0414 811.151 715.70581 c -11.22406,-0.014 -23.39154,2.0342 -35.13281,6.7014 -11.74133,4.6673 -23.05652,11.9533 -32.35706,21.2538 -9.3006,9.3007 -16.58667,20.6159 -21.2539,32.3572 -4.66724,11.7412 -6.7157,23.9087 -6.70136,35.1328 v 95.4452 190.8903 190.8903 190.8905 z" /><path
             id="path68"
             style="fill:none;stroke:#000000;stroke-width:0.23999999;stroke-linecap:round;stroke-linejoin:round;stroke-miterlimit:10;stroke-dasharray:none;stroke-opacity:1"
             d="m 1383.8219,1008.251 c -0.032,11.2203 2.0729,23.4013 6.6842,35.1201 2.3057,5.8594 5.2379,11.6031 8.8739,17.1084 3.636,5.5052 7.9756,10.772 12.6597,15.4405 18.7361,18.6741 42.9818,27.7762 67.2275,27.7762 24.2457,0 48.4915,-9.1021 67.2276,-27.7762 4.6839,-4.6685 9.0236,-9.9353 12.6596,-15.4405 3.6359,-5.5053 6.5681,-11.249 8.8738,-17.1084 4.6113,-11.7188 6.7163,-23.8998 6.6841,-35.1201 V 912.80579 721.91547 531.02515 340.13483 244.68964 c 0.227,-24.73694 -10.2617,-49.81287 -27.9552,-67.48992 -17.6935,-17.67706 -42.5917,-27.95524 -67.4899,-27.95524 -24.8983,0 -49.7965,10.27819 -67.49,27.95526 -17.6935,17.67705 -28.1821,42.75297 -27.9553,67.48993 v 95.44516 190.89032 190.89032 190.89032 z" /><path
             id="path70"
             style="fill:none;stroke:#000000;stroke-width:0.23999999;stroke-linecap:round;stroke-linejoin:round;stroke-miterlimit:10;stroke-dasharray:none;stroke-opacity:1"
             d="m 1670.1576,2058.1479 c -24.7606,0.2117 -49.766,-10.2312 -67.49,-27.9553 -17.7241,-17.7242 -28.167,-42.7296 -27.9553,-67.49 v -95.4452 -190.8903 -190.8903 -95.4452 c 0.032,-11.2202 -2.0728,-23.4012 -6.6841,-35.12 -2.3057,-5.8594 -5.2379,-11.6033 -8.8738,-17.1085 -3.636,-5.5052 -7.9757,-10.772 -12.6596,-15.4404 -18.7361,-18.6741 -42.9819,-27.7763 -67.2276,-27.7763 -24.2457,0 -48.4914,9.1022 -67.2275,27.7763 -4.6841,4.6684 -9.0237,9.9352 -12.6597,15.4404 -3.636,5.5052 -6.5682,11.2491 -8.8739,17.1085 -4.6113,11.7188 -6.7164,23.8998 -6.6842,35.12 v 95.4452 190.8903 190.8903 190.8905 95.4449 c -0.014,11.2243 2.0342,23.3916 6.7014,35.1328 4.6673,11.7417 11.9534,23.0566 21.2539,32.3572 9.3007,9.3007 20.6159,16.5866 32.3571,21.2539 11.7413,4.6672 23.9088,6.7158 35.1329,6.7014 h 95.4451 190.8904 95.445 c 11.2204,0.032 23.4015,-2.0728 35.1203,-6.6841 5.8593,-2.3059 11.6031,-5.2378 17.1084,-8.874 5.5052,-3.6358 10.7719,-7.9754 15.4405,-12.6594 18.6741,-18.7361 27.7761,-42.9817 27.7761,-67.2278 0,-24.2456 -9.102,-48.4915 -27.7761,-67.2273 -4.6686,-4.6841 -9.9353,-9.0237 -15.4405,-12.6597 -5.5053,-3.636 -11.2491,-6.5681 -17.1084,-8.8738 -11.7188,-4.6113 -23.8999,-6.7165 -35.1203,-6.6841 h -95.445 z" /><path
             id="path72"
             style="fill:none;stroke:#000000;stroke-width:0.23999999;stroke-linecap:round;stroke-linejoin:round;stroke-miterlimit:10;stroke-dasharray:none;stroke-opacity:1"
             d="m 2624.6091,340.13483 c 24.7371,0.22696 49.8128,-10.26181 67.4898,-27.95526 17.6772,-17.69349 27.9553,-42.59171 27.9553,-67.48995 0,-24.89822 -10.2781,-49.79645 -27.9553,-67.48991 -17.677,-17.69347 -42.7527,-28.18219 -67.4898,-27.95523 h -95.445 -190.8904 -190.8904 -190.8903 -95.4453 c -24.7368,-0.22696 -49.8127,10.26178 -67.4898,27.95524 -17.677,17.69348 -27.9552,42.59171 -27.9552,67.48993 0,24.89824 10.2782,49.79643 27.9552,67.48992 17.6771,17.69348 42.753,28.18222 67.49,27.95526 h 95.4451 190.8903 190.8904 190.8904 z" /><path
             id="path74"
             style="fill:none;stroke:#000000;stroke-width:0.23999999;stroke-linecap:round;stroke-linejoin:round;stroke-miterlimit:10;stroke-dasharray:none;stroke-opacity:1"
             d="m 2624.6091,1103.6962 c 11.2202,0.032 23.4014,-2.0729 35.1201,-6.6842 5.8594,-2.3057 11.6033,-5.238 17.1084,-8.8739 5.5052,-3.6359 10.7723,-7.9755 15.4407,-12.6596 18.6738,-18.7359 27.7759,-42.9818 27.7759,-67.2275 0,-24.24575 -9.1021,-48.49154 -27.7759,-67.22756 -4.6684,-4.68408 -9.9355,-9.02368 -15.4407,-12.65967 -5.5051,-3.63593 -11.249,-6.56818 -17.1084,-8.87384 -11.7187,-4.61133 -23.8999,-6.71637 -35.1201,-6.68414 h -95.445 -190.8904 -190.8904 -190.8903 -95.4453 c -24.7368,-0.22693 -49.8127,10.26178 -67.4898,27.95526 -17.677,17.69348 -27.9552,42.59173 -27.9552,67.48995 0,24.8982 10.2782,49.7964 27.9552,67.49 17.6771,17.6933 42.753,28.1821 67.49,27.9552 h 95.4451 190.8903 190.8904 190.8904 z" /><path
             id="path76"
             style="fill:none;stroke:#000000;stroke-width:0.23999999;stroke-linecap:round;stroke-linejoin:round;stroke-miterlimit:10;stroke-dasharray:none;stroke-opacity:1"
             d="m 1192.9318,435.57996 c 0.032,-11.22022 -2.0729,-23.40134 -6.6842,-35.12009 -2.3057,-5.85938 -5.238,-11.60315 -8.8739,-17.10843 -3.636,-5.50525 -7.9758,-10.772 -12.6597,-15.44052 -18.736,-18.67404 -42.9818,-27.77609 -67.2275,-27.77609 -24.2458,0 -48.4915,9.10205 -67.2276,27.77609 -4.6839,4.66852 -9.0236,9.93527 -12.6596,15.44052 -3.636,5.50528 -6.5681,11.24905 -8.8738,17.10843 -4.6113,11.71875 -6.7163,23.89987 -6.6841,35.12009 v 95.44519 190.89032 190.89032 95.44521 c -0.032,11.2203 2.0728,23.4013 6.6841,35.1201 2.3057,5.8594 5.2378,11.6031 8.8738,17.1084 3.636,5.5052 7.9757,10.772 12.6596,15.4405 18.7361,18.6741 42.9818,27.7762 67.2276,27.7762 24.2457,0 48.4915,-9.1021 67.2275,-27.7762 4.6839,-4.6685 9.0237,-9.9353 12.6597,-15.4405 3.6359,-5.5053 6.5682,-11.249 8.8739,-17.1084 4.6113,-11.7188 6.7164,-23.8998 6.6842,-35.1201 V 912.80579 721.91547 531.02515 Z" /><path
             id="path78"
             style="fill:none;stroke:#000000;stroke-width:2.83464575;stroke-linecap:round;stroke-linejoin:round;stroke-miterlimit:10;stroke-dasharray:none;stroke-opacity:1"
             d="M 1002.0414,912.80579 V 1008.251" /><path
             id="path80"
             style="fill:none;stroke:#000000;stroke-width:2.83464575;stroke-linecap:round;stroke-linejoin:round;stroke-miterlimit:10;stroke-dasharray:none;stroke-opacity:1"
             d="m 1097.4865,1294.5864 h -95.4451" /><path
             id="path82"
             style="fill:none;stroke:#000000;stroke-width:2.83464575;stroke-linecap:round;stroke-linejoin:round;stroke-miterlimit:10;stroke-dasharray:none;stroke-opacity:1"
             d="m 1192.9318,1485.4768 v -95.4452" /><path
             id="path84"
             style="fill:none;stroke:#000000;stroke-width:2.83464575;stroke-linecap:round;stroke-linejoin:round;stroke-miterlimit:10;stroke-dasharray:none;stroke-opacity:1"
             d="m 1479.2672,2249.0381 h 95.4451" /><path
             id="path86"
             style="fill:none;stroke:#000000;stroke-width:2.83464575;stroke-linecap:round;stroke-linejoin:round;stroke-miterlimit:10;stroke-dasharray:none;stroke-opacity:1"
             d="m 1383.8219,1676.3671 v 190.8903" /><path
             id="path88"
             style="fill:none;stroke:#000000;stroke-width:2.83464575;stroke-linecap:round;stroke-linejoin:round;stroke-miterlimit:10;stroke-dasharray:none;stroke-opacity:1"
             d="M 1383.8219,531.02515 V 721.91547" /><path
             id="path90"
             style="fill:none;stroke:#000000;stroke-width:2.83464575;stroke-linecap:round;stroke-linejoin:round;stroke-miterlimit:10;stroke-dasharray:none;stroke-opacity:1"
             d="m 1956.493,531.02515 h -95.4453" /><path
             id="path92"
             style="fill:none;stroke:#000000;stroke-width:2.83464575;stroke-linecap:round;stroke-linejoin:round;stroke-miterlimit:10;stroke-dasharray:none;stroke-opacity:1"
             d="m 2529.1641,1103.6962 h 95.445" /><path
             id="path94"
             style="fill:none;stroke:#000000;stroke-width:2.83464575;stroke-linecap:round;stroke-linejoin:round;stroke-miterlimit:10;stroke-dasharray:none;stroke-opacity:1"
             d="m 2338.2737,721.91547 h 95.4451" /><path
             id="path96"
             style="fill:none;stroke:#000000;stroke-width:2.83464575;stroke-linecap:round;stroke-linejoin:round;stroke-miterlimit:10;stroke-dasharray:none;stroke-opacity:1"
             d="m 2529.1641,340.13483 h 95.445" /><path
             id="path98"
             style="fill:none;stroke:#000000;stroke-width:2.83464575;stroke-linecap:round;stroke-linejoin:round;stroke-miterlimit:10;stroke-dasharray:none;stroke-opacity:1"
             d="m 1383.8219,1485.4768 v 190.8903" /><path
             id="path100"
             style="fill:none;stroke:#000000;stroke-width:2.83464575;stroke-linecap:round;stroke-linejoin:round;stroke-miterlimit:10;stroke-dasharray:none;stroke-opacity:1"
             d="m 1956.493,149.24448 h -95.4453" /><path
             id="path102"
             style="fill:none;stroke:#000000;stroke-width:2.83464575;stroke-linecap:round;stroke-linejoin:round;stroke-miterlimit:10;stroke-dasharray:none;stroke-opacity:1"
             d="m 1574.7123,1485.4768 v -95.4452" /><path
             id="path104"
             style="fill:none;stroke:#000000;stroke-width:2.83464575;stroke-linecap:round;stroke-linejoin:round;stroke-miterlimit:10;stroke-dasharray:none;stroke-opacity:1"
             d="m 2147.3833,2058.1479 v 95.4449" /><path
             id="path106"
             style="fill:none;stroke:#000000;stroke-width:2.83464575;stroke-linecap:round;stroke-linejoin:round;stroke-miterlimit:10;stroke-dasharray:none;stroke-opacity:1"
             d="m 1574.7123,1962.7026 v -95.4452" /><path
             id="path108"
             style="fill:none;stroke:#000000;stroke-width:2.83464575;stroke-linecap:round;stroke-linejoin:round;stroke-miterlimit:10;stroke-dasharray:none;stroke-opacity:1"
             d="m 1861.0477,340.13483 h 95.4453" /><path
             id="path110"
             style="fill:none;stroke:#000000;stroke-width:2.83464575;stroke-linecap:round;stroke-linejoin:round;stroke-miterlimit:10;stroke-dasharray:none;stroke-opacity:1"
             d="m 1192.9318,1771.8123 v -95.4452" /><path
             id="path112"
             style="fill:none;stroke:#000000;stroke-width:2.83464575;stroke-linecap:round;stroke-linejoin:round;stroke-miterlimit:10;stroke-dasharray:none;stroke-opacity:1"
             d="M 620.26068,721.91547 V 912.80579" /><path
             id="path114"
             style="fill:none;stroke:#000000;stroke-width:2.83464575;stroke-linecap:round;stroke-linejoin:round;stroke-miterlimit:10;stroke-dasharray:none;stroke-opacity:1"
             d="M 811.151,340.13483 V 244.68964" /><path
             id="path116"
             style="fill:none;stroke:#000000;stroke-width:2.83464575;stroke-linecap:round;stroke-linejoin:round;stroke-miterlimit:10;stroke-dasharray:none;stroke-opacity:1"
             d="M 811.151,721.91547 V 531.02515" /><path
             id="path118"
             style="fill:none;stroke:#000000;stroke-width:2.83464575;stroke-linecap:round;stroke-linejoin:round;stroke-miterlimit:10;stroke-dasharray:none;stroke-opacity:1"
             d="M 1192.9318,721.91547 V 531.02515" /><path
             id="path120"
             style="fill:none;stroke:#000000;stroke-width:2.83464575;stroke-linecap:round;stroke-linejoin:round;stroke-miterlimit:10;stroke-dasharray:none;stroke-opacity:1"
             d="m 1956.493,912.80579 h -95.4453" /><path
             id="path122"
             style="fill:none;stroke:#000000;stroke-width:2.83464575;stroke-linecap:round;stroke-linejoin:round;stroke-miterlimit:10;stroke-dasharray:none;stroke-opacity:1"
             d="M 2338.2737,1867.2574 V 1676.3671" /><path
             id="path124"
             style="fill:none;stroke:#000000;stroke-width:2.83464575;stroke-linecap:round;stroke-linejoin:round;stroke-miterlimit:10;stroke-dasharray:none;stroke-opacity:1"
             d="m 2338.2737,2249.0381 h 190.8904" /><path
             id="path126"
             style="fill:none;stroke:#000000;stroke-width:2.83464575;stroke-linecap:round;stroke-linejoin:round;stroke-miterlimit:10;stroke-dasharray:none;stroke-opacity:1"
             d="m 2433.7188,531.02515 h -95.4451" /><path
             id="path128"
             style="fill:none;stroke:#000000;stroke-width:2.83464575;stroke-linecap:round;stroke-linejoin:round;stroke-miterlimit:10;stroke-dasharray:none;stroke-opacity:1"
             d="M 1192.9318,1676.3671 V 1485.4768" /><path
             id="path130"
             style="fill:none;stroke:#000000;stroke-width:2.83464575;stroke-linecap:round;stroke-linejoin:round;stroke-miterlimit:10;stroke-dasharray:none;stroke-opacity:1"
             d="m 2529.1641,1676.3671 v 190.8903" /><path
             id="path132"
             style="fill:none;stroke:#000000;stroke-width:2.83464575;stroke-linecap:round;stroke-linejoin:round;stroke-miterlimit:10;stroke-dasharray:none;stroke-opacity:1"
             d="m 1956.493,340.13483 h 190.8903" /><path
             id="path134"
             style="fill:none;stroke:#000000;stroke-width:2.83464575;stroke-linecap:round;stroke-linejoin:round;stroke-miterlimit:10;stroke-dasharray:none;stroke-opacity:1"
             d="M 2720.0542,2058.1479 V 1867.2574" /><path
             id="path136"
             style="fill:none;stroke:#000000;stroke-width:2.83464575;stroke-linecap:round;stroke-linejoin:round;stroke-miterlimit:10;stroke-dasharray:none;stroke-opacity:1"
             d="M 1002.0414,721.91547 V 912.80579" /><path
             id="path138"
             style="fill:none;stroke:#000000;stroke-width:2.83464575;stroke-linecap:round;stroke-linejoin:round;stroke-miterlimit:10;stroke-dasharray:none;stroke-opacity:1"
             d="m 1383.8219,244.68967 v 95.44516" /><path
             id="path140"
             style="fill:none;stroke:#000000;stroke-width:2.83464575;stroke-linecap:round;stroke-linejoin:round;stroke-miterlimit:10;stroke-dasharray:none;stroke-opacity:1"
             d="m 1765.6027,2249.0381 h 95.445" /><path
             id="path142"
             style="fill:none;stroke:#000000;stroke-width:2.83464575;stroke-linecap:round;stroke-linejoin:round;stroke-miterlimit:10;stroke-dasharray:none;stroke-opacity:1"
             d="m 1861.0477,2058.1479 h -95.445" /><path
             id="path144"
             style="fill:none;stroke:#000000;stroke-width:2.83464575;stroke-linecap:round;stroke-linejoin:round;stroke-miterlimit:10;stroke-dasharray:none;stroke-opacity:1"
             d="M 1002.0414,531.02515 V 721.91547" /><path
             id="path146"
             style="fill:none;stroke:#000000;stroke-width:2.83464575;stroke-linecap:round;stroke-linejoin:round;stroke-miterlimit:10;stroke-dasharray:none;stroke-opacity:1"
             d="m 1383.8219,1390.0316 v 95.4452" /><path
             id="path148"
             style="fill:none;stroke:#000000;stroke-width:2.83464575;stroke-linecap:round;stroke-linejoin:round;stroke-miterlimit:10;stroke-dasharray:none;stroke-opacity:1"
             d="M 2147.3833,912.80579 H 1956.493" /><path
             id="path150"
             style="fill:none;stroke:#000000;stroke-width:2.83464575;stroke-linecap:round;stroke-linejoin:round;stroke-miterlimit:10;stroke-dasharray:none;stroke-opacity:1"
             d="m 2529.1641,2249.0381 h 95.445" /><path
             id="path152"
             style="fill:none;stroke:#000000;stroke-width:2.83464575;stroke-linecap:round;stroke-linejoin:round;stroke-miterlimit:10;stroke-dasharray:none;stroke-opacity:1"
             d="M 1574.7123,912.80579 V 721.91547" /><path
             id="path154"
             style="fill:none;stroke:#000000;stroke-width:2.83464575;stroke-linecap:round;stroke-linejoin:round;stroke-miterlimit:10;stroke-dasharray:none;stroke-opacity:1"
             d="m 620.26068,2058.1479 v 95.4449" /><path
             id="path156"
             style="fill:none;stroke:#000000;stroke-width:2.83464575;stroke-linecap:round;stroke-linejoin:round;stroke-miterlimit:10;stroke-dasharray:none;stroke-opacity:1"
             d="M 2338.2737,531.02515 H 2147.3833" /><path
             id="path158"
             style="fill:none;stroke:#000000;stroke-width:2.83464575;stroke-linecap:round;stroke-linejoin:round;stroke-miterlimit:10;stroke-dasharray:none;stroke-opacity:1"
             d="M 1574.7123,1008.251 V 912.80579" /><path
             id="path160"
             style="fill:none;stroke:#000000;stroke-width:2.83464575;stroke-linecap:round;stroke-linejoin:round;stroke-miterlimit:10;stroke-dasharray:none;stroke-opacity:1"
             d="M 1574.7123,721.91547 V 531.02515" /><path
             id="path162"
             style="fill:none;stroke:#000000;stroke-width:2.83464575;stroke-linecap:round;stroke-linejoin:round;stroke-miterlimit:10;stroke-dasharray:none;stroke-opacity:1"
             d="M 1383.8219,912.80579 V 1008.251" /><path
             id="path164"
             style="fill:none;stroke:#000000;stroke-width:2.83464575;stroke-linecap:round;stroke-linejoin:round;stroke-miterlimit:10;stroke-dasharray:none;stroke-opacity:1"
             d="m 2147.3833,721.91547 h 190.8904" /><path
             id="path166"
             style="fill:none;stroke:#000000;stroke-width:2.83464575;stroke-linecap:round;stroke-linejoin:round;stroke-miterlimit:10;stroke-dasharray:none;stroke-opacity:1"
             d="m 1002.0414,1867.2574 h 95.4451" /><path
             id="path168"
             style="fill:none;stroke:#000000;stroke-width:2.83464575;stroke-linecap:round;stroke-linejoin:round;stroke-miterlimit:10;stroke-dasharray:none;stroke-opacity:1"
             d="m 1956.493,1103.6962 h 190.8903" /><path
             id="path170"
             style="fill:none;stroke:#000000;stroke-width:2.83464575;stroke-linecap:round;stroke-linejoin:round;stroke-miterlimit:10;stroke-dasharray:none;stroke-opacity:1"
             d="M 2338.2737,1676.3671 V 1485.4768" /><path
             id="path172"
             style="fill:none;stroke:#000000;stroke-width:2.83464575;stroke-linecap:round;stroke-linejoin:round;stroke-miterlimit:10;stroke-dasharray:none;stroke-opacity:1"
             d="M 811.151,912.80579 V 721.91547" /><path
             id="path174"
             style="fill:none;stroke:#000000;stroke-width:2.83464575;stroke-linecap:round;stroke-linejoin:round;stroke-miterlimit:10;stroke-dasharray:none;stroke-opacity:1"
             d="m 2147.3833,340.13483 h 190.8904" /><path
             id="path176"
             style="fill:none;stroke:#000000;stroke-width:2.83464575;stroke-linecap:round;stroke-linejoin:round;stroke-miterlimit:10;stroke-dasharray:none;stroke-opacity:1"
             d="m 1861.0479,721.91547 h 95.4451" /><path
             id="path178"
             style="fill:none;stroke:#000000;stroke-width:2.83464575;stroke-linecap:round;stroke-linejoin:round;stroke-miterlimit:10;stroke-dasharray:none;stroke-opacity:1"
             d="M 620.26068,531.02515 V 721.91547" /><path
             id="path180"
             style="fill:none;stroke:#000000;stroke-width:2.83464575;stroke-linecap:round;stroke-linejoin:round;stroke-miterlimit:10;stroke-dasharray:none;stroke-opacity:1"
             d="M 2338.2737,912.80579 H 2147.3833" /><path
             id="path182"
             style="fill:none;stroke:#000000;stroke-width:2.83464575;stroke-linecap:round;stroke-linejoin:round;stroke-miterlimit:10;stroke-dasharray:none;stroke-opacity:1"
             d="m 2338.2737,1962.7026 v -95.4452" /><path
             id="path184"
             style="fill:none;stroke:#000000;stroke-width:2.83464575;stroke-linecap:round;stroke-linejoin:round;stroke-miterlimit:10;stroke-dasharray:none;stroke-opacity:1"
             d="m 2529.1641,1867.2574 v 95.4452" /><path
             id="path186"
             style="fill:none;stroke:#000000;stroke-width:2.83464575;stroke-linecap:round;stroke-linejoin:round;stroke-miterlimit:10;stroke-dasharray:none;stroke-opacity:1"
             d="m 2147.3833,1103.6962 h 190.8904" /><path
             id="path188"
             style="fill:none;stroke:#000000;stroke-width:2.83464575;stroke-linecap:round;stroke-linejoin:round;stroke-miterlimit:10;stroke-dasharray:none;stroke-opacity:1"
             d="m 1765.6027,2058.1479 h -95.4451" /><path
             id="path190"
             style="fill:none;stroke:#000000;stroke-width:2.83464575;stroke-linecap:round;stroke-linejoin:round;stroke-miterlimit:10;stroke-dasharray:none;stroke-opacity:1"
             d="m 2338.2737,1103.6962 h 190.8904" /><path
             id="path192"
             style="fill:none;stroke:#000000;stroke-width:2.83464575;stroke-linecap:round;stroke-linejoin:round;stroke-miterlimit:10;stroke-dasharray:none;stroke-opacity:1"
             d="M 2529.1641,149.24448 H 2338.2737" /><path
             id="path194"
             style="fill:none;stroke:#000000;stroke-width:2.83464575;stroke-linecap:round;stroke-linejoin:round;stroke-miterlimit:10;stroke-dasharray:none;stroke-opacity:1"
             d="m 620.26068,244.68964 v 95.44519" /><path
             id="path196"
             style="fill:none;stroke:#000000;stroke-width:2.83464575;stroke-linecap:round;stroke-linejoin:round;stroke-miterlimit:10;stroke-dasharray:none;stroke-opacity:1"
             d="M 811.151,1008.251 V 912.80579" /><path
             id="path198"
             style="fill:none;stroke:#000000;stroke-width:2.83464575;stroke-linecap:round;stroke-linejoin:round;stroke-miterlimit:10;stroke-dasharray:none;stroke-opacity:1"
             d="M 811.151,1294.5864 H 715.70581" /><path
             id="path200"
             style="fill:none;stroke:#000000;stroke-width:2.83464575;stroke-linecap:round;stroke-linejoin:round;stroke-miterlimit:10;stroke-dasharray:none;stroke-opacity:1"
             d="M 1192.9318,912.80579 V 721.91547" /><path
             id="path202"
             style="fill:none;stroke:#000000;stroke-width:2.83464575;stroke-linecap:round;stroke-linejoin:round;stroke-miterlimit:10;stroke-dasharray:none;stroke-opacity:1"
             d="M 1192.9318,531.02515 V 435.57996" /><path
             id="path204"
             style="fill:none;stroke:#000000;stroke-width:2.83464575;stroke-linecap:round;stroke-linejoin:round;stroke-miterlimit:10;stroke-dasharray:none;stroke-opacity:1"
             d="M 1383.8219,721.91547 V 912.80579" /><path
             id="path206"
             style="fill:none;stroke:#000000;stroke-width:2.83464575;stroke-linecap:round;stroke-linejoin:round;stroke-miterlimit:10;stroke-dasharray:none;stroke-opacity:1"
             d="M 1192.9318,1008.251 V 912.80579" /><path
             id="path208"
             style="fill:none;stroke:#000000;stroke-width:2.83464575;stroke-linecap:round;stroke-linejoin:round;stroke-miterlimit:10;stroke-dasharray:none;stroke-opacity:1"
             d="m 811.151,1867.2574 h 190.8904" /><path
             id="path210"
             style="fill:none;stroke:#000000;stroke-width:2.83464575;stroke-linecap:round;stroke-linejoin:round;stroke-miterlimit:10;stroke-dasharray:none;stroke-opacity:1"
             d="m 2147.3833,1676.3671 v 190.8903" /><path
             id="path212"
             style="fill:none;stroke:#000000;stroke-width:2.83464575;stroke-linecap:round;stroke-linejoin:round;stroke-miterlimit:10;stroke-dasharray:none;stroke-opacity:1"
             d="m 2338.2737,1485.4768 v -95.4452" /><path
             id="path214"
             style="fill:none;stroke:#000000;stroke-width:2.83464575;stroke-linecap:round;stroke-linejoin:round;stroke-miterlimit:10;stroke-dasharray:none;stroke-opacity:1"
             d="m 2147.3833,1485.4768 v 190.8903" /><path
             id="path216"
             style="fill:none;stroke:#000000;stroke-width:2.83464575;stroke-linecap:round;stroke-linejoin:round;stroke-miterlimit:10;stroke-dasharray:none;stroke-opacity:1"
             d="m 2624.6091,149.24448 h -95.445" /><path
             id="path218"
             style="fill:none;stroke:#000000;stroke-width:2.83464575;stroke-linecap:round;stroke-linejoin:round;stroke-miterlimit:10;stroke-dasharray:none;stroke-opacity:1"
             d="m 620.26068,1867.2574 v 190.8905" /><path
             id="path220"
             style="fill:none;stroke:#000000;stroke-width:2.83464575;stroke-linecap:round;stroke-linejoin:round;stroke-miterlimit:10;stroke-dasharray:none;stroke-opacity:1"
             d="m 2624.6091,912.80579 h -95.445" /><path
             id="path222"
             style="fill:none;stroke:#000000;stroke-width:2.83464575;stroke-linecap:round;stroke-linejoin:round;stroke-miterlimit:10;stroke-dasharray:none;stroke-opacity:1"
             d="M 1002.0414,1294.5864 H 811.151" /><path
             id="path224"
             style="fill:none;stroke:#000000;stroke-width:2.83464575;stroke-linecap:round;stroke-linejoin:round;stroke-miterlimit:10;stroke-dasharray:none;stroke-opacity:1"
             d="m 620.26068,1485.4768 v 190.8903" /><path
             id="path226"
             style="fill:none;stroke:#000000;stroke-width:2.83464575;stroke-linecap:round;stroke-linejoin:round;stroke-miterlimit:10;stroke-dasharray:none;stroke-opacity:1"
             d="M 620.26068,340.13483 V 531.02515" /><path
             id="path228"
             style="fill:none;stroke:#000000;stroke-width:2.83464575;stroke-linecap:round;stroke-linejoin:round;stroke-miterlimit:10;stroke-dasharray:none;stroke-opacity:1"
             d="m 1383.8219,1867.2574 v 190.8905" /><path
             id="path230"
             style="fill:none;stroke:#000000;stroke-width:2.83464575;stroke-linecap:round;stroke-linejoin:round;stroke-miterlimit:10;stroke-dasharray:none;stroke-opacity:1"
             d="m 620.26068,1390.0316 v 95.4452" /><path
             id="path232"
             style="fill:none;stroke:#000000;stroke-width:2.83464575;stroke-linecap:round;stroke-linejoin:round;stroke-miterlimit:10;stroke-dasharray:none;stroke-opacity:1"
             d="m 2147.3833,1867.2574 v 190.8905" /><path
             id="path234"
             style="fill:none;stroke:#000000;stroke-width:2.83464575;stroke-linecap:round;stroke-linejoin:round;stroke-miterlimit:10;stroke-dasharray:none;stroke-opacity:1"
             d="m 2242.8286,2249.0381 h 95.4451" /><path
             id="path236"
             style="fill:none;stroke:#000000;stroke-width:2.83464575;stroke-linecap:round;stroke-linejoin:round;stroke-miterlimit:10;stroke-dasharray:none;stroke-opacity:1"
             d="m 2720.0542,1485.4768 v -95.4452" /><path
             id="path238"
             style="fill:none;stroke:#000000;stroke-width:2.83464575;stroke-linecap:round;stroke-linejoin:round;stroke-miterlimit:10;stroke-dasharray:none;stroke-opacity:1"
             d="m 620.26068,1676.3671 v 190.8903" /><path
             id="path240"
             style="fill:none;stroke:#000000;stroke-width:2.83464575;stroke-linecap:round;stroke-linejoin:round;stroke-miterlimit:10;stroke-dasharray:none;stroke-opacity:1"
             d="M 1574.7123,340.13483 V 244.68964" /><path
             id="path242"
             style="fill:none;stroke:#000000;stroke-width:2.83464575;stroke-linecap:round;stroke-linejoin:round;stroke-miterlimit:10;stroke-dasharray:none;stroke-opacity:1"
             d="m 2529.1641,1390.0316 v 95.4452" /><path
             id="path244"
             style="fill:none;stroke:#000000;stroke-width:2.83464575;stroke-linecap:round;stroke-linejoin:round;stroke-miterlimit:10;stroke-dasharray:none;stroke-opacity:1"
             d="M 2720.0542,1867.2574 V 1676.3671" /><path
             id="path246"
             style="fill:none;stroke:#000000;stroke-width:2.83464575;stroke-linecap:round;stroke-linejoin:round;stroke-miterlimit:10;stroke-dasharray:none;stroke-opacity:1"
             d="M 2720.0542,1676.3671 V 1485.4768" /><path
             id="path248"
             style="fill:none;stroke:#000000;stroke-width:2.83464575;stroke-linecap:round;stroke-linejoin:round;stroke-miterlimit:10;stroke-dasharray:none;stroke-opacity:1"
             d="m 1383.8219,2058.1479 v 95.4449" /><path
             id="path250"
             style="fill:none;stroke:#000000;stroke-width:2.83464575;stroke-linecap:round;stroke-linejoin:round;stroke-miterlimit:10;stroke-dasharray:none;stroke-opacity:1"
             d="m 2338.2737,340.13483 h 190.8904" /><path
             id="path252"
             style="fill:none;stroke:#000000;stroke-width:2.83464575;stroke-linecap:round;stroke-linejoin:round;stroke-miterlimit:10;stroke-dasharray:none;stroke-opacity:1"
             d="m 2720.0542,2153.5928 v -95.4449" /><path
             id="path254"
             style="fill:none;stroke:#000000;stroke-width:2.83464575;stroke-linecap:round;stroke-linejoin:round;stroke-miterlimit:10;stroke-dasharray:none;stroke-opacity:1"
             d="m 2147.3833,1390.0316 v 95.4452" /><path
             id="path256"
             style="fill:none;stroke:#000000;stroke-width:2.83464575;stroke-linecap:round;stroke-linejoin:round;stroke-miterlimit:10;stroke-dasharray:none;stroke-opacity:1"
             d="M 1383.8219,340.13483 V 531.02515" /><path
             id="path258"
             style="fill:none;stroke:#000000;stroke-width:2.83464575;stroke-linecap:round;stroke-linejoin:round;stroke-miterlimit:10;stroke-dasharray:none;stroke-opacity:1"
             d="M 2529.1641,912.80579 H 2338.2737" /><path
             id="path260"
             style="fill:none;stroke:#000000;stroke-width:2.83464575;stroke-linecap:round;stroke-linejoin:round;stroke-miterlimit:10;stroke-dasharray:none;stroke-opacity:1"
             d="m 811.151,2153.5928 v -95.4449" /><path
             id="path262"
             style="fill:none;stroke:#000000;stroke-width:2.83464575;stroke-linecap:round;stroke-linejoin:round;stroke-miterlimit:10;stroke-dasharray:none;stroke-opacity:1"
             d="M 811.151,531.02515 V 340.13483" /><path
             id="path264"
             style="fill:none;stroke:#000000;stroke-width:2.83464575;stroke-linecap:round;stroke-linejoin:round;stroke-miterlimit:10;stroke-dasharray:none;stroke-opacity:1"
             d="M 2147.3833,531.02515 H 1956.493" /><path
             id="path266"
             style="fill:none;stroke:#000000;stroke-width:2.83464575;stroke-linecap:round;stroke-linejoin:round;stroke-miterlimit:10;stroke-dasharray:none;stroke-opacity:1"
             d="m 1956.493,721.91547 h 190.8903" /><path
             id="path268"
             style="fill:none;stroke:#000000;stroke-width:2.83464575;stroke-linecap:round;stroke-linejoin:round;stroke-miterlimit:10;stroke-dasharray:none;stroke-opacity:1"
             d="M 2147.3833,149.24448 H 1956.493" /><path
             id="path270"
             style="fill:none;stroke:#000000;stroke-width:2.83464575;stroke-linecap:round;stroke-linejoin:round;stroke-miterlimit:10;stroke-dasharray:none;stroke-opacity:1"
             d="M 2338.2737,149.24448 H 2147.3833" /><path
             id="path272"
             style="fill:none;stroke:#000000;stroke-width:2.83464575;stroke-linecap:round;stroke-linejoin:round;stroke-miterlimit:10;stroke-dasharray:none;stroke-opacity:1"
             d="M 1574.7123,531.02515 V 340.13483" /><path
             id="path274"
             style="fill:none;stroke:#000000;stroke-width:2.83464575;stroke-linecap:round;stroke-linejoin:round;stroke-miterlimit:10;stroke-dasharray:none;stroke-opacity:1"
             d="m 2529.1641,1485.4768 v 190.8903" /><path
             id="path276"
             style="fill:none;stroke:#000000;stroke-width:2.83464575;stroke-linecap:round;stroke-linejoin:round;stroke-miterlimit:10;stroke-dasharray:none;stroke-opacity:1"
             d="m 1861.0477,1103.6962 h 95.4453" /><path
             id="path278"
             style="fill:none;stroke:#000000;stroke-width:2.83464575;stroke-linecap:round;stroke-linejoin:round;stroke-miterlimit:10;stroke-dasharray:none;stroke-opacity:1"
             d="M 1574.7123,1867.2574 V 1676.3671" /><path
             id="path280"
             style="fill:none;stroke:#000000;stroke-width:2.83464575;stroke-linecap:round;stroke-linejoin:round;stroke-miterlimit:10;stroke-dasharray:none;stroke-opacity:1"
             d="M 620.26068,912.80579 V 1008.251" /><path
             id="path282"
             style="fill:none;stroke:#000000;stroke-width:2.83464575;stroke-linecap:round;stroke-linejoin:round;stroke-miterlimit:10;stroke-dasharray:none;stroke-opacity:1"
             d="m 1002.0414,435.57996 v 95.44519" /><path
             id="path284"
             style="fill:none;stroke:#000000;stroke-width:2.83464575;stroke-linecap:round;stroke-linejoin:round;stroke-miterlimit:10;stroke-dasharray:none;stroke-opacity:1"
             d="M 811.151,2058.1479 V 1867.2574" /><path
             id="path286"
             style="fill:none;stroke:#000000;stroke-width:2.83464575;stroke-linecap:round;stroke-linejoin:round;stroke-miterlimit:10;stroke-dasharray:none;stroke-opacity:1"
             d="M 1574.7123,1676.3671 V 1485.4768" /><path
             id="path288"
             style="fill:none;stroke:#000000;stroke-width:2.83464575;stroke-linecap:round;stroke-linejoin:round;stroke-miterlimit:10;stroke-dasharray:none;stroke-opacity:1"
             d="m 1574.7123,2249.0381 h 190.8904" /><path
             id="path290"
             style="fill:none;stroke:#000000;stroke-width:0.23999999;stroke-linecap:round;stroke-linejoin:round;stroke-miterlimit:10;stroke-dasharray:none;stroke-opacity:1"
             d="m 1861.0477,912.80579 c -24.7368,-0.22693 -49.8127,10.26178 -67.4898,27.95526 -17.677,17.69348 -27.9552,42.59173 -27.9552,67.48995 0,24.8982 10.2782,49.7964 27.9552,67.49 17.6771,17.6933 42.753,28.1821 67.49,27.9552" /><path
             id="path292"
             style="fill:none;stroke:#000000;stroke-width:0.23999999;stroke-linecap:round;stroke-linejoin:round;stroke-miterlimit:10;stroke-dasharray:none;stroke-opacity:1"
             d="m 2624.6091,1103.6962 c 11.2202,0.032 23.4014,-2.0729 35.1201,-6.6842 5.8594,-2.3057 11.6033,-5.238 17.1084,-8.8739 5.5052,-3.6359 10.7723,-7.9755 15.4407,-12.6596 18.6738,-18.7359 27.7759,-42.9818 27.7759,-67.2275 0,-24.24575 -9.1021,-48.49154 -27.7759,-67.22756 -4.6684,-4.68408 -9.9355,-9.02368 -15.4407,-12.65967 -5.5051,-3.63593 -11.249,-6.56818 -17.1084,-8.87384 -11.7187,-4.61133 -23.8999,-6.71637 -35.1201,-6.68414" /><path
             id="path294"
             style="fill:none;stroke:#000000;stroke-width:0.23999999;stroke-linecap:round;stroke-linejoin:round;stroke-miterlimit:10;stroke-dasharray:none;stroke-opacity:1"
             d="m 1861.0477,531.02515 c -24.7368,-0.22693 -49.8127,10.26172 -67.4898,27.95526 -17.677,17.69348 -27.9552,42.59167 -27.9552,67.48993 0,24.89819 10.2782,49.79638 27.9552,67.48987 17.6771,17.69354 42.753,28.18219 67.49,27.95526" /><path
             id="path296"
             style="fill:none;stroke:#000000;stroke-width:0.23999999;stroke-linecap:round;stroke-linejoin:round;stroke-miterlimit:10;stroke-dasharray:none;stroke-opacity:1"
             d="m 1861.0477,149.24448 c -24.7368,-0.22696 -49.8127,10.26178 -67.4898,27.95524 -17.677,17.69348 -27.9552,42.59171 -27.9552,67.48993 0,24.89824 10.2782,49.79643 27.9552,67.48992 17.6771,17.69348 42.753,28.18222 67.49,27.95526" /><path
             id="path298"
             style="fill:none;stroke:#000000;stroke-width:0.23999999;stroke-linecap:round;stroke-linejoin:round;stroke-miterlimit:10;stroke-dasharray:none;stroke-opacity:1"
             d="m 2624.6091,340.13483 c 24.7371,0.22696 49.8128,-10.26181 67.4898,-27.95526 17.6772,-17.69349 27.9553,-42.59171 27.9553,-67.48995 0,-24.89822 -10.2781,-49.79645 -27.9553,-67.48991 -17.677,-17.69347 -42.7527,-28.18219 -67.4898,-27.95523" /><path
             id="path300"
             style="fill:none;stroke:#000000;stroke-width:0.23999999;stroke-linecap:round;stroke-linejoin:round;stroke-miterlimit:10;stroke-dasharray:none;stroke-opacity:1"
             d="m 2338.2737,1390.0316 c 0.032,-11.2202 -2.073,-23.4012 -6.6843,-35.12 -2.3055,-5.8594 -5.2378,-11.6033 -8.8738,-17.1085 -3.636,-5.5052 -7.9756,-10.772 -12.6597,-15.4404 -18.7358,-18.6741 -42.9817,-27.7763 -67.2273,-27.7763 -24.2458,0 -48.4914,9.1022 -67.2278,27.7763 -4.6838,4.6684 -9.0237,9.9352 -12.6594,15.4404 -3.636,5.5052 -6.5684,11.2491 -8.874,17.1085 -4.6113,11.7188 -6.7163,23.8998 -6.6841,35.12" /><path
             id="path302"
             style="fill:none;stroke:#000000;stroke-width:0.23999999;stroke-linecap:round;stroke-linejoin:round;stroke-miterlimit:10;stroke-dasharray:none;stroke-opacity:1"
             d="m 2624.6091,2249.0381 c 11.2242,0.014 23.3916,-2.0342 35.1331,-6.7014 11.7412,-4.6673 23.0564,-11.9532 32.3567,-21.2539 9.3008,-9.3006 16.5869,-20.6155 21.2541,-32.3572 4.6673,-11.7412 6.7156,-23.9085 6.7012,-35.1328" /><path
             id="path304"
             style="fill:none;stroke:#000000;stroke-width:0.23999999;stroke-linecap:round;stroke-linejoin:round;stroke-miterlimit:10;stroke-dasharray:none;stroke-opacity:1"
             d="m 2147.3833,2153.5928 c -0.2117,24.7607 10.2312,49.7661 27.9553,67.49 17.7239,17.7241 42.7295,28.167 67.49,27.9553" /><path
             id="path306"
             style="fill:none;stroke:#000000;stroke-width:0.23999999;stroke-linecap:round;stroke-linejoin:round;stroke-miterlimit:10;stroke-dasharray:none;stroke-opacity:1"
             d="m 1383.8219,2153.5928 c -0.014,11.2243 2.0342,23.3916 6.7014,35.1328 4.6673,11.7417 11.9534,23.0566 21.2539,32.3572 9.3007,9.3007 20.6159,16.5866 32.3571,21.2539 11.7413,4.6672 23.9088,6.7158 35.1329,6.7014" /><path
             id="path308"
             style="fill:none;stroke:#000000;stroke-width:0.23999999;stroke-linecap:round;stroke-linejoin:round;stroke-miterlimit:10;stroke-dasharray:none;stroke-opacity:1"
             d="m 1574.7123,1390.0316 c 0.032,-11.2202 -2.0728,-23.4012 -6.6841,-35.12 -2.3057,-5.8594 -5.2379,-11.6033 -8.8738,-17.1085 -3.636,-5.5052 -7.9757,-10.772 -12.6596,-15.4404 -18.7361,-18.6741 -42.9819,-27.7763 -67.2276,-27.7763 -24.2457,0 -48.4914,9.1022 -67.2275,27.7763 -4.6841,4.6684 -9.0237,9.9352 -12.6597,15.4404 -3.636,5.5052 -6.5682,11.2491 -8.8739,17.1085 -4.6113,11.7188 -6.7164,23.8998 -6.6842,35.12" /><path
             id="path310"
             style="fill:none;stroke:#000000;stroke-width:0.23999999;stroke-linecap:round;stroke-linejoin:round;stroke-miterlimit:10;stroke-dasharray:none;stroke-opacity:1"
             d="m 1192.9318,1390.0316 c 0.014,-11.2241 -2.0342,-23.3916 -6.7015,-35.1328 -4.6673,-11.7413 -11.9533,-23.0565 -21.2539,-32.3572 -9.3006,-9.3005 -20.6157,-16.5865 -32.357,-21.2538 -11.7413,-4.6672 -23.9088,-6.7157 -35.1329,-6.7014" /><path
             id="path312"
             style="fill:none;stroke:#000000;stroke-width:0.23999999;stroke-linecap:round;stroke-linejoin:round;stroke-miterlimit:10;stroke-dasharray:none;stroke-opacity:1"
             d="m 715.70581,1294.5864 c -11.22406,-0.014 -23.39154,2.0342 -35.13281,6.7014 -11.74133,4.6673 -23.05652,11.9533 -32.35706,21.2538 -9.3006,9.3007 -16.58667,20.6159 -21.2539,32.3572 -4.66724,11.7412 -6.7157,23.9087 -6.70136,35.1328" /><path
             id="path314"
             style="fill:none;stroke:#000000;stroke-width:0.23999999;stroke-linecap:round;stroke-linejoin:round;stroke-miterlimit:10;stroke-dasharray:none;stroke-opacity:1"
             d="m 1097.4865,1867.2574 c 11.2241,0.014 23.3916,-2.0341 35.1329,-6.7014 11.7413,-4.6672 23.0564,-11.9532 32.357,-21.2538 9.3006,-9.3006 16.5866,-20.6157 21.2539,-32.3571 4.6673,-11.7412 6.7157,-23.9087 6.7015,-35.1328" /><path
             id="path316"
             style="fill:none;stroke:#000000;stroke-width:0.23999999;stroke-linecap:round;stroke-linejoin:round;stroke-miterlimit:10;stroke-dasharray:none;stroke-opacity:1"
             d="m 620.26068,2153.5928 c -0.0322,11.2204 2.07282,23.4016 6.68414,35.1203 2.30567,5.8594 5.23792,11.6031 8.87384,17.1084 3.63599,5.5052 7.97559,10.772 12.65961,15.4407 18.73609,18.6738 42.98181,27.7759 67.22754,27.7759 24.24579,0 48.49152,-9.1021 67.22754,-27.7759 4.68408,-4.6687 9.02368,-9.9355 12.65967,-15.4407 3.63592,-5.5053 6.56817,-11.249 8.87384,-17.1084 4.61133,-11.7187 6.71637,-23.8999 6.68414,-35.1203" /><path
             id="path318"
             style="fill:none;stroke:#000000;stroke-width:0.23999999;stroke-linecap:round;stroke-linejoin:round;stroke-miterlimit:10;stroke-dasharray:none;stroke-opacity:1"
             d="m 1002.0414,1580.922 c 0,52.4948 -42.95037,95.4452 -95.44521,95.4452 -52.49484,0 -95.44517,-42.9504 -95.44517,-95.4452 0,-52.4948 42.95033,-95.4452 95.44517,-95.4452 52.49484,0 95.44521,42.9504 95.44521,95.4452" /><path
             id="path320"
             style="fill:none;stroke:#000000;stroke-width:0.23999999;stroke-linecap:round;stroke-linejoin:round;stroke-miterlimit:10;stroke-dasharray:none;stroke-opacity:1"
             d="m 1574.7123,1962.7026 c -0.2117,24.7604 10.2312,49.7658 27.9553,67.49 17.724,17.7241 42.7294,28.167 67.49,27.9553" /><path
             id="path322"
             style="fill:none;stroke:#000000;stroke-width:0.23999999;stroke-linecap:round;stroke-linejoin:round;stroke-miterlimit:10;stroke-dasharray:none;stroke-opacity:1"
             d="m 2338.2737,1962.7026 c -0.032,11.2203 2.0727,23.4014 6.6841,35.1202 2.3056,5.8593 5.238,11.603 8.8737,17.1085 3.636,5.5052 7.9756,10.7718 12.6597,15.4403 18.7361,18.6741 42.9817,27.7763 67.2276,27.7763 24.2456,0 48.4914,-9.1022 67.2275,-27.7763 4.6841,-4.6685 9.0237,-9.9351 12.6597,-15.4403 3.6359,-5.5055 6.5681,-11.2492 8.874,-17.1085 4.6113,-11.7188 6.7163,-23.8999 6.6841,-35.1202" /><path
             id="path324"
             style="fill:none;stroke:#000000;stroke-width:0.23999999;stroke-linecap:round;stroke-linejoin:round;stroke-miterlimit:10;stroke-dasharray:none;stroke-opacity:1"
             d="m 811.151,244.68964 c 0.0322,-11.22025 -2.07281,-23.40137 -6.68414,-35.12012 -2.30567,-5.85938 -5.23792,-11.60314 -8.87384,-17.1084 -3.63599,-5.50526 -7.97559,-10.77202 -12.65967,-15.44052 -18.73602,-18.67404 -42.98175,-27.77612 -67.22754,-27.77612 -24.24573,0 -48.49145,9.10208 -67.22754,27.77612 -4.68402,4.6685 -9.02362,9.93526 -12.65961,15.44052 -3.63592,5.50526 -6.56817,11.24902 -8.87384,17.1084 -4.61132,11.71875 -6.71637,23.89987 -6.68414,35.12012" /><path
             id="path326"
             style="fill:none;stroke:#000000;stroke-width:0.23999999;stroke-linecap:round;stroke-linejoin:round;stroke-miterlimit:10;stroke-dasharray:none;stroke-opacity:1"
             d="m 1861.0477,2249.0381 c 11.2204,0.032 23.4015,-2.0728 35.1203,-6.6841 5.8593,-2.3059 11.6031,-5.2378 17.1084,-8.874 5.5052,-3.6358 10.7719,-7.9754 15.4405,-12.6594 18.6741,-18.7361 27.7761,-42.9817 27.7761,-67.2278 0,-24.2456 -9.102,-48.4915 -27.7761,-67.2273 -4.6686,-4.6841 -9.9353,-9.0237 -15.4405,-12.6597 -5.5053,-3.636 -11.2491,-6.5681 -17.1084,-8.8738 -11.7188,-4.6113 -23.8999,-6.7165 -35.1203,-6.6841" /><path
             id="path328"
             style="fill:none;stroke:#000000;stroke-width:0.23999999;stroke-linecap:round;stroke-linejoin:round;stroke-miterlimit:10;stroke-dasharray:none;stroke-opacity:1"
             d="m 620.26068,1008.251 c -0.0322,11.2203 2.07282,23.4013 6.68414,35.1201 2.30567,5.8594 5.23792,11.6031 8.87384,17.1084 3.63599,5.5052 7.97559,10.772 12.65961,15.4405 18.73609,18.6741 42.98181,27.7762 67.22754,27.7762 24.24579,0 48.49152,-9.1021 67.22754,-27.7762 4.68408,-4.6685 9.02368,-9.9353 12.65967,-15.4405 3.63592,-5.5053 6.56817,-11.249 8.87384,-17.1084 4.61133,-11.7188 6.71637,-23.8998 6.68414,-35.1201" /><path
             id="path330"
             style="fill:none;stroke:#000000;stroke-width:0.23999999;stroke-linecap:round;stroke-linejoin:round;stroke-miterlimit:10;stroke-dasharray:none;stroke-opacity:1"
             d="m 2720.0542,1390.0316 c 0.032,-11.2202 -2.0728,-23.4012 -6.6841,-35.12 -2.3054,-5.8594 -5.2378,-11.6033 -8.8738,-17.1085 -3.6359,-5.5052 -7.9755,-10.772 -12.6596,-15.4404 -18.7361,-18.6741 -42.9817,-27.7763 -67.2276,-27.7763 -24.2456,0 -48.4914,9.1022 -67.2275,27.7763 -4.6838,4.6684 -9.0237,9.9352 -12.6597,15.4404 -3.636,5.5052 -6.5681,11.2491 -8.8738,17.1085 -4.6113,11.7188 -6.7163,23.8998 -6.684,35.12" /><path
             id="path332"
             style="fill:none;stroke:#000000;stroke-width:0.23999999;stroke-linecap:round;stroke-linejoin:round;stroke-miterlimit:10;stroke-dasharray:none;stroke-opacity:1"
             d="m 1002.0414,1008.251 c -0.032,11.2203 2.0728,23.4013 6.6841,35.1201 2.3057,5.8594 5.2378,11.6031 8.8738,17.1084 3.636,5.5052 7.9757,10.772 12.6596,15.4405 18.7361,18.6741 42.9818,27.7762 67.2276,27.7762 24.2457,0 48.4915,-9.1021 67.2275,-27.7762 4.6839,-4.6685 9.0237,-9.9353 12.6597,-15.4405 3.6359,-5.5053 6.5682,-11.249 8.8739,-17.1084 4.6113,-11.7188 6.7164,-23.8998 6.6842,-35.1201" /><path
             id="path334"
             style="fill:none;stroke:#000000;stroke-width:0.23999999;stroke-linecap:round;stroke-linejoin:round;stroke-miterlimit:10;stroke-dasharray:none;stroke-opacity:1"
             d="m 2433.7188,721.91547 c 24.737,0.22693 49.8129,-10.26178 67.4899,-27.95526 17.677,-17.69349 27.9554,-42.59174 27.9554,-67.48987 0,-24.89826 -10.2784,-49.79651 -27.9554,-67.48993 -17.677,-17.69354 -42.7529,-28.18219 -67.4899,-27.95526" /><path
             id="path336"
             style="fill:none;stroke:#000000;stroke-width:0.23999999;stroke-linecap:round;stroke-linejoin:round;stroke-miterlimit:10;stroke-dasharray:none;stroke-opacity:1"
             d="m 1192.9318,435.57996 c 0.032,-11.22022 -2.0729,-23.40134 -6.6842,-35.12009 -2.3057,-5.85938 -5.238,-11.60315 -8.8739,-17.10843 -3.636,-5.50525 -7.9758,-10.772 -12.6597,-15.44052 -18.736,-18.67404 -42.9818,-27.77609 -67.2275,-27.77609 -24.2458,0 -48.4915,9.10205 -67.2276,27.77609 -4.6839,4.66852 -9.0236,9.93527 -12.6596,15.44052 -3.636,5.50528 -6.5681,11.24905 -8.8738,17.10843 -4.6113,11.71875 -6.7163,23.89987 -6.6841,35.12009" /><path
             id="path338"
             style="fill:none;stroke:#000000;stroke-width:0.23999999;stroke-linecap:round;stroke-linejoin:round;stroke-miterlimit:10;stroke-dasharray:none;stroke-opacity:1"
             d="m 1574.7123,244.68964 c 0.227,-24.73694 -10.2617,-49.81287 -27.9552,-67.48992 -17.6935,-17.67706 -42.5917,-27.95524 -67.4899,-27.95524 -24.8983,0 -49.7965,10.27819 -67.49,27.95526 -17.6935,17.67705 -28.1821,42.75297 -27.9553,67.48993" /><path
             id="path340"
             style="fill:none;stroke:#000000;stroke-width:0.23999999;stroke-linecap:round;stroke-linejoin:round;stroke-miterlimit:10;stroke-dasharray:none;stroke-opacity:1"
             d="m 1383.8219,1008.251 c -0.032,11.2203 2.0729,23.4013 6.6842,35.1201 2.3057,5.8594 5.2379,11.6031 8.8739,17.1084 3.636,5.5052 7.9756,10.772 12.6597,15.4405 18.7361,18.6741 42.9818,27.7762 67.2275,27.7762 24.2457,0 48.4915,-9.1021 67.2276,-27.7762 4.6839,-4.6685 9.0236,-9.9353 12.6596,-15.4405 3.6359,-5.5053 6.5681,-11.249 8.8738,-17.1084 4.6113,-11.7188 6.7163,-23.8998 6.6841,-35.1201" /></g></g></g></g></svg>