<?xml version="1.0" encoding="UTF-8" standalone="no"?>
<svg
   xmlns:dc="http://purl.org/dc/elements/1.1/"
   xmlns:cc="http://creativecommons.org/ns#"
   xmlns:rdf="http://www.w3.org/1999/02/22-rdf-syntax-ns#"
   xmlns:svg="http://www.w3.org/2000/svg"
   xmlns="http://www.w3.org/2000/svg"
   viewBox="0 0 4493.7603 3178.5598"
   height="3178.5598"
   width="4493.7603"
   xml:space="preserve"
   id="svg2"
   version="1.1"><metadata
     id="metadata8"><rdf:RDF><cc:Work
         rdf:about=""><dc:format>image/svg+xml</dc:format><dc:type
           rdf:resource="http://purl.org/dc/dcmitype/StillImage" /></cc:Work></rdf:RDF></metadata><defs
     id="defs6"><clipPath
       id="clipPath20"
       clipPathUnits="userSpaceOnUse"><path
         id="path18"
         d="M 0,0 V 2383.9199 H 3370.3201 V 0 Z" /></clipPath></defs><g
     transform="matrix(1.3333333,0,0,-1.3333333,0,3178.5599)"
     id="g10"><g
       transform="matrix(1,0,0,-1,0,2383.9199)"
       id="g12"><g
         id="g14"><g
           clip-path="url(#clipPath20)"
           id="g16"><g
             id="g22"><path
               id="path24"
               style="fill:#ffffff;fill-opacity:1;fill-rule:nonzero;stroke:none"
               d="m 2507.8081,715.40668 c 0,-61.55262 0,-123.10529 0,-184.6579 -61.5525,0 -123.1052,0 -184.6577,0 -61.5527,0 -123.1055,0 -184.658,0 -61.5527,0 -123.1056,0 -184.6582,0 -61.5526,0 -123.1052,0 -184.6578,0 0,61.55261 0,123.10528 0,184.6579 61.5526,0 123.1052,0 184.6578,0 61.5526,0 123.1055,0 184.6582,0 61.5525,0 123.1053,0 184.658,0 61.5525,0 123.1052,0 184.6577,0 z" /></g><g
             id="g26"><path
               id="path28"
               style="fill:#ffffff;fill-opacity:1;fill-rule:nonzero;stroke:none"
               d="m 661.22864,2192.6702 c 61.55261,0 123.10528,0 184.65796,0 0,-61.5525 0,-123.1053 0,-184.658 0,-61.5526 0,-123.1052 0,-184.6578 61.55261,0 123.10534,0 184.658,0 61.5526,0 123.1053,0 184.6579,0 0,-61.5528 0,-123.1054 0,-184.658 0,-61.5526 0,-123.1053 0,-184.6579 0,-61.5527 0,-123.1054 0,-184.658 -61.5526,0 -123.1053,0 -184.6579,0 -61.55266,0 -123.10539,0 -184.658,0 -61.55268,0 -123.10535,0 -184.65796,0 0,61.5526 0,123.1053 0,184.658 0,61.5526 0,123.1053 0,184.6579 0,61.5526 0,123.1052 0,184.658 0,61.5526 0,123.1052 0,184.6578 0,61.5527 0,123.1055 0,184.658 z M 845.8866,1638.6964 c 0,-61.5526 0,-123.1053 0,-184.6579 61.55261,0 123.10534,0 184.658,0 0,61.5526 0,123.1053 0,184.6579 -61.55266,0 -123.10539,0 -184.658,0 z" /></g><g
             id="g30"><path
               id="path32"
               style="fill:#ffffff;fill-opacity:1;fill-rule:nonzero;stroke:none"
               d="m 1215.2025,530.74878 c 0,-61.5527 0,-123.10535 0,-184.65799 -61.5526,0 -123.1053,0 -184.6579,0 0,61.55264 0,123.10529 0,184.65799 0,61.55261 0,123.10528 0,184.6579 0,61.55267 0,123.10528 0,184.65796 0,61.55267 0,123.10526 0,184.65786 61.5526,0 123.1053,0 184.6579,0 0,-61.5526 0,-123.10519 0,-184.65786 0,-61.55268 0,-123.10529 0,-184.65796 0,-61.55262 0,-123.10529 0,-184.6579 z" /></g><g
             id="g34"><path
               id="path36"
               style="fill:#ffffff;fill-opacity:1;fill-rule:nonzero;stroke:none"
               d="m 1953.8342,2192.6702 c 0,-61.5525 0,-123.1053 0,-184.658 -61.5526,0 -123.1052,0 -184.6578,0 -61.5527,0 -123.1054,0 -184.658,0 0,-61.5526 0,-123.1052 0,-184.6578 0,-61.5528 0,-123.1054 0,-184.658 0,-61.5526 0,-123.1053 0,-184.6579 0,-61.5527 0,-123.1054 0,-184.658 -61.5527,0 -123.1053,0 -184.6579,0 0,61.5526 0,123.1053 0,184.658 0,61.5526 0,123.1053 0,184.6579 0,61.5526 0,123.1052 0,184.658 0,61.5526 0,123.1052 0,184.6578 0,61.5527 0,123.1055 0,184.658 61.5526,0 123.1052,0 184.6579,0 61.5526,0 123.1053,0 184.658,0 61.5526,0 123.1052,0 184.6578,0 z" /></g><g
             id="g38"><path
               id="path40"
               style="fill:#ffffff;fill-opacity:1;fill-rule:nonzero;stroke:none"
               d="m 2507.8081,346.09079 c 61.5527,0 123.1055,0 184.658,0 0,-61.55264 0,-123.10532 0,-184.65796 -61.5525,0 -123.1053,0 -184.658,0 -61.5525,0 -123.1052,0 -184.6577,0 -61.5527,0 -123.1055,0 -184.658,0 -61.5527,0 -123.1056,0 -184.6582,0 -61.5526,0 -123.1052,0 -184.6578,0 0,61.55264 0,123.10532 0,184.65796 61.5526,0 123.1052,0 184.6578,0 61.5526,0 123.1055,0 184.6582,0 61.5525,0 123.1053,0 184.658,0 61.5525,0 123.1052,0 184.6577,0 z" /></g><g
             id="g42"><path
               id="path44"
               style="fill:#ffffff;fill-opacity:1;fill-rule:nonzero;stroke:none"
               d="m 2692.4661,1454.0385 c 0,-61.5527 0,-123.1054 0,-184.658 -61.5525,0 -123.1053,0 -184.658,0 0,61.5526 0,123.1053 0,184.658 0,61.5526 0,123.1053 0,184.6579 0,61.5526 0,123.1052 0,184.658 0,61.5526 0,123.1052 0,184.6578 -61.5525,0 -123.1052,0 -184.6577,0 0,-61.5526 0,-123.1052 0,-184.6578 0,-61.5528 0,-123.1054 0,-184.658 0,-61.5526 0,-123.1053 0,-184.6579 0,-61.5527 0,-123.1054 0,-184.658 -61.5527,0 -123.1055,0 -184.658,0 0,61.5526 0,123.1053 0,184.658 0,61.5526 0,123.1053 0,184.6579 0,61.5526 0,123.1052 0,184.658 0,61.5526 0,123.1052 0,184.6578 0,61.5527 0,123.1055 0,184.658 61.5525,0 123.1053,0 184.658,0 61.5525,0 123.1052,0 184.6577,0 61.5527,0 123.1055,0 184.658,0 0,-61.5525 0,-123.1053 0,-184.658 0,-61.5526 0,-123.1052 0,-184.6578 0,-61.5528 0,-123.1054 0,-184.658 0,-61.5526 0,-123.1053 0,-184.6579 z" /></g><g
             id="g46"><path
               id="path48"
               style="fill:#ffffff;fill-opacity:1;fill-rule:nonzero;stroke:none"
               d="m 845.8866,530.74878 c 0,-61.5527 0,-123.10535 0,-184.65799 0,-61.55264 0,-123.10532 0,-184.65796 -61.55268,0 -123.10535,0 -184.65796,0 0,61.55264 0,123.10532 0,184.65796 0,61.55264 0,123.10529 0,184.65799 0,61.55261 0,123.10528 0,184.6579 0,61.55267 0,123.10528 0,184.65796 0,61.55267 0,123.10526 0,184.65786 61.55261,0 123.10528,0 184.65796,0 0,-61.5526 0,-123.10519 0,-184.65786 0,-61.55268 0,-123.10529 0,-184.65796 0,-61.55262 0,-123.10529 0,-184.6579 z" /></g><g
             id="g50"><path
               id="path52"
               style="fill:#ffffff;fill-opacity:1;fill-rule:nonzero;stroke:none"
               d="m 1399.8605,346.09079 c 0,61.55264 0,123.10529 0,184.65799 0,61.55261 0,123.10528 0,184.6579 0,61.55267 0,123.10528 0,184.65796 0,61.55267 0,123.10526 0,184.65786 61.5526,0 123.1052,0 184.6579,0 0,-61.5526 0,-123.10519 0,-184.65786 0,-61.55268 0,-123.10529 0,-184.65796 0,-61.55262 0,-123.10529 0,-184.6579 0,-61.5527 0,-123.10535 0,-184.65799 0,-61.55264 0,-123.10532 0,-184.65796 -61.5527,0 -123.1053,0 -184.6579,0 0,61.55264 0,123.10532 0,184.65796 z" /></g><g
             id="g54"><path
               id="path56"
               style="fill:#ffffff;fill-opacity:1;fill-rule:nonzero;stroke:none"
               d="m 2507.8081,1084.7225 c 61.5527,0 123.1055,0 184.658,0 0,-61.5526 0,-123.10519 0,-184.65786 -61.5525,0 -123.1053,0 -184.658,0 -61.5525,0 -123.1052,0 -184.6577,0 -61.5527,0 -123.1055,0 -184.658,0 -61.5527,0 -123.1056,0 -184.6582,0 -61.5526,0 -123.1052,0 -184.6578,0 0,61.55267 0,123.10526 0,184.65786 61.5526,0 123.1052,0 184.6578,0 61.5526,0 123.1055,0 184.6582,0 61.5525,0 123.1053,0 184.658,0 61.5525,0 123.1052,0 184.6577,0 z" /></g><path
             id="path58"
             style="fill:none;stroke:#000000;stroke-width:2.83464575;stroke-linecap:round;stroke-linejoin:round;stroke-miterlimit:10;stroke-dasharray:none;stroke-opacity:1"
             d="m 2692.4661,1454.0385 v -184.658 h -184.658 v 184.658 184.6579 184.658 184.6578 h -184.6577 v -184.6578 -184.658 -184.6579 -184.658 h -184.658 v 184.658 184.6579 184.658 184.6578 184.658 h 184.658 184.6577 184.658 v -184.658 -184.6578 -184.658 z" /><path
             id="path60"
             style="fill:none;stroke:#000000;stroke-width:2.83464575;stroke-linecap:round;stroke-linejoin:round;stroke-miterlimit:10;stroke-dasharray:none;stroke-opacity:1"
             d="M 661.22864,2192.6702 H 845.8866 v -184.658 -184.6578 h 184.658 184.6579 v -184.658 -184.6579 -184.658 H 1030.5446 845.8866 661.22864 v 184.658 184.6579 184.658 184.6578 z" /><path
             id="path62"
             style="fill:none;stroke:#000000;stroke-width:2.83464575;stroke-linecap:round;stroke-linejoin:round;stroke-miterlimit:10;stroke-dasharray:none;stroke-opacity:1"
             d="m 1953.8342,2192.6702 v -184.658 h -184.6578 -184.658 v -184.6578 -184.658 -184.6579 -184.658 h -184.6579 v 184.658 184.6579 184.658 184.6578 184.658 h 184.6579 184.658 z" /><path
             id="path64"
             style="fill:none;stroke:#000000;stroke-width:2.83464575;stroke-linecap:round;stroke-linejoin:round;stroke-miterlimit:10;stroke-dasharray:none;stroke-opacity:1"
             d="m 2507.8081,1084.7225 h 184.658 V 900.06464 h -184.658 -184.6577 -184.658 -184.6582 -184.6578 v 184.65786 h 184.6578 184.6582 184.658 z" /><path
             id="path66"
             style="fill:none;stroke:#000000;stroke-width:2.83464575;stroke-linecap:round;stroke-linejoin:round;stroke-miterlimit:10;stroke-dasharray:none;stroke-opacity:1"
             d="m 2507.8081,346.09079 h 184.658 V 161.43283 h -184.658 -184.6577 -184.658 -184.6582 -184.6578 v 184.65796 h 184.6578 184.6582 184.658 z" /><path
             id="path68"
             style="fill:none;stroke:#000000;stroke-width:2.83464575;stroke-linecap:round;stroke-linejoin:round;stroke-miterlimit:10;stroke-dasharray:none;stroke-opacity:1"
             d="m 2507.8081,715.40668 v -184.6579 h -184.6577 -184.658 -184.6582 -184.6578 v 184.6579 h 184.6578 184.6582 184.658 z" /><path
             id="path70"
             style="fill:none;stroke:#000000;stroke-width:2.83464575;stroke-linecap:round;stroke-linejoin:round;stroke-miterlimit:10;stroke-dasharray:none;stroke-opacity:1"
             d="M 1215.2025,530.74878 V 346.09079 h -184.6579 v 184.65799 184.6579 184.65796 184.65786 h 184.6579 V 900.06464 715.40668 Z" /><path
             id="path72"
             style="fill:none;stroke:#000000;stroke-width:2.83464575;stroke-linecap:round;stroke-linejoin:round;stroke-miterlimit:10;stroke-dasharray:none;stroke-opacity:1"
             d="M 845.8866,530.74878 V 346.09079 161.43283 H 661.22864 v 184.65796 184.65799 184.6579 184.65796 184.65786 H 845.8866 V 900.06464 715.40668 Z" /><path
             id="path74"
             style="fill:none;stroke:#000000;stroke-width:2.83464575;stroke-linecap:round;stroke-linejoin:round;stroke-miterlimit:10;stroke-dasharray:none;stroke-opacity:1"
             d="m 1399.8605,346.09079 v 184.65799 184.6579 184.65796 184.65786 h 184.6579 V 900.06464 715.40668 530.74878 346.09079 161.43283 h -184.6579 z" /><path
             id="path76"
             style="fill:none;stroke:#000000;stroke-width:2.83464575;stroke-linecap:round;stroke-linejoin:round;stroke-miterlimit:10;stroke-dasharray:none;stroke-opacity:1"
             d="m 845.8866,1638.6964 v -184.6579 h 184.658 v 184.6579 z" /></g></g></g></g></svg>